<?xml version="1.0" encoding="utf-8" standalone="no"?>
<!DOCTYPE svg PUBLIC "-//W3C//DTD SVG 1.1//EN"
  "http://www.w3.org/Graphics/SVG/1.1/DTD/svg11.dtd">
<!-- Created with matplotlib (http://matplotlib.org/) -->
<svg height="574pt" version="1.1" viewBox="0 0 720 574" width="720pt" xmlns="http://www.w3.org/2000/svg" xmlns:xlink="http://www.w3.org/1999/xlink">
 <defs>
  <style type="text/css">
*{stroke-linecap:butt;stroke-linejoin:round;}
  </style>
 </defs>
 <g id="figure_1">
  <g id="patch_1">
   <path d="M 0 574.56 
L 720.72 574.56 
L 720.72 0 
L 0 0 
z
" style="fill:#ffffff;"/>
  </g>
  <g id="axes_1">
   <g id="patch_2">
    <path d="M 72.072 519.9768 
L 695.4948 519.9768 
L 695.4948 11.4912 
L 72.072 11.4912 
z
" style="fill:#ffffff;"/>
   </g>
   <g id="matplotlib.axis_1">
    <g id="xtick_1">
     <g id="line2d_1">
      <defs>
       <path d="M 0 0 
L 0 3.5 
" id="mbbf37dc4fc" style="stroke:#000000;stroke-width:0.8;"/>
      </defs>
      <g>
       <use style="stroke:#000000;stroke-width:0.8;" x="72.072" xlink:href="#mbbf37dc4fc" y="519.9768"/>
      </g>
     </g>
     <g id="text_1">
      <text style="font-family:DejaVu Sans;font-size:10px;font-style:normal;font-weight:normal;text-anchor:middle;" transform="rotate(-0, 72.072, 534.575238)" x="72.072" y="534.575238">928</text>
     </g>
    </g>
    <g id="xtick_2">
     <g id="line2d_2">
      <g>
       <use style="stroke:#000000;stroke-width:0.8;" x="175.9758" xlink:href="#mbbf37dc4fc" y="519.9768"/>
      </g>
     </g>
     <g id="text_2">
      <text style="font-family:DejaVu Sans;font-size:10px;font-style:normal;font-weight:normal;text-anchor:middle;" transform="rotate(-0, 175.9758, 534.575238)" x="175.9758" y="534.575238">930</text>
     </g>
    </g>
    <g id="xtick_3">
     <g id="line2d_3">
      <g>
       <use style="stroke:#000000;stroke-width:0.8;" x="279.8796" xlink:href="#mbbf37dc4fc" y="519.9768"/>
      </g>
     </g>
     <g id="text_3">
      <text style="font-family:DejaVu Sans;font-size:10px;font-style:normal;font-weight:normal;text-anchor:middle;" transform="rotate(-0, 279.8796, 534.575238)" x="279.8796" y="534.575238">932</text>
     </g>
    </g>
    <g id="xtick_4">
     <g id="line2d_4">
      <g>
       <use style="stroke:#000000;stroke-width:0.8;" x="383.7834" xlink:href="#mbbf37dc4fc" y="519.9768"/>
      </g>
     </g>
     <g id="text_4">
      <text style="font-family:DejaVu Sans;font-size:10px;font-style:normal;font-weight:normal;text-anchor:middle;" transform="rotate(-0, 383.7834, 534.575238)" x="383.7834" y="534.575238">934</text>
     </g>
    </g>
    <g id="xtick_5">
     <g id="line2d_5">
      <g>
       <use style="stroke:#000000;stroke-width:0.8;" x="487.6872" xlink:href="#mbbf37dc4fc" y="519.9768"/>
      </g>
     </g>
     <g id="text_5">
      <text style="font-family:DejaVu Sans;font-size:10px;font-style:normal;font-weight:normal;text-anchor:middle;" transform="rotate(-0, 487.6872, 534.575238)" x="487.6872" y="534.575238">936</text>
     </g>
    </g>
    <g id="xtick_6">
     <g id="line2d_6">
      <g>
       <use style="stroke:#000000;stroke-width:0.8;" x="591.591" xlink:href="#mbbf37dc4fc" y="519.9768"/>
      </g>
     </g>
     <g id="text_6">
      <text style="font-family:DejaVu Sans;font-size:10px;font-style:normal;font-weight:normal;text-anchor:middle;" transform="rotate(-0, 591.591, 534.575238)" x="591.591" y="534.575238">938</text>
     </g>
    </g>
    <g id="xtick_7">
     <g id="line2d_7">
      <g>
       <use style="stroke:#000000;stroke-width:0.8;" x="695.4948" xlink:href="#mbbf37dc4fc" y="519.9768"/>
      </g>
     </g>
     <g id="text_7">
      <text style="font-family:DejaVu Sans;font-size:10px;font-style:normal;font-weight:normal;text-anchor:middle;" transform="rotate(-0, 695.4948, 534.575238)" x="695.4948" y="534.575238">940</text>
     </g>
    </g>
    <g id="text_8">
     <text style="font-family:DejaVu Sans;font-size:17.28px;font-style:normal;font-weight:normal;text-anchor:middle;" transform="rotate(-0, 383.7834, 553.785025)" x="383.7834" y="553.785025">Photon Energy (eV)</text>
    </g>
   </g>
   <g id="matplotlib.axis_2">
    <g id="ytick_1">
     <g id="line2d_8">
      <defs>
       <path d="M 0 0 
L -3.5 0 
" id="m6a90cb7719" style="stroke:#000000;stroke-width:0.8;"/>
      </defs>
      <g>
       <use style="stroke:#000000;stroke-width:0.8;" x="72.072" xlink:href="#m6a90cb7719" y="519.9768"/>
      </g>
     </g>
     <g id="text_9">
      <text style="font-family:DejaVu Sans;font-size:10px;font-style:normal;font-weight:normal;text-anchor:end;" transform="rotate(-0, 65.072, 523.776019)" x="65.072" y="523.776019">0.0</text>
     </g>
    </g>
    <g id="ytick_2">
     <g id="line2d_9">
      <g>
       <use style="stroke:#000000;stroke-width:0.8;" x="72.072" xlink:href="#m6a90cb7719" y="427.524873"/>
      </g>
     </g>
     <g id="text_10">
      <text style="font-family:DejaVu Sans;font-size:10px;font-style:normal;font-weight:normal;text-anchor:end;" transform="rotate(-0, 65.072, 431.324091)" x="65.072" y="431.324091">0.2</text>
     </g>
    </g>
    <g id="ytick_3">
     <g id="line2d_10">
      <g>
       <use style="stroke:#000000;stroke-width:0.8;" x="72.072" xlink:href="#m6a90cb7719" y="335.072945"/>
      </g>
     </g>
     <g id="text_11">
      <text style="font-family:DejaVu Sans;font-size:10px;font-style:normal;font-weight:normal;text-anchor:end;" transform="rotate(-0, 65.072, 338.872164)" x="65.072" y="338.872164">0.4</text>
     </g>
    </g>
    <g id="ytick_4">
     <g id="line2d_11">
      <g>
       <use style="stroke:#000000;stroke-width:0.8;" x="72.072" xlink:href="#m6a90cb7719" y="242.621018"/>
      </g>
     </g>
     <g id="text_12">
      <text style="font-family:DejaVu Sans;font-size:10px;font-style:normal;font-weight:normal;text-anchor:end;" transform="rotate(-0, 65.072, 246.420237)" x="65.072" y="246.420237">0.6</text>
     </g>
    </g>
    <g id="ytick_5">
     <g id="line2d_12">
      <g>
       <use style="stroke:#000000;stroke-width:0.8;" x="72.072" xlink:href="#m6a90cb7719" y="150.169091"/>
      </g>
     </g>
     <g id="text_13">
      <text style="font-family:DejaVu Sans;font-size:10px;font-style:normal;font-weight:normal;text-anchor:end;" transform="rotate(-0, 65.072, 153.96831)" x="65.072" y="153.96831">0.8</text>
     </g>
    </g>
    <g id="ytick_6">
     <g id="line2d_13">
      <g>
       <use style="stroke:#000000;stroke-width:0.8;" x="72.072" xlink:href="#m6a90cb7719" y="57.717164"/>
      </g>
     </g>
     <g id="text_14">
      <text style="font-family:DejaVu Sans;font-size:10px;font-style:normal;font-weight:normal;text-anchor:end;" transform="rotate(-0, 65.072, 61.516382)" x="65.072" y="61.516382">1.0</text>
     </g>
    </g>
    <g id="text_15">
     <text style="font-family:DejaVu Sans;font-size:17.28px;font-style:normal;font-weight:normal;text-anchor:middle;" transform="rotate(-90, 41.575175, 265.734)" x="41.575175" y="265.734">Absorption (a.u.)</text>
    </g>
   </g>
   <g id="line2d_14">
    <path clip-path="url(#pf74335c271)" d="M -1 504.858151 
L -0.661928 504.848294 
L 9.729086 503.246578 
L 20.1201 503.717488 
L 30.511114 502.153473 
L 40.902128 501.173002 
L 51.289972 500.629115 
L 61.680986 499.073237 
L 72.072 498.033391 
L 82.463014 495.630951 
L 92.854028 495.20203 
L 103.241872 493.974474 
L 124.0239 487.345978 
L 134.414914 484.768603 
L 144.805928 481.167062 
L 155.193772 473.850876 
L 165.584786 467.098319 
L 175.9758 456.674085 
L 186.366814 440.405375 
L 196.757828 418.726207 
L 207.145672 386.383197 
L 217.536686 337.917424 
L 227.9277 264.112723 
L 248.709728 102.141126 
L 259.097572 59.224319 
L 269.488586 58.142339 
L 279.8796 87.05659 
L 290.270614 123.169239 
L 300.661628 159.955243 
L 311.049472 192.175046 
L 321.440486 213.987113 
L 331.8315 225.587118 
L 342.222514 239.749333 
L 352.613528 266.072142 
L 363.001372 298.920573 
L 383.7834 354.881415 
L 394.174414 378.349312 
L 404.565428 393.597524 
L 414.953272 408.362585 
L 425.344286 416.849466 
L 435.7353 422.495875 
L 446.126314 427.118679 
L 456.517328 426.905594 
L 466.905172 424.452407 
L 477.296186 421.459878 
L 487.6872 416.333828 
L 498.078214 411.714634 
L 508.469228 406.764104 
L 518.857072 402.75515 
L 529.248086 401.282509 
L 539.6391 401.069713 
L 550.030114 401.948363 
L 560.421128 402.247774 
L 570.808972 403.285595 
L 581.199986 405.198642 
L 591.591 406.463861 
L 601.982014 406.427346 
L 622.760872 404.970532 
L 633.151886 404.807654 
L 643.5429 403.555789 
L 653.933914 405.541155 
L 664.324928 404.921851 
L 674.712772 403.611966 
L 685.103786 405.730312 
L 695.4948 405.609455 
L 705.885814 409.187499 
L 716.276828 409.770377 
L 721.72 411.440506 
L 721.72 411.440506 
" style="fill:none;stroke:#000000;stroke-linecap:square;stroke-width:1.5;"/>
   </g>
   <g id="line2d_15">
    <path clip-path="url(#pf74335c271)" d="M -1 505.184515 
L -0.661928 505.156402 
L 9.729086 503.974769 
L 20.1201 503.549226 
L 30.511114 502.558206 
L 40.902128 501.112628 
L 51.289972 501.125057 
L 61.680986 499.193803 
L 72.072 497.682328 
L 82.463014 495.347399 
L 92.854028 493.937262 
L 103.241872 491.763613 
L 113.632886 488.853823 
L 124.0239 485.05358 
L 134.414914 481.020871 
L 144.805928 475.177302 
L 155.193772 468.662174 
L 165.584786 460.462447 
L 175.9758 448.310327 
L 186.366814 429.997005 
L 196.757828 406.489031 
L 207.145672 369.548347 
L 217.536686 314.778011 
L 227.9277 233.697489 
L 238.318714 146.862684 
L 248.709728 81.599259 
L 259.097572 57.717164 
L 269.488586 72.492257 
L 279.8796 114.351871 
L 290.270614 161.329078 
L 300.661628 205.858613 
L 311.049472 237.344226 
L 321.440486 255.953273 
L 331.8315 268.587673 
L 342.222514 283.805237 
L 352.613528 306.552908 
L 363.001372 333.853609 
L 373.392386 358.678725 
L 383.7834 379.219117 
L 394.174414 394.770629 
L 414.953272 418.108403 
L 425.344286 425.729196 
L 435.7353 431.104467 
L 446.126314 434.0606 
L 456.517328 434.691306 
L 466.905172 433.184553 
L 477.296186 430.455097 
L 487.6872 427.22058 
L 498.078214 423.728856 
L 508.469228 421.261129 
L 518.857072 419.739395 
L 529.248086 418.649387 
L 560.421128 420.785682 
L 570.808972 421.384573 
L 581.199986 422.204746 
L 601.982014 422.046303 
L 612.373028 420.967729 
L 622.760872 421.372217 
L 633.151886 420.107737 
L 643.5429 419.980819 
L 653.933914 419.967099 
L 664.324928 420.196644 
L 674.712772 420.867384 
L 685.103786 422.243175 
L 695.4948 423.315539 
L 705.885814 424.924681 
L 716.276828 427.536724 
L 721.72 428.381564 
L 721.72 428.381564 
" style="fill:none;stroke:#8b4513;stroke-linecap:square;stroke-width:1.5;"/>
   </g>
   <g id="line2d_16">
    <path clip-path="url(#pf74335c271)" d="M -1 506.721225 
L -0.661928 506.712403 
L 9.729086 505.249486 
L 20.1201 505.383551 
L 30.511114 504.374322 
L 40.902128 503.208113 
L 51.289972 502.29326 
L 72.072 499.585214 
L 82.463014 498.139 
L 92.854028 496.565939 
L 103.241872 494.378819 
L 113.632886 492.012758 
L 124.0239 487.947098 
L 134.414914 485.286803 
L 144.805928 480.262843 
L 155.193772 473.725559 
L 165.584786 464.477668 
L 175.9758 453.942386 
L 186.366814 437.2978 
L 196.757828 412.848223 
L 207.145672 375.967361 
L 217.536686 322.041334 
L 227.9277 243.224052 
L 238.318714 160.901798 
L 248.709728 86.633044 
L 259.097572 57.717164 
L 269.488586 78.274348 
L 290.270614 190.577654 
L 300.661628 241.525953 
L 311.049472 279.100181 
L 321.440486 300.070114 
L 331.8315 313.974807 
L 342.222514 324.451012 
L 352.613528 338.429591 
L 363.001372 353.499663 
L 373.392386 367.903418 
L 383.7834 374.967428 
L 394.174414 379.84547 
L 404.565428 384.208238 
L 414.953272 391.746324 
L 425.344286 402.138601 
L 435.7353 411.447737 
L 446.126314 415.587002 
L 456.517328 417.292796 
L 466.905172 415.06432 
L 477.296186 412.099957 
L 487.6872 409.294253 
L 498.078214 405.517596 
L 508.469228 402.470051 
L 518.857072 398.871411 
L 529.248086 400.127542 
L 539.6391 399.239365 
L 550.030114 400.311139 
L 560.421128 399.80244 
L 570.808972 399.528593 
L 581.199986 399.825726 
L 591.591 399.849624 
L 601.982014 398.519341 
L 612.373028 397.604504 
L 622.760872 397.762911 
L 633.151886 396.898982 
L 643.5429 396.768299 
L 653.933914 396.899582 
L 664.324928 398.132981 
L 674.712772 400.409229 
L 685.103786 401.587091 
L 695.4948 404.730892 
L 705.885814 406.289064 
L 716.276828 409.490434 
L 721.72 410.642656 
L 721.72 410.642656 
" style="fill:none;stroke:#b8860b;stroke-linecap:square;stroke-width:1.5;"/>
   </g>
   <g id="line2d_17">
    <path clip-path="url(#pf74335c271)" d="M -1 506.11159 
L -0.661928 506.09704 
L 9.729086 506.351986 
L 20.1201 504.187899 
L 30.511114 503.586833 
L 40.902128 501.507888 
L 51.289972 501.208574 
L 61.680986 500.473815 
L 72.072 498.563549 
L 82.463014 496.504152 
L 92.854028 495.034491 
L 103.241872 492.342964 
L 124.0239 485.292299 
L 134.414914 480.85084 
L 144.805928 475.923675 
L 155.193772 467.564021 
L 165.584786 456.689286 
L 175.9758 440.18804 
L 186.366814 416.858198 
L 196.757828 377.28463 
L 207.145672 320.547204 
L 217.536686 237.28442 
L 227.9277 144.409046 
L 238.318714 75.94409 
L 248.709728 57.717164 
L 259.097572 101.5556 
L 269.488586 177.590269 
L 279.8796 258.145638 
L 290.270614 325.636965 
L 300.661628 367.126555 
L 311.049472 394.762206 
L 321.440486 407.675218 
L 331.8315 409.649824 
L 342.222514 403.62885 
L 352.613528 388.12498 
L 363.001372 371.671926 
L 373.392386 361.596591 
L 383.7834 355.813051 
L 394.174414 355.454815 
L 404.565428 362.693958 
L 414.953272 377.530515 
L 425.344286 391.535046 
L 435.7353 402.721839 
L 446.126314 407.395551 
L 456.517328 409.846718 
L 466.905172 409.158329 
L 477.296186 408.968215 
L 487.6872 408.038228 
L 498.078214 406.826709 
L 508.469228 405.159023 
L 518.857072 405.174887 
L 529.248086 402.921475 
L 539.6391 401.375284 
L 550.030114 401.970438 
L 560.421128 399.570053 
L 570.808972 398.624849 
L 581.199986 396.693808 
L 591.591 397.933588 
L 601.982014 396.584176 
L 612.373028 397.077047 
L 622.760872 393.344017 
L 633.151886 395.465094 
L 643.5429 395.112474 
L 653.933914 396.427906 
L 664.324928 398.706894 
L 674.712772 401.62405 
L 685.103786 402.878431 
L 695.4948 406.109614 
L 705.885814 406.915226 
L 716.276828 409.489393 
L 721.72 410.401941 
L 721.72 410.401941 
" style="fill:none;stroke:#6b8e23;stroke-linecap:square;stroke-width:1.5;"/>
   </g>
   <g id="patch_3">
    <path d="M 72.072 519.9768 
L 72.072 11.4912 
" style="fill:none;stroke:#000000;stroke-linecap:square;stroke-linejoin:miter;stroke-width:0.8;"/>
   </g>
   <g id="patch_4">
    <path d="M 695.4948 519.9768 
L 695.4948 11.4912 
" style="fill:none;stroke:#000000;stroke-linecap:square;stroke-linejoin:miter;stroke-width:0.8;"/>
   </g>
   <g id="patch_5">
    <path d="M 72.072 519.9768 
L 695.4948 519.9768 
" style="fill:none;stroke:#000000;stroke-linecap:square;stroke-linejoin:miter;stroke-width:0.8;"/>
   </g>
   <g id="patch_6">
    <path d="M 72.072 11.4912 
L 695.4948 11.4912 
" style="fill:none;stroke:#000000;stroke-linecap:square;stroke-linejoin:miter;stroke-width:0.8;"/>
   </g>
   <g id="text_16">
    <!-- $\mathrm{Cu}^{1+}$ -->
    <g transform="translate(409.75935 353.563331)">
     <text>
      <tspan style="font-family:DejaVu Sans;font-size:12px;font-style:book;font-weight:book;" x="0 8.378906" y="-0.28125">Cu</tspan>
      <tspan style="font-family:DejaVu Sans;font-size:8.4px;font-style:book;font-weight:book;" x="16.099219 23.080078" y="-4.875">1+</tspan>
     </text>
    </g>
   </g>
   <g id="text_17">
    <!-- Cu $L_3$-Edge -->
    <g transform="translate(98.04795 48.471971)">
     <text>
      <tspan style="font-family:DejaVu Sans;font-size:17.28px;font-style:book;font-weight:book;" x="0 12.055588 22.998352 46.26707 52.497188 63.40623 74.365855 85.325481" y="-0.875">Cu -Edge</tspan>
      <tspan style="font-family:DejaVu Sans;font-size:17.28px;font-style:oblique;font-weight:oblique;" x="28.486588" y="-0.875">L</tspan>
      <tspan style="font-family:DejaVu Sans;font-size:12.096px;font-style:book;font-weight:book;" x="38.105759" y="1.9562500000000007">3</tspan>
     </text>
    </g>
   </g>
   <g id="legend_1">
    <g id="patch_7">
     <path d="M 572.81024 509.807088 
L 661.869615 509.807088 
Q 663.869615 509.807088 663.869615 507.807088 
L 663.869615 450.094588 
Q 663.869615 448.094588 661.869615 448.094588 
L 572.81024 448.094588 
Q 570.81024 448.094588 570.81024 450.094588 
L 570.81024 507.807088 
Q 570.81024 509.807088 572.81024 509.807088 
z
" style="fill:#ffffff;opacity:0.8;stroke:#cccccc;stroke-linejoin:miter;"/>
    </g>
    <g id="line2d_18">
     <path d="M 574.81024 456.193026 
L 594.81024 456.193026 
" style="fill:none;stroke:#000000;stroke-linecap:square;stroke-width:1.5;"/>
    </g>
    <g id="line2d_19"/>
    <g id="text_18">
     <text style="font-family:DejaVu Sans;font-size:10px;font-style:normal;font-weight:normal;text-anchor:start;" transform="rotate(-0, 602.81024, 459.693026)" x="602.81024" y="459.693026">As Grown</text>
    </g>
    <g id="line2d_20">
     <path d="M 574.81024 470.871151 
L 594.81024 470.871151 
" style="fill:none;stroke:#8b4513;stroke-linecap:square;stroke-width:1.5;"/>
    </g>
    <g id="line2d_21"/>
    <g id="text_19">
     <text style="font-family:DejaVu Sans;font-size:10px;font-style:normal;font-weight:normal;text-anchor:start;" transform="rotate(-0, 602.81024, 474.371151)" x="602.81024" y="474.371151">Gd (3 nm)</text>
    </g>
    <g id="line2d_22">
     <path d="M 574.81024 485.549276 
L 594.81024 485.549276 
" style="fill:none;stroke:#b8860b;stroke-linecap:square;stroke-width:1.5;"/>
    </g>
    <g id="line2d_23"/>
    <g id="text_20">
     <text style="font-family:DejaVu Sans;font-size:10px;font-style:normal;font-weight:normal;text-anchor:start;" transform="rotate(-0, 602.81024, 489.049276)" x="602.81024" y="489.049276">Gd (7 nm)</text>
    </g>
    <g id="line2d_24">
     <path d="M 574.81024 500.227401 
L 594.81024 500.227401 
" style="fill:none;stroke:#6b8e23;stroke-linecap:square;stroke-width:1.5;"/>
    </g>
    <g id="line2d_25"/>
    <g id="text_21">
     <text style="font-family:DejaVu Sans;font-size:10px;font-style:normal;font-weight:normal;text-anchor:start;" transform="rotate(-0, 602.81024, 503.727401)" x="602.81024" y="503.727401">Gd (20 nm)</text>
    </g>
   </g>
  </g>
  <g id="axes_2">
   <g id="patch_8">
    <path d="M 418.0176 258.552 
L 670.2696 258.552 
L 670.2696 28.728 
L 418.0176 28.728 
z
" style="fill:#ffffff;"/>
   </g>
   <g id="patch_9">
    <path clip-path="url(#pc4e832a679)" d="M 432.855953 258.552 
L 521.886071 258.552 
L 521.886071 28.728 
L 432.855953 28.728 
z
" style="fill:#1f77b4;opacity:0.1;"/>
   </g>
   <g id="matplotlib.axis_3">
    <g id="xtick_8">
     <g id="line2d_26">
      <g>
       <use style="stroke:#000000;stroke-width:0.8;" x="447.694306" xlink:href="#mbbf37dc4fc" y="258.552"/>
      </g>
     </g>
     <g id="text_22">
      <text style="font-family:DejaVu Sans;font-size:8.33px;font-style:normal;font-weight:normal;text-anchor:middle;" transform="rotate(-0, 447.694306, 271.881498)" x="447.694306" y="271.881498">930</text>
     </g>
    </g>
    <g id="xtick_9">
     <g id="line2d_27">
      <g>
       <use style="stroke:#000000;stroke-width:0.8;" x="521.886071" xlink:href="#mbbf37dc4fc" y="258.552"/>
      </g>
     </g>
     <g id="text_23">
      <text style="font-family:DejaVu Sans;font-size:8.33px;font-style:normal;font-weight:normal;text-anchor:middle;" transform="rotate(-0, 521.886071, 271.881498)" x="521.886071" y="271.881498">940</text>
     </g>
    </g>
    <g id="xtick_10">
     <g id="line2d_28">
      <g>
       <use style="stroke:#000000;stroke-width:0.8;" x="596.077835" xlink:href="#mbbf37dc4fc" y="258.552"/>
      </g>
     </g>
     <g id="text_24">
      <text style="font-family:DejaVu Sans;font-size:8.33px;font-style:normal;font-weight:normal;text-anchor:middle;" transform="rotate(-0, 596.077835, 271.881498)" x="596.077835" y="271.881498">950</text>
     </g>
    </g>
    <g id="xtick_11">
     <g id="line2d_29">
      <g>
       <use style="stroke:#000000;stroke-width:0.8;" x="670.2696" xlink:href="#mbbf37dc4fc" y="258.552"/>
      </g>
     </g>
     <g id="text_25">
      <text style="font-family:DejaVu Sans;font-size:8.33px;font-style:normal;font-weight:normal;text-anchor:middle;" transform="rotate(-0, 670.2696, 271.881498)" x="670.2696" y="271.881498">960</text>
     </g>
    </g>
    <g id="text_26">
     <text style="font-family:DejaVu Sans;font-size:8.33px;font-style:normal;font-weight:normal;text-anchor:middle;" transform="rotate(-0, 544.1436, 283.943377)" x="544.1436" y="283.943377">Photon Energy (eV)</text>
    </g>
   </g>
   <g id="matplotlib.axis_4">
    <g id="ytick_7">
     <g id="line2d_30">
      <g>
       <use style="stroke:#000000;stroke-width:0.8;" x="418.0176" xlink:href="#m6a90cb7719" y="258.552"/>
      </g>
     </g>
     <g id="text_27">
      <text style="font-family:DejaVu Sans;font-size:8.33px;font-style:normal;font-weight:normal;text-anchor:end;" transform="rotate(-0, 411.0176, 261.716749)" x="411.0176" y="261.716749">0.0</text>
     </g>
    </g>
    <g id="ytick_8">
     <g id="line2d_31">
      <g>
       <use style="stroke:#000000;stroke-width:0.8;" x="418.0176" xlink:href="#m6a90cb7719" y="154.086545"/>
      </g>
     </g>
     <g id="text_28">
      <text style="font-family:DejaVu Sans;font-size:8.33px;font-style:normal;font-weight:normal;text-anchor:end;" transform="rotate(-0, 411.0176, 157.251295)" x="411.0176" y="157.251295">0.5</text>
     </g>
    </g>
    <g id="ytick_9">
     <g id="line2d_32">
      <g>
       <use style="stroke:#000000;stroke-width:0.8;" x="418.0176" xlink:href="#m6a90cb7719" y="49.621091"/>
      </g>
     </g>
     <g id="text_29">
      <text style="font-family:DejaVu Sans;font-size:8.33px;font-style:normal;font-weight:normal;text-anchor:end;" transform="rotate(-0, 411.0176, 52.78584)" x="411.0176" y="52.78584">1.0</text>
     </g>
    </g>
    <g id="text_30">
     <text style="font-family:DejaVu Sans;font-size:8.33px;font-style:normal;font-weight:normal;text-anchor:middle;" transform="rotate(-90, 392.037917, 143.64)" x="392.037917" y="143.64">Absorption (a.u.)</text>
    </g>
   </g>
   <g id="line2d_33">
    <path clip-path="url(#pc4e832a679)" d="M 300.794702 258.170569 
L 302.278628 258.85039 
L 303.762101 257.976184 
L 305.246027 258.333741 
L 308.213879 258.090715 
L 311.181278 257.803209 
L 312.665204 257.925135 
L 314.149129 258.254351 
L 315.633055 257.86013 
L 317.116981 257.625292 
L 318.600454 257.946516 
L 320.08438 257.641638 
L 323.052232 258.19086 
L 326.019631 257.295105 
L 327.503556 257.926502 
L 328.987482 257.356222 
L 330.471408 257.636278 
L 333.438807 257.529881 
L 334.922733 256.900819 
L 336.406659 257.77753 
L 337.890585 257.54321 
L 339.374511 256.791906 
L 340.857984 257.16306 
L 343.825835 256.785751 
L 345.309761 257.070553 
L 348.27716 257.131561 
L 349.761086 256.754878 
L 351.245012 257.000767 
L 352.728938 256.470857 
L 354.212863 256.99739 
L 357.180262 256.607291 
L 360.148114 256.915508 
L 361.63204 256.125437 
L 363.115513 256.172867 
L 364.599439 256.34591 
L 367.567291 256.131687 
L 369.051216 256.576597 
L 370.534689 256.510345 
L 372.018615 256.711167 
L 374.986467 256.002846 
L 379.437792 255.859456 
L 380.921718 256.08753 
L 382.405644 255.062207 
L 383.889569 255.262447 
L 385.373042 255.101179 
L 388.340894 255.341031 
L 389.82482 254.941885 
L 394.276145 255.198929 
L 395.760071 254.319359 
L 398.727922 255.008429 
L 400.211395 253.781941 
L 401.695321 254.510449 
L 403.179247 254.421077 
L 404.663173 254.208924 
L 406.147099 253.618021 
L 407.630572 253.340843 
L 409.114498 253.846659 
L 410.598424 252.932014 
L 412.082349 253.71706 
L 413.566275 253.14779 
L 415.049748 252.971304 
L 416.533674 253.014441 
L 418.0176 252.076336 
L 419.501526 252.101957 
L 420.985452 251.851148 
L 422.468925 251.714257 
L 423.952851 250.990318 
L 425.436776 251.203159 
L 426.920702 250.496259 
L 428.404628 250.053108 
L 429.888101 249.807283 
L 431.372027 249.104062 
L 432.855953 248.634075 
L 434.339879 247.548226 
L 435.823805 247.354364 
L 437.307278 246.799536 
L 440.275129 243.803606 
L 441.759055 242.638691 
L 443.242981 241.010875 
L 446.21038 234.652122 
L 447.694306 229.940603 
L 449.178232 222.587514 
L 450.662158 212.78902 
L 452.145631 198.170711 
L 453.629556 176.265277 
L 455.113482 142.907219 
L 458.081334 69.699718 
L 459.564807 50.302291 
L 461.048733 49.81326 
L 462.532659 62.881849 
L 465.500511 95.830393 
L 466.983984 110.393015 
L 468.467909 120.251576 
L 469.951835 125.494517 
L 471.435761 131.895518 
L 472.919687 143.792832 
L 474.40316 158.639581 
L 477.371012 183.932617 
L 478.854938 194.539576 
L 481.822337 208.104897 
L 483.306262 211.940775 
L 484.790188 214.492825 
L 486.274114 216.582228 
L 487.75804 216.485918 
L 489.241513 215.377133 
L 490.725439 214.024578 
L 492.209365 211.707719 
L 496.660689 205.570463 
L 498.144615 204.904863 
L 499.628541 204.808684 
L 501.112467 205.205814 
L 502.596393 205.341141 
L 504.079866 205.810212 
L 505.563792 206.674866 
L 507.047718 207.246717 
L 508.531644 207.230213 
L 511.499042 206.571766 
L 512.982968 206.498149 
L 514.466894 205.932334 
L 515.95082 206.829675 
L 517.434746 206.549763 
L 518.918219 205.957725 
L 520.402145 206.915169 
L 521.886071 206.860545 
L 523.369996 208.47774 
L 524.853922 208.741188 
L 526.337395 210.181777 
L 530.789173 211.326556 
L 532.273099 212.241524 
L 533.756572 211.401392 
L 535.240498 211.515298 
L 536.724424 211.353805 
L 538.208349 210.794642 
L 539.692275 209.584565 
L 541.175748 207.772651 
L 544.1436 205.830152 
L 545.627526 204.310394 
L 548.594925 204.62898 
L 550.078851 204.276327 
L 551.562776 204.626246 
L 553.046702 204.802724 
L 556.014101 204.790435 
L 557.498027 205.12437 
L 558.981953 204.397965 
L 560.465879 203.514225 
L 561.949805 203.634814 
L 563.433278 204.248852 
L 564.917204 202.414844 
L 566.401129 201.506573 
L 567.885055 200.383729 
L 569.368981 199.953128 
L 570.852454 198.836442 
L 572.33638 199.805588 
L 573.820306 199.784866 
L 575.304232 200.409097 
L 576.788158 201.318838 
L 578.271631 201.032763 
L 579.755556 201.411665 
L 582.723408 201.772116 
L 584.207334 201.341742 
L 585.690807 201.361819 
L 587.174733 200.794041 
L 588.658659 199.513805 
L 590.142585 198.734673 
L 591.626511 196.771618 
L 593.109984 195.614165 
L 594.593909 193.17723 
L 596.077835 191.461879 
L 597.561761 187.247628 
L 599.045687 183.696718 
L 600.52916 178.332755 
L 602.013086 168.746099 
L 606.464863 131.101986 
L 607.948337 122.65161 
L 609.432262 121.360673 
L 610.916188 123.450128 
L 612.400114 127.892319 
L 615.367513 134.889128 
L 616.851439 135.830648 
L 618.335365 139.252211 
L 619.819291 141.02921 
L 621.303216 144.412279 
L 622.786689 148.966531 
L 624.270615 152.974874 
L 627.238467 160.108608 
L 628.722393 162.893372 
L 630.205866 165.121441 
L 631.689792 166.9933 
L 633.173718 168.610252 
L 634.657644 168.389176 
L 636.141569 169.268766 
L 637.625042 169.029641 
L 639.108968 169.023037 
L 640.592894 168.328914 
L 643.560746 167.453449 
L 645.044219 166.28293 
L 646.528145 165.660524 
L 649.495996 165.537078 
L 650.979922 166.21021 
L 652.463395 165.879466 
L 653.947321 165.697938 
L 655.431247 166.157422 
L 656.915173 166.355669 
L 658.399099 166.100388 
L 659.882572 164.948753 
L 661.366498 164.672776 
L 662.850424 164.245234 
L 664.334349 164.331511 
L 665.818275 163.933791 
L 667.301748 163.001859 
L 668.785674 162.614827 
L 671.753526 162.058589 
L 673.237452 162.218698 
L 674.720925 161.513762 
L 677.688776 160.803046 
L 679.172702 160.46538 
L 682.140101 158.164003 
L 683.624027 158.606403 
L 686.591879 157.214541 
L 688.075805 157.937959 
L 689.559278 157.133817 
L 691.043204 156.753609 
L 692.527129 157.408165 
L 694.011055 156.969465 
L 695.494981 157.323747 
L 696.978454 156.384127 
L 698.46238 156.40977 
L 699.946306 157.01143 
L 701.430232 155.19985 
L 702.914158 155.448325 
L 705.881556 154.076909 
L 707.365482 153.788826 
L 708.849408 153.975804 
L 710.333334 152.910654 
L 711.816807 152.30275 
L 713.300733 152.525509 
L 714.784659 152.130712 
L 717.752511 151.606778 
L 719.235984 152.645428 
L 720.719909 152.31231 
L 721.72 152.238239 
L 721.72 152.238239 
" style="fill:none;stroke:#000000;stroke-linecap:square;stroke-width:1.5;"/>
   </g>
   <g id="line2d_34">
    <path clip-path="url(#pc4e832a679)" d="M 300.794702 258.307148 
L 302.278628 258.5692 
L 305.246027 258.265495 
L 306.729953 258.454546 
L 308.213879 258.431662 
L 309.697805 258.197888 
L 311.181278 258.265725 
L 312.665204 258.062941 
L 314.149129 258.616057 
L 315.633055 258.330364 
L 317.116981 258.348955 
L 318.600454 258.214752 
L 320.08438 258.372603 
L 321.568306 257.9385 
L 323.052232 257.845104 
L 324.536158 258.2993 
L 326.019631 257.755781 
L 327.503556 257.675063 
L 328.987482 258.07788 
L 330.471408 257.701066 
L 334.922733 257.825132 
L 336.406659 257.539784 
L 337.890585 257.854889 
L 339.374511 257.615115 
L 340.857984 257.644081 
L 343.825835 257.158156 
L 346.793687 257.350443 
L 349.761086 257.213901 
L 351.245012 256.974705 
L 352.728938 257.20767 
L 354.212863 256.675299 
L 355.696337 257.202845 
L 357.180262 256.938436 
L 358.664188 257.19738 
L 360.148114 256.643486 
L 364.599439 256.780525 
L 366.083365 256.567184 
L 367.567291 256.696065 
L 369.051216 256.446866 
L 372.018615 256.642717 
L 373.502541 256.313841 
L 374.986467 256.209571 
L 376.470393 256.472682 
L 377.953866 255.931729 
L 379.437792 256.195597 
L 380.921718 255.919792 
L 382.405644 255.916683 
L 383.889569 256.039003 
L 385.373042 255.761999 
L 386.856968 255.919495 
L 388.340894 255.54225 
L 391.308746 255.664345 
L 395.760071 254.972012 
L 397.243996 255.170957 
L 398.727922 254.73021 
L 400.211395 254.77784 
L 401.695321 254.693936 
L 403.179247 254.326088 
L 407.630572 254.187328 
L 409.114498 253.469792 
L 410.598424 254.035974 
L 413.566275 253.372816 
L 415.049748 253.317983 
L 416.533674 253.089435 
L 418.0176 252.473853 
L 419.501526 252.58342 
L 422.468925 251.853515 
L 423.952851 251.319443 
L 425.436776 251.127108 
L 426.920702 250.679189 
L 428.404628 250.02582 
L 429.888101 250.031438 
L 431.372027 249.158555 
L 432.855953 248.475403 
L 434.339879 247.420068 
L 435.823805 246.782717 
L 437.307278 245.800277 
L 438.791204 244.485118 
L 441.759055 240.944801 
L 443.242981 238.303639 
L 444.726454 235.358949 
L 446.21038 231.652857 
L 447.694306 226.160374 
L 449.178232 217.883166 
L 450.662158 207.258093 
L 452.145631 190.561739 
L 453.629556 165.806785 
L 456.597408 89.912852 
L 458.081334 60.415258 
L 459.564807 49.621091 
L 461.048733 56.299099 
L 462.532659 75.218699 
L 465.500511 116.577678 
L 466.983984 130.808464 
L 468.467909 139.219332 
L 469.951835 144.929796 
L 471.435761 151.807791 
L 472.919687 162.089224 
L 474.40316 174.428524 
L 475.887086 185.648915 
L 477.371012 194.932708 
L 478.854938 201.96164 
L 481.822337 212.509787 
L 483.306262 215.954213 
L 484.790188 218.383714 
L 486.274114 219.719819 
L 487.75804 220.004884 
L 489.241513 219.323866 
L 490.725439 218.090213 
L 493.693291 215.050104 
L 495.177216 213.934748 
L 496.660689 213.246958 
L 498.144615 212.754299 
L 505.563792 214.361241 
L 508.531644 214.289629 
L 510.015569 213.802137 
L 511.499042 213.984957 
L 512.982968 213.413441 
L 515.95082 213.349875 
L 517.434746 213.453624 
L 518.918219 213.756784 
L 520.402145 214.37861 
L 521.886071 214.863294 
L 523.369996 215.59059 
L 524.853922 216.771175 
L 526.337395 217.499901 
L 527.821321 218.027762 
L 529.305247 218.91491 
L 530.789173 218.846661 
L 532.273099 219.204827 
L 533.756572 219.280141 
L 535.240498 218.741728 
L 536.724424 218.384515 
L 538.208349 217.716502 
L 539.692275 216.322085 
L 541.175748 215.401711 
L 542.659674 213.805308 
L 544.1436 212.854071 
L 545.627526 212.42911 
L 551.562776 212.330009 
L 553.046702 211.901125 
L 556.014101 211.409328 
L 557.498027 211.08297 
L 558.981953 210.366095 
L 560.465879 210.477772 
L 561.949805 210.043764 
L 563.433278 209.477179 
L 564.917204 208.669821 
L 566.401129 207.64644 
L 570.852454 206.938283 
L 572.33638 206.859256 
L 573.820306 207.135704 
L 575.304232 207.734104 
L 576.788158 207.876307 
L 578.271631 208.16685 
L 579.755556 208.174763 
L 581.239482 207.990718 
L 582.723408 207.468399 
L 584.207334 207.173087 
L 585.690807 206.754253 
L 587.174733 205.703292 
L 588.658659 204.905139 
L 590.142585 203.56755 
L 591.626511 202.577416 
L 593.109984 201.010279 
L 596.077835 196.29853 
L 597.561761 192.92287 
L 599.045687 187.976324 
L 600.52916 180.418843 
L 602.013086 170.734336 
L 603.497012 156.955713 
L 604.980938 144.465146 
L 606.464863 133.819829 
L 607.948337 128.839539 
L 609.432262 130.850585 
L 613.88404 146.903423 
L 615.367513 149.281642 
L 616.851439 152.020379 
L 618.335365 153.94166 
L 619.819291 156.603042 
L 621.303216 159.547289 
L 622.786689 162.85499 
L 624.270615 166.606654 
L 625.754541 169.704235 
L 627.238467 172.438407 
L 628.722393 174.278781 
L 630.205866 175.386249 
L 631.689792 177.226885 
L 634.657644 178.674057 
L 637.625042 178.810947 
L 640.592894 177.380725 
L 642.07682 177.00094 
L 643.560746 176.397391 
L 645.044219 176.087496 
L 646.528145 176.367292 
L 648.012071 176.49423 
L 649.495996 175.94539 
L 650.979922 176.266765 
L 652.463395 175.316942 
L 653.947321 175.562928 
L 655.431247 175.558935 
L 656.915173 175.330222 
L 658.399099 174.879609 
L 659.882572 174.828611 
L 662.850424 173.846841 
L 664.334349 173.725334 
L 665.818275 173.468006 
L 667.301748 173.017128 
L 668.785674 173.104217 
L 670.2696 173.397128 
L 671.753526 172.149816 
L 673.237452 172.484794 
L 676.204851 172.040921 
L 677.688776 171.544375 
L 679.172702 171.224592 
L 680.656628 170.618685 
L 682.140101 170.173638 
L 683.624027 169.53481 
L 685.107953 169.500448 
L 686.591879 168.867303 
L 688.075805 169.193142 
L 689.559278 168.429462 
L 691.043204 168.840131 
L 692.527129 168.350989 
L 694.011055 168.256174 
L 695.494981 167.699834 
L 698.46238 167.430596 
L 701.430232 166.535301 
L 702.914158 166.285149 
L 704.397631 165.522567 
L 705.881556 164.930961 
L 707.365482 164.542946 
L 708.849408 164.466978 
L 710.333334 164.078157 
L 711.816807 164.280189 
L 713.300733 163.634986 
L 714.784659 163.871695 
L 716.268585 163.599033 
L 719.235984 163.408179 
L 720.719909 162.954911 
L 721.72 163.377095 
L 721.72 163.377095 
" style="fill:none;stroke:#8b4513;stroke-linecap:square;stroke-width:1.5;"/>
   </g>
   <g id="line2d_35">
    <path clip-path="url(#pc4e832a679)" d="M 300.794702 258.826023 
L 302.278628 258.307775 
L 303.762101 258.667742 
L 305.246027 258.376529 
L 308.213879 258.102563 
L 311.181278 258.559864 
L 312.665204 257.756399 
L 314.149129 258.3603 
L 315.633055 258.06297 
L 317.116981 257.984018 
L 318.600454 258.237577 
L 323.052232 257.987134 
L 324.536158 257.923959 
L 326.019631 258.016991 
L 330.471408 257.69336 
L 331.955334 257.941038 
L 334.922733 257.682721 
L 336.406659 257.772016 
L 337.890585 257.615287 
L 339.374511 257.226981 
L 340.857984 257.183845 
L 342.341909 257.652785 
L 345.309761 257.054271 
L 346.793687 257.416071 
L 348.27716 257.173967 
L 352.728938 257.038647 
L 354.212863 257.468457 
L 355.696337 256.857204 
L 357.180262 256.627217 
L 360.148114 256.97168 
L 367.567291 256.703675 
L 370.534689 256.644072 
L 372.018615 256.257563 
L 374.986467 256.602437 
L 376.470393 256.097019 
L 377.953866 256.590311 
L 379.437792 255.740568 
L 380.921718 256.207566 
L 382.405644 256.38452 
L 383.889569 255.897951 
L 385.373042 255.913293 
L 386.856968 256.113772 
L 388.340894 255.783225 
L 389.82482 255.746849 
L 391.308746 255.343239 
L 392.792219 256.02541 
L 395.760071 255.378808 
L 397.243996 255.55273 
L 398.727922 255.385893 
L 400.211395 254.961136 
L 406.147099 254.459708 
L 407.630572 254.747246 
L 409.114498 254.226262 
L 410.598424 254.156883 
L 412.082349 254.379354 
L 413.566275 253.978308 
L 415.049748 253.373724 
L 416.533674 253.833561 
L 418.0176 253.0538 
L 419.501526 252.930886 
L 420.985452 252.679316 
L 422.468925 252.556792 
L 423.952851 251.895587 
L 425.436776 251.956181 
L 429.888101 250.55944 
L 434.339879 248.681808 
L 435.823805 247.97082 
L 438.791204 245.912885 
L 440.275129 244.075298 
L 441.759055 242.872905 
L 443.242981 240.602189 
L 444.726454 237.647484 
L 446.21038 233.467646 
L 447.694306 228.705937 
L 449.178232 221.18296 
L 450.662158 210.132304 
L 452.145631 193.462988 
L 453.629556 169.089643 
L 458.081334 62.690415 
L 459.564807 49.621091 
L 461.048733 58.912474 
L 464.016585 109.67103 
L 465.500511 132.69851 
L 466.983984 149.681212 
L 468.467909 159.159148 
L 469.951835 165.443754 
L 471.435761 170.178762 
L 472.919687 176.496764 
L 475.887086 189.818268 
L 477.371012 193.011041 
L 478.854938 195.215806 
L 480.338863 197.187678 
L 481.822337 200.594723 
L 483.306262 205.291797 
L 484.790188 209.499316 
L 486.274114 211.37017 
L 487.75804 212.141151 
L 489.241513 211.13393 
L 492.209365 208.52599 
L 493.693291 206.819026 
L 495.177216 205.441605 
L 496.660689 203.815101 
L 498.144615 204.382844 
L 499.628541 203.981408 
L 501.112467 204.465826 
L 504.079866 204.112132 
L 505.563792 204.24643 
L 507.047718 204.257231 
L 508.531644 203.655973 
L 510.015569 203.242488 
L 511.499042 203.314084 
L 512.982968 202.923608 
L 514.466894 202.864542 
L 515.95082 202.923879 
L 517.434746 203.481347 
L 518.918219 204.51016 
L 520.402145 205.042527 
L 521.886071 206.463454 
L 523.369996 207.167712 
L 524.853922 208.614659 
L 527.821321 210.683467 
L 529.305247 211.205015 
L 530.789173 211.328266 
L 532.273099 211.18958 
L 533.756572 211.579761 
L 535.240498 211.357329 
L 536.724424 211.270746 
L 538.208349 210.429416 
L 541.175748 208.424376 
L 542.659674 207.348815 
L 544.1436 206.099679 
L 545.627526 205.547847 
L 547.111452 205.328496 
L 548.594925 204.471313 
L 550.078851 204.489913 
L 551.562776 204.337107 
L 553.046702 203.756187 
L 554.530628 203.85131 
L 558.981953 202.21197 
L 560.465879 201.576405 
L 561.949805 201.542471 
L 564.917204 199.805839 
L 566.401129 198.639936 
L 567.885055 198.19489 
L 569.368981 197.875124 
L 572.33638 198.300893 
L 573.820306 198.778798 
L 575.304232 199.10768 
L 576.788158 199.62533 
L 578.271631 199.693963 
L 579.755556 199.531264 
L 581.239482 199.642683 
L 584.207334 198.338016 
L 585.690807 198.466219 
L 588.658659 196.165873 
L 590.142585 195.358997 
L 593.109984 192.132599 
L 596.077835 187.345872 
L 597.561761 184.000253 
L 599.045687 178.506025 
L 600.52916 170.922124 
L 602.013086 160.787235 
L 604.980938 132.346519 
L 606.464863 120.435126 
L 607.948337 115.891015 
L 609.432262 119.390871 
L 610.916188 126.37864 
L 612.400114 134.607816 
L 613.88404 140.463441 
L 615.367513 145.073686 
L 616.851439 147.918273 
L 618.335365 149.270482 
L 622.786689 155.466984 
L 624.270615 156.745614 
L 628.722393 161.099153 
L 630.205866 161.706696 
L 633.173718 163.947281 
L 634.657644 164.773659 
L 636.141569 164.885826 
L 637.625042 164.420523 
L 639.108968 164.483887 
L 640.592894 163.787657 
L 642.07682 162.693083 
L 643.560746 162.646616 
L 648.012071 161.1251 
L 649.495996 161.422816 
L 653.947321 161.032917 
L 656.915173 160.077928 
L 658.399099 159.766247 
L 659.882572 159.002642 
L 661.366498 158.547093 
L 662.850424 158.813702 
L 664.334349 158.767246 
L 667.301748 158.263097 
L 668.785674 158.217529 
L 670.2696 157.99064 
L 671.753526 158.101362 
L 673.237452 158.076691 
L 674.720925 158.504698 
L 676.204851 157.892845 
L 679.172702 157.492824 
L 682.140101 156.437692 
L 683.624027 155.949296 
L 685.107953 155.946262 
L 688.075805 154.936231 
L 689.559278 154.831634 
L 691.043204 154.535536 
L 692.527129 153.742917 
L 694.011055 153.917664 
L 695.494981 153.257853 
L 696.978454 153.163598 
L 698.46238 152.789311 
L 699.946306 152.620427 
L 701.430232 152.092353 
L 704.397631 150.442443 
L 705.881556 149.975643 
L 707.365482 149.202302 
L 708.849408 149.052219 
L 710.333334 148.632672 
L 711.816807 148.852561 
L 714.784659 147.910705 
L 716.268585 148.32311 
L 717.752511 148.234933 
L 719.235984 148.33458 
L 720.719909 147.833316 
L 721.72 147.901856 
L 721.72 147.901856 
" style="fill:none;stroke:#b8860b;stroke-linecap:square;stroke-width:1.5;"/>
   </g>
   <g id="line2d_36">
    <path clip-path="url(#pc4e832a679)" d="M 300.794702 258.618684 
L 302.278628 258.764992 
L 303.762101 258.57766 
L 305.246027 257.95383 
L 308.213879 258.321112 
L 309.697805 257.958572 
L 311.181278 258.007973 
L 312.665204 258.254235 
L 314.149129 257.774431 
L 315.633055 258.25426 
L 320.08438 257.229092 
L 321.568306 258.0066 
L 323.052232 257.708519 
L 324.536158 258.17512 
L 326.019631 258.02197 
L 327.503556 256.979488 
L 328.987482 257.686084 
L 330.471408 257.781027 
L 331.955334 257.038736 
L 333.438807 257.488547 
L 334.922733 257.189837 
L 336.406659 257.339764 
L 337.890585 257.144465 
L 339.374511 257.222235 
L 340.857984 256.940471 
L 342.341909 257.187855 
L 343.825835 257.602302 
L 345.309761 257.138942 
L 349.761086 257.147091 
L 351.245012 257.05455 
L 352.728938 257.236542 
L 354.212863 257.264251 
L 357.180262 256.753275 
L 360.148114 256.901239 
L 361.63204 257.328075 
L 363.115513 256.061205 
L 364.599439 256.907857 
L 366.083365 257.076529 
L 367.567291 256.673449 
L 369.051216 256.133602 
L 370.534689 256.002997 
L 372.018615 256.336071 
L 373.502541 256.354721 
L 374.986467 256.616881 
L 376.470393 256.011252 
L 380.921718 255.816581 
L 382.405644 255.53655 
L 383.889569 255.853589 
L 385.373042 255.682977 
L 386.856968 256.135304 
L 388.340894 255.269357 
L 389.82482 255.224914 
L 391.308746 255.531527 
L 392.792219 255.322103 
L 394.276145 255.351912 
L 395.760071 254.67299 
L 397.243996 254.573626 
L 398.727922 254.989621 
L 400.211395 255.183228 
L 401.695321 254.581369 
L 403.179247 254.846 
L 404.663173 254.880663 
L 406.147099 254.1481 
L 407.630572 253.882375 
L 409.114498 253.905046 
L 410.598424 254.055696 
L 412.082349 253.469109 
L 413.566275 254.040728 
L 416.533674 253.253092 
L 420.985452 252.480734 
L 422.468925 252.278662 
L 423.952851 252.393892 
L 425.436776 251.415774 
L 426.920702 251.144105 
L 428.404628 250.204469 
L 429.888101 250.069186 
L 431.372027 249.737092 
L 434.339879 247.942894 
L 435.823805 247.27864 
L 437.307278 246.062131 
L 440.275129 242.875389 
L 441.759055 240.86795 
L 443.242981 238.640983 
L 444.726454 234.862608 
L 446.21038 229.947474 
L 447.694306 222.489284 
L 449.178232 211.944722 
L 450.662158 194.058364 
L 452.145631 168.41433 
L 453.629556 130.781433 
L 455.113482 88.803863 
L 456.597408 57.85925 
L 458.081334 49.621091 
L 459.564807 69.435074 
L 464.016585 170.714786 
L 465.500511 189.467143 
L 466.983984 201.957833 
L 468.467909 207.794223 
L 469.951835 208.6867 
L 471.435761 205.965356 
L 474.40316 191.521548 
L 475.887086 186.967725 
L 477.371012 184.353695 
L 478.854938 184.191781 
L 480.338863 187.46371 
L 483.306262 200.49923 
L 484.790188 205.555407 
L 486.274114 207.66782 
L 487.75804 208.775692 
L 489.241513 208.464555 
L 490.725439 208.378628 
L 492.209365 207.958295 
L 493.693291 207.410716 
L 495.177216 206.656959 
L 496.660689 206.66413 
L 498.144615 205.645638 
L 499.628541 204.946795 
L 501.112467 205.215791 
L 502.596393 204.130872 
L 504.079866 203.703661 
L 505.563792 202.830873 
L 507.047718 203.391226 
L 508.531644 202.781323 
L 510.015569 203.004089 
L 511.499042 201.316844 
L 512.982968 202.275523 
L 514.466894 202.116146 
L 515.95082 202.710692 
L 517.434746 203.740743 
L 518.918219 205.059232 
L 520.402145 205.626184 
L 521.886071 207.086605 
L 523.369996 207.450724 
L 524.853922 208.614189 
L 526.337395 209.401317 
L 527.821321 210.470092 
L 529.305247 210.190101 
L 530.789173 210.520608 
L 533.756572 210.55389 
L 535.240498 210.91187 
L 536.724424 210.066802 
L 538.208349 209.585785 
L 539.692275 209.22267 
L 541.175748 208.470562 
L 542.659674 208.065299 
L 544.1436 207.195228 
L 545.627526 207.159783 
L 547.111452 206.146197 
L 548.594925 206.188399 
L 550.078851 205.585847 
L 551.562776 204.345252 
L 553.046702 204.10484 
L 554.530628 203.346585 
L 556.014101 203.35743 
L 557.498027 202.161814 
L 558.981953 201.625042 
L 560.465879 200.945619 
L 561.949805 199.840167 
L 563.433278 199.248535 
L 566.401129 197.252559 
L 567.885055 196.495355 
L 569.368981 196.314414 
L 570.852454 195.797095 
L 572.33638 196.227755 
L 573.820306 197.11405 
L 576.788158 197.238098 
L 578.271631 197.75596 
L 579.755556 196.859157 
L 581.239482 196.990271 
L 582.723408 196.232732 
L 584.207334 195.801903 
L 585.690807 194.439056 
L 587.174733 194.372459 
L 588.658659 192.788952 
L 590.142585 191.574727 
L 591.626511 190.656462 
L 593.109984 188.169823 
L 594.593909 186.2368 
L 596.077835 182.339329 
L 597.561761 177.650465 
L 599.045687 170.319761 
L 600.52916 159.06796 
L 602.013086 145.806099 
L 603.497012 130.621848 
L 604.980938 120.239786 
L 606.464863 116.654368 
L 607.948337 122.377504 
L 609.432262 134.061772 
L 610.916188 144.750641 
L 612.400114 154.077198 
L 613.88404 161.002578 
L 615.367513 164.409802 
L 616.851439 166.302009 
L 618.335365 166.119194 
L 619.819291 164.873987 
L 621.303216 162.945926 
L 625.754541 158.699162 
L 627.238467 159.342633 
L 628.722393 160.405196 
L 630.205866 161.940913 
L 631.689792 162.599969 
L 633.173718 163.973348 
L 634.657644 165.137518 
L 636.141569 164.550657 
L 637.625042 164.460746 
L 639.108968 164.162955 
L 640.592894 163.568101 
L 642.07682 163.415721 
L 643.560746 163.067265 
L 645.044219 162.311561 
L 646.528145 162.014332 
L 648.012071 161.937331 
L 649.495996 161.710873 
L 650.979922 161.073695 
L 652.463395 160.800794 
L 653.947321 160.749076 
L 655.431247 160.067559 
L 656.915173 159.955904 
L 658.399099 159.110216 
L 661.366498 158.883897 
L 662.850424 158.472629 
L 664.334349 158.798296 
L 665.818275 158.584032 
L 668.785674 158.861547 
L 671.753526 158.551638 
L 673.237452 158.724758 
L 674.720925 159.130862 
L 676.204851 159.064021 
L 677.688776 159.870241 
L 679.172702 159.262026 
L 682.140101 159.485225 
L 683.624027 158.96414 
L 685.107953 159.223717 
L 686.591879 158.694117 
L 688.075805 158.578169 
L 689.559278 158.039969 
L 691.043204 157.083178 
L 692.527129 156.914265 
L 694.011055 157.155107 
L 696.978454 156.201323 
L 698.46238 155.986643 
L 699.946306 154.915227 
L 701.430232 155.249203 
L 702.914158 153.659491 
L 704.397631 153.128156 
L 705.881556 152.741134 
L 707.365482 151.722376 
L 708.849408 152.09396 
L 710.333334 151.453213 
L 711.816807 151.025357 
L 713.300733 150.353661 
L 714.784659 150.248374 
L 716.268585 149.93406 
L 717.752511 150.488716 
L 720.719909 149.853753 
L 721.72 149.79829 
L 721.72 149.79829 
" style="fill:none;stroke:#6b8e23;stroke-linecap:square;stroke-width:1.5;"/>
   </g>
   <g id="patch_10">
    <path d="M 418.0176 258.552 
L 418.0176 28.728 
" style="fill:none;stroke:#000000;stroke-linecap:square;stroke-linejoin:miter;stroke-width:0.8;"/>
   </g>
   <g id="patch_11">
    <path d="M 670.2696 258.552 
L 670.2696 28.728 
" style="fill:none;stroke:#000000;stroke-linecap:square;stroke-linejoin:miter;stroke-width:0.8;"/>
   </g>
   <g id="patch_12">
    <path d="M 418.0176 258.552 
L 670.2696 258.552 
" style="fill:none;stroke:#000000;stroke-linecap:square;stroke-linejoin:miter;stroke-width:0.8;"/>
   </g>
   <g id="patch_13">
    <path d="M 418.0176 28.728 
L 670.2696 28.728 
" style="fill:none;stroke:#000000;stroke-linecap:square;stroke-linejoin:miter;stroke-width:0.8;"/>
   </g>
   <g id="text_31">
    <!-- $\mathrm{L}_3$ -->
    <g transform="translate(455.113482 45.442473)">
     <text>
      <tspan style="font-family:DejaVu Sans;font-size:8.33px;font-style:book;font-weight:book;" x="0" y="-0.921875">L</tspan>
      <tspan style="font-family:DejaVu Sans;font-size:5.831px;font-style:book;font-weight:book;" x="4.719402" y="0.4421875000000002">3</tspan>
     </text>
    </g>
   </g>
   <g id="text_32">
    <!-- $\mathrm{L}_2$ -->
    <g transform="translate(603.497012 101.853818)">
     <text>
      <tspan style="font-family:DejaVu Sans;font-size:8.33px;font-style:book;font-weight:book;" x="0" y="-0.921875">L</tspan>
      <tspan style="font-family:DejaVu Sans;font-size:5.831px;font-style:book;font-weight:book;" x="4.719402" y="0.4421875000000002">2</tspan>
     </text>
    </g>
   </g>
  </g>
 </g>
 <defs>
  <clipPath id="pf74335c271">
   <rect height="508.4856" width="623.4228" x="72.072" y="11.4912"/>
  </clipPath>
  <clipPath id="pc4e832a679">
   <rect height="229.824" width="252.252" x="418.0176" y="28.728"/>
  </clipPath>
 </defs>
</svg>
