<?xml version="1.0" encoding="utf-8" standalone="no"?>
<!DOCTYPE svg PUBLIC "-//W3C//DTD SVG 1.1//EN"
  "http://www.w3.org/Graphics/SVG/1.1/DTD/svg11.dtd">
<!-- Created with matplotlib (http://matplotlib.org/) -->
<svg height="430pt" version="1.1" viewBox="0 0 720 430" width="720pt" xmlns="http://www.w3.org/2000/svg" xmlns:xlink="http://www.w3.org/1999/xlink">
 <defs>
  <style type="text/css">
*{stroke-linecap:butt;stroke-linejoin:round;}
  </style>
 </defs>
 <g id="figure_1">
  <g id="patch_1">
   <path d="M 0 430.56 
L 720 430.56 
L 720 0 
L 0 0 
z
" style="fill:#ffffff;"/>
  </g>
  <g id="axes_1">
   <g id="patch_2">
    <path d="M 17.145 402.772933 
L 702.81 402.772933 
L 702.81 13.2756 
L 17.145 13.2756 
z
" style="fill:#ffffff;"/>
   </g>
   <g id="matplotlib.axis_1">
    <g id="xtick_1">
     <g id="line2d_1">
      <defs>
       <path d="M 0 0 
L 0 3.5 
" id="m6762c045e3" style="stroke:#000000;stroke-width:0.8;"/>
      </defs>
      <g>
       <use style="stroke:#000000;stroke-width:0.8;" x="17.145" xlink:href="#m6762c045e3" y="402.772933"/>
      </g>
     </g>
     <g id="text_1">
      <!-- 12 -->
      <defs>
       <path d="M 12.40625 8.296875 
L 28.515625 8.296875 
L 28.515625 63.921875 
L 10.984375 60.40625 
L 10.984375 69.390625 
L 28.421875 72.90625 
L 38.28125 72.90625 
L 38.28125 8.296875 
L 54.390625 8.296875 
L 54.390625 0 
L 12.40625 0 
z
" id="DejaVuSans-31"/>
       <path d="M 19.1875 8.296875 
L 53.609375 8.296875 
L 53.609375 0 
L 7.328125 0 
L 7.328125 8.296875 
Q 12.9375 14.109375 22.625 23.890625 
Q 32.328125 33.6875 34.8125 36.53125 
Q 39.546875 41.84375 41.421875 45.53125 
Q 43.3125 49.21875 43.3125 52.78125 
Q 43.3125 58.59375 39.234375 62.25 
Q 35.15625 65.921875 28.609375 65.921875 
Q 23.96875 65.921875 18.8125 64.3125 
Q 13.671875 62.703125 7.8125 59.421875 
L 7.8125 69.390625 
Q 13.765625 71.78125 18.9375 73 
Q 24.125 74.21875 28.421875 74.21875 
Q 39.75 74.21875 46.484375 68.546875 
Q 53.21875 62.890625 53.21875 53.421875 
Q 53.21875 48.921875 51.53125 44.890625 
Q 49.859375 40.875 45.40625 35.40625 
Q 44.1875 33.984375 37.640625 27.21875 
Q 31.109375 20.453125 19.1875 8.296875 
z
" id="DejaVuSans-32"/>
      </defs>
      <g transform="translate(10.7825 417.371371)scale(0.1 -0.1)">
       <use xlink:href="#DejaVuSans-31"/>
       <use x="63.623047" xlink:href="#DejaVuSans-32"/>
      </g>
     </g>
    </g>
    <g id="xtick_2">
     <g id="line2d_2">
      <g>
       <use style="stroke:#000000;stroke-width:0.8;" x="131.4225" xlink:href="#m6762c045e3" y="402.772933"/>
      </g>
     </g>
     <g id="text_2">
      <!-- 13 -->
      <defs>
       <path d="M 40.578125 39.3125 
Q 47.65625 37.796875 51.625 33 
Q 55.609375 28.21875 55.609375 21.1875 
Q 55.609375 10.40625 48.1875 4.484375 
Q 40.765625 -1.421875 27.09375 -1.421875 
Q 22.515625 -1.421875 17.65625 -0.515625 
Q 12.796875 0.390625 7.625 2.203125 
L 7.625 11.71875 
Q 11.71875 9.328125 16.59375 8.109375 
Q 21.484375 6.890625 26.8125 6.890625 
Q 36.078125 6.890625 40.9375 10.546875 
Q 45.796875 14.203125 45.796875 21.1875 
Q 45.796875 27.640625 41.28125 31.265625 
Q 36.765625 34.90625 28.71875 34.90625 
L 20.21875 34.90625 
L 20.21875 43.015625 
L 29.109375 43.015625 
Q 36.375 43.015625 40.234375 45.921875 
Q 44.09375 48.828125 44.09375 54.296875 
Q 44.09375 59.90625 40.109375 62.90625 
Q 36.140625 65.921875 28.71875 65.921875 
Q 24.65625 65.921875 20.015625 65.03125 
Q 15.375 64.15625 9.8125 62.3125 
L 9.8125 71.09375 
Q 15.4375 72.65625 20.34375 73.4375 
Q 25.25 74.21875 29.59375 74.21875 
Q 40.828125 74.21875 47.359375 69.109375 
Q 53.90625 64.015625 53.90625 55.328125 
Q 53.90625 49.265625 50.4375 45.09375 
Q 46.96875 40.921875 40.578125 39.3125 
z
" id="DejaVuSans-33"/>
      </defs>
      <g transform="translate(125.06 417.371371)scale(0.1 -0.1)">
       <use xlink:href="#DejaVuSans-31"/>
       <use x="63.623047" xlink:href="#DejaVuSans-33"/>
      </g>
     </g>
    </g>
    <g id="xtick_3">
     <g id="line2d_3">
      <g>
       <use style="stroke:#000000;stroke-width:0.8;" x="245.7" xlink:href="#m6762c045e3" y="402.772933"/>
      </g>
     </g>
     <g id="text_3">
      <!-- 14 -->
      <defs>
       <path d="M 37.796875 64.3125 
L 12.890625 25.390625 
L 37.796875 25.390625 
z
M 35.203125 72.90625 
L 47.609375 72.90625 
L 47.609375 25.390625 
L 58.015625 25.390625 
L 58.015625 17.1875 
L 47.609375 17.1875 
L 47.609375 0 
L 37.796875 0 
L 37.796875 17.1875 
L 4.890625 17.1875 
L 4.890625 26.703125 
z
" id="DejaVuSans-34"/>
      </defs>
      <g transform="translate(239.3375 417.371371)scale(0.1 -0.1)">
       <use xlink:href="#DejaVuSans-31"/>
       <use x="63.623047" xlink:href="#DejaVuSans-34"/>
      </g>
     </g>
    </g>
    <g id="xtick_4">
     <g id="line2d_4">
      <g>
       <use style="stroke:#000000;stroke-width:0.8;" x="359.9775" xlink:href="#m6762c045e3" y="402.772933"/>
      </g>
     </g>
     <g id="text_4">
      <!-- 15 -->
      <defs>
       <path d="M 10.796875 72.90625 
L 49.515625 72.90625 
L 49.515625 64.59375 
L 19.828125 64.59375 
L 19.828125 46.734375 
Q 21.96875 47.46875 24.109375 47.828125 
Q 26.265625 48.1875 28.421875 48.1875 
Q 40.625 48.1875 47.75 41.5 
Q 54.890625 34.8125 54.890625 23.390625 
Q 54.890625 11.625 47.5625 5.09375 
Q 40.234375 -1.421875 26.90625 -1.421875 
Q 22.3125 -1.421875 17.546875 -0.640625 
Q 12.796875 0.140625 7.71875 1.703125 
L 7.71875 11.625 
Q 12.109375 9.234375 16.796875 8.0625 
Q 21.484375 6.890625 26.703125 6.890625 
Q 35.15625 6.890625 40.078125 11.328125 
Q 45.015625 15.765625 45.015625 23.390625 
Q 45.015625 31 40.078125 35.4375 
Q 35.15625 39.890625 26.703125 39.890625 
Q 22.75 39.890625 18.8125 39.015625 
Q 14.890625 38.140625 10.796875 36.28125 
z
" id="DejaVuSans-35"/>
      </defs>
      <g transform="translate(353.615 417.371371)scale(0.1 -0.1)">
       <use xlink:href="#DejaVuSans-31"/>
       <use x="63.623047" xlink:href="#DejaVuSans-35"/>
      </g>
     </g>
    </g>
    <g id="xtick_5">
     <g id="line2d_5">
      <g>
       <use style="stroke:#000000;stroke-width:0.8;" x="474.255" xlink:href="#m6762c045e3" y="402.772933"/>
      </g>
     </g>
     <g id="text_5">
      <!-- 16 -->
      <defs>
       <path d="M 33.015625 40.375 
Q 26.375 40.375 22.484375 35.828125 
Q 18.609375 31.296875 18.609375 23.390625 
Q 18.609375 15.53125 22.484375 10.953125 
Q 26.375 6.390625 33.015625 6.390625 
Q 39.65625 6.390625 43.53125 10.953125 
Q 47.40625 15.53125 47.40625 23.390625 
Q 47.40625 31.296875 43.53125 35.828125 
Q 39.65625 40.375 33.015625 40.375 
z
M 52.59375 71.296875 
L 52.59375 62.3125 
Q 48.875 64.0625 45.09375 64.984375 
Q 41.3125 65.921875 37.59375 65.921875 
Q 27.828125 65.921875 22.671875 59.328125 
Q 17.53125 52.734375 16.796875 39.40625 
Q 19.671875 43.65625 24.015625 45.921875 
Q 28.375 48.1875 33.59375 48.1875 
Q 44.578125 48.1875 50.953125 41.515625 
Q 57.328125 34.859375 57.328125 23.390625 
Q 57.328125 12.15625 50.6875 5.359375 
Q 44.046875 -1.421875 33.015625 -1.421875 
Q 20.359375 -1.421875 13.671875 8.265625 
Q 6.984375 17.96875 6.984375 36.375 
Q 6.984375 53.65625 15.1875 63.9375 
Q 23.390625 74.21875 37.203125 74.21875 
Q 40.921875 74.21875 44.703125 73.484375 
Q 48.484375 72.75 52.59375 71.296875 
z
" id="DejaVuSans-36"/>
      </defs>
      <g transform="translate(467.8925 417.371371)scale(0.1 -0.1)">
       <use xlink:href="#DejaVuSans-31"/>
       <use x="63.623047" xlink:href="#DejaVuSans-36"/>
      </g>
     </g>
    </g>
    <g id="xtick_6">
     <g id="line2d_6">
      <g>
       <use style="stroke:#000000;stroke-width:0.8;" x="588.5325" xlink:href="#m6762c045e3" y="402.772933"/>
      </g>
     </g>
     <g id="text_6">
      <!-- 17 -->
      <defs>
       <path d="M 8.203125 72.90625 
L 55.078125 72.90625 
L 55.078125 68.703125 
L 28.609375 0 
L 18.3125 0 
L 43.21875 64.59375 
L 8.203125 64.59375 
z
" id="DejaVuSans-37"/>
      </defs>
      <g transform="translate(582.17 417.371371)scale(0.1 -0.1)">
       <use xlink:href="#DejaVuSans-31"/>
       <use x="63.623047" xlink:href="#DejaVuSans-37"/>
      </g>
     </g>
    </g>
    <g id="xtick_7">
     <g id="line2d_7">
      <g>
       <use style="stroke:#000000;stroke-width:0.8;" x="702.81" xlink:href="#m6762c045e3" y="402.772933"/>
      </g>
     </g>
     <g id="text_7">
      <!-- 18 -->
      <defs>
       <path d="M 31.78125 34.625 
Q 24.75 34.625 20.71875 30.859375 
Q 16.703125 27.09375 16.703125 20.515625 
Q 16.703125 13.921875 20.71875 10.15625 
Q 24.75 6.390625 31.78125 6.390625 
Q 38.8125 6.390625 42.859375 10.171875 
Q 46.921875 13.96875 46.921875 20.515625 
Q 46.921875 27.09375 42.890625 30.859375 
Q 38.875 34.625 31.78125 34.625 
z
M 21.921875 38.8125 
Q 15.578125 40.375 12.03125 44.71875 
Q 8.5 49.078125 8.5 55.328125 
Q 8.5 64.0625 14.71875 69.140625 
Q 20.953125 74.21875 31.78125 74.21875 
Q 42.671875 74.21875 48.875 69.140625 
Q 55.078125 64.0625 55.078125 55.328125 
Q 55.078125 49.078125 51.53125 44.71875 
Q 48 40.375 41.703125 38.8125 
Q 48.828125 37.15625 52.796875 32.3125 
Q 56.78125 27.484375 56.78125 20.515625 
Q 56.78125 9.90625 50.3125 4.234375 
Q 43.84375 -1.421875 31.78125 -1.421875 
Q 19.734375 -1.421875 13.25 4.234375 
Q 6.78125 9.90625 6.78125 20.515625 
Q 6.78125 27.484375 10.78125 32.3125 
Q 14.796875 37.15625 21.921875 38.8125 
z
M 18.3125 54.390625 
Q 18.3125 48.734375 21.84375 45.5625 
Q 25.390625 42.390625 31.78125 42.390625 
Q 38.140625 42.390625 41.71875 45.5625 
Q 45.3125 48.734375 45.3125 54.390625 
Q 45.3125 60.0625 41.71875 63.234375 
Q 38.140625 66.40625 31.78125 66.40625 
Q 25.390625 66.40625 21.84375 63.234375 
Q 18.3125 60.0625 18.3125 54.390625 
z
" id="DejaVuSans-38"/>
      </defs>
      <g transform="translate(696.4475 417.371371)scale(0.1 -0.1)">
       <use xlink:href="#DejaVuSans-31"/>
       <use x="63.623047" xlink:href="#DejaVuSans-38"/>
      </g>
     </g>
    </g>
   </g>
   <g id="matplotlib.axis_2">
    <g id="ytick_1">
     <g id="line2d_8">
      <defs>
       <path d="M 0 0 
L -2 0 
" id="m1ee2663160" style="stroke:#000000;stroke-width:0.6;"/>
      </defs>
      <g>
       <use style="stroke:#000000;stroke-width:0.6;" x="17.145" xlink:href="#m1ee2663160" y="402.772933"/>
      </g>
     </g>
    </g>
    <g id="ytick_2">
     <g id="line2d_9">
      <g>
       <use style="stroke:#000000;stroke-width:0.6;" x="17.145" xlink:href="#m1ee2663160" y="398.775374"/>
      </g>
     </g>
    </g>
    <g id="ytick_3">
     <g id="line2d_10">
      <g>
       <use style="stroke:#000000;stroke-width:0.6;" x="17.145" xlink:href="#m1ee2663160" y="395.31253"/>
      </g>
     </g>
    </g>
    <g id="ytick_4">
     <g id="line2d_11">
      <g>
       <use style="stroke:#000000;stroke-width:0.6;" x="17.145" xlink:href="#m1ee2663160" y="392.258086"/>
      </g>
     </g>
    </g>
    <g id="ytick_5">
     <g id="line2d_12">
      <g>
       <use style="stroke:#000000;stroke-width:0.6;" x="17.145" xlink:href="#m1ee2663160" y="371.550541"/>
      </g>
     </g>
    </g>
    <g id="ytick_6">
     <g id="line2d_13">
      <g>
       <use style="stroke:#000000;stroke-width:0.6;" x="17.145" xlink:href="#m1ee2663160" y="361.035694"/>
      </g>
     </g>
    </g>
    <g id="ytick_7">
     <g id="line2d_14">
      <g>
       <use style="stroke:#000000;stroke-width:0.6;" x="17.145" xlink:href="#m1ee2663160" y="353.575291"/>
      </g>
     </g>
    </g>
    <g id="ytick_8">
     <g id="line2d_15">
      <g>
       <use style="stroke:#000000;stroke-width:0.6;" x="17.145" xlink:href="#m1ee2663160" y="347.788552"/>
      </g>
     </g>
    </g>
    <g id="ytick_9">
     <g id="line2d_16">
      <g>
       <use style="stroke:#000000;stroke-width:0.6;" x="17.145" xlink:href="#m1ee2663160" y="343.060443"/>
      </g>
     </g>
    </g>
    <g id="ytick_10">
     <g id="line2d_17">
      <g>
       <use style="stroke:#000000;stroke-width:0.6;" x="17.145" xlink:href="#m1ee2663160" y="339.062884"/>
      </g>
     </g>
    </g>
    <g id="ytick_11">
     <g id="line2d_18">
      <g>
       <use style="stroke:#000000;stroke-width:0.6;" x="17.145" xlink:href="#m1ee2663160" y="335.60004"/>
      </g>
     </g>
    </g>
    <g id="ytick_12">
     <g id="line2d_19">
      <g>
       <use style="stroke:#000000;stroke-width:0.6;" x="17.145" xlink:href="#m1ee2663160" y="332.545596"/>
      </g>
     </g>
    </g>
    <g id="ytick_13">
     <g id="line2d_20">
      <g>
       <use style="stroke:#000000;stroke-width:0.6;" x="17.145" xlink:href="#m1ee2663160" y="311.838051"/>
      </g>
     </g>
    </g>
    <g id="ytick_14">
     <g id="line2d_21">
      <g>
       <use style="stroke:#000000;stroke-width:0.6;" x="17.145" xlink:href="#m1ee2663160" y="301.323204"/>
      </g>
     </g>
    </g>
    <g id="ytick_15">
     <g id="line2d_22">
      <g>
       <use style="stroke:#000000;stroke-width:0.6;" x="17.145" xlink:href="#m1ee2663160" y="293.8628"/>
      </g>
     </g>
    </g>
    <g id="ytick_16">
     <g id="line2d_23">
      <g>
       <use style="stroke:#000000;stroke-width:0.6;" x="17.145" xlink:href="#m1ee2663160" y="288.076062"/>
      </g>
     </g>
    </g>
    <g id="ytick_17">
     <g id="line2d_24">
      <g>
       <use style="stroke:#000000;stroke-width:0.6;" x="17.145" xlink:href="#m1ee2663160" y="283.347953"/>
      </g>
     </g>
    </g>
    <g id="ytick_18">
     <g id="line2d_25">
      <g>
       <use style="stroke:#000000;stroke-width:0.6;" x="17.145" xlink:href="#m1ee2663160" y="279.350393"/>
      </g>
     </g>
    </g>
    <g id="ytick_19">
     <g id="line2d_26">
      <g>
       <use style="stroke:#000000;stroke-width:0.6;" x="17.145" xlink:href="#m1ee2663160" y="275.88755"/>
      </g>
     </g>
    </g>
    <g id="ytick_20">
     <g id="line2d_27">
      <g>
       <use style="stroke:#000000;stroke-width:0.6;" x="17.145" xlink:href="#m1ee2663160" y="272.833105"/>
      </g>
     </g>
    </g>
    <g id="ytick_21">
     <g id="line2d_28">
      <g>
       <use style="stroke:#000000;stroke-width:0.6;" x="17.145" xlink:href="#m1ee2663160" y="252.125561"/>
      </g>
     </g>
    </g>
    <g id="ytick_22">
     <g id="line2d_29">
      <g>
       <use style="stroke:#000000;stroke-width:0.6;" x="17.145" xlink:href="#m1ee2663160" y="241.610713"/>
      </g>
     </g>
    </g>
    <g id="ytick_23">
     <g id="line2d_30">
      <g>
       <use style="stroke:#000000;stroke-width:0.6;" x="17.145" xlink:href="#m1ee2663160" y="234.15031"/>
      </g>
     </g>
    </g>
    <g id="ytick_24">
     <g id="line2d_31">
      <g>
       <use style="stroke:#000000;stroke-width:0.6;" x="17.145" xlink:href="#m1ee2663160" y="228.363572"/>
      </g>
     </g>
    </g>
    <g id="ytick_25">
     <g id="line2d_32">
      <g>
       <use style="stroke:#000000;stroke-width:0.6;" x="17.145" xlink:href="#m1ee2663160" y="223.635463"/>
      </g>
     </g>
    </g>
    <g id="ytick_26">
     <g id="line2d_33">
      <g>
       <use style="stroke:#000000;stroke-width:0.6;" x="17.145" xlink:href="#m1ee2663160" y="219.637903"/>
      </g>
     </g>
    </g>
    <g id="ytick_27">
     <g id="line2d_34">
      <g>
       <use style="stroke:#000000;stroke-width:0.6;" x="17.145" xlink:href="#m1ee2663160" y="216.17506"/>
      </g>
     </g>
    </g>
    <g id="ytick_28">
     <g id="line2d_35">
      <g>
       <use style="stroke:#000000;stroke-width:0.6;" x="17.145" xlink:href="#m1ee2663160" y="213.120615"/>
      </g>
     </g>
    </g>
    <g id="ytick_29">
     <g id="line2d_36">
      <g>
       <use style="stroke:#000000;stroke-width:0.6;" x="17.145" xlink:href="#m1ee2663160" y="192.413071"/>
      </g>
     </g>
    </g>
    <g id="ytick_30">
     <g id="line2d_37">
      <g>
       <use style="stroke:#000000;stroke-width:0.6;" x="17.145" xlink:href="#m1ee2663160" y="181.898223"/>
      </g>
     </g>
    </g>
    <g id="ytick_31">
     <g id="line2d_38">
      <g>
       <use style="stroke:#000000;stroke-width:0.6;" x="17.145" xlink:href="#m1ee2663160" y="174.43782"/>
      </g>
     </g>
    </g>
    <g id="ytick_32">
     <g id="line2d_39">
      <g>
       <use style="stroke:#000000;stroke-width:0.6;" x="17.145" xlink:href="#m1ee2663160" y="168.651082"/>
      </g>
     </g>
    </g>
    <g id="ytick_33">
     <g id="line2d_40">
      <g>
       <use style="stroke:#000000;stroke-width:0.6;" x="17.145" xlink:href="#m1ee2663160" y="163.922972"/>
      </g>
     </g>
    </g>
    <g id="ytick_34">
     <g id="line2d_41">
      <g>
       <use style="stroke:#000000;stroke-width:0.6;" x="17.145" xlink:href="#m1ee2663160" y="159.925413"/>
      </g>
     </g>
    </g>
    <g id="ytick_35">
     <g id="line2d_42">
      <g>
       <use style="stroke:#000000;stroke-width:0.6;" x="17.145" xlink:href="#m1ee2663160" y="156.462569"/>
      </g>
     </g>
    </g>
    <g id="ytick_36">
     <g id="line2d_43">
      <g>
       <use style="stroke:#000000;stroke-width:0.6;" x="17.145" xlink:href="#m1ee2663160" y="153.408125"/>
      </g>
     </g>
    </g>
    <g id="ytick_37">
     <g id="line2d_44">
      <g>
       <use style="stroke:#000000;stroke-width:0.6;" x="17.145" xlink:href="#m1ee2663160" y="132.70058"/>
      </g>
     </g>
    </g>
    <g id="ytick_38">
     <g id="line2d_45">
      <g>
       <use style="stroke:#000000;stroke-width:0.6;" x="17.145" xlink:href="#m1ee2663160" y="122.185733"/>
      </g>
     </g>
    </g>
    <g id="ytick_39">
     <g id="line2d_46">
      <g>
       <use style="stroke:#000000;stroke-width:0.6;" x="17.145" xlink:href="#m1ee2663160" y="114.72533"/>
      </g>
     </g>
    </g>
    <g id="ytick_40">
     <g id="line2d_47">
      <g>
       <use style="stroke:#000000;stroke-width:0.6;" x="17.145" xlink:href="#m1ee2663160" y="108.938592"/>
      </g>
     </g>
    </g>
    <g id="ytick_41">
     <g id="line2d_48">
      <g>
       <use style="stroke:#000000;stroke-width:0.6;" x="17.145" xlink:href="#m1ee2663160" y="104.210482"/>
      </g>
     </g>
    </g>
    <g id="ytick_42">
     <g id="line2d_49">
      <g>
       <use style="stroke:#000000;stroke-width:0.6;" x="17.145" xlink:href="#m1ee2663160" y="100.212923"/>
      </g>
     </g>
    </g>
    <g id="ytick_43">
     <g id="line2d_50">
      <g>
       <use style="stroke:#000000;stroke-width:0.6;" x="17.145" xlink:href="#m1ee2663160" y="96.750079"/>
      </g>
     </g>
    </g>
    <g id="ytick_44">
     <g id="line2d_51">
      <g>
       <use style="stroke:#000000;stroke-width:0.6;" x="17.145" xlink:href="#m1ee2663160" y="93.695635"/>
      </g>
     </g>
    </g>
    <g id="ytick_45">
     <g id="line2d_52">
      <g>
       <use style="stroke:#000000;stroke-width:0.6;" x="17.145" xlink:href="#m1ee2663160" y="72.98809"/>
      </g>
     </g>
    </g>
    <g id="ytick_46">
     <g id="line2d_53">
      <g>
       <use style="stroke:#000000;stroke-width:0.6;" x="17.145" xlink:href="#m1ee2663160" y="62.473243"/>
      </g>
     </g>
    </g>
    <g id="ytick_47">
     <g id="line2d_54">
      <g>
       <use style="stroke:#000000;stroke-width:0.6;" x="17.145" xlink:href="#m1ee2663160" y="55.01284"/>
      </g>
     </g>
    </g>
    <g id="ytick_48">
     <g id="line2d_55">
      <g>
       <use style="stroke:#000000;stroke-width:0.6;" x="17.145" xlink:href="#m1ee2663160" y="49.226101"/>
      </g>
     </g>
    </g>
    <g id="ytick_49">
     <g id="line2d_56">
      <g>
       <use style="stroke:#000000;stroke-width:0.6;" x="17.145" xlink:href="#m1ee2663160" y="44.497992"/>
      </g>
     </g>
    </g>
    <g id="ytick_50">
     <g id="line2d_57">
      <g>
       <use style="stroke:#000000;stroke-width:0.6;" x="17.145" xlink:href="#m1ee2663160" y="40.500432"/>
      </g>
     </g>
    </g>
    <g id="ytick_51">
     <g id="line2d_58">
      <g>
       <use style="stroke:#000000;stroke-width:0.6;" x="17.145" xlink:href="#m1ee2663160" y="37.037589"/>
      </g>
     </g>
    </g>
    <g id="ytick_52">
     <g id="line2d_59">
      <g>
       <use style="stroke:#000000;stroke-width:0.6;" x="17.145" xlink:href="#m1ee2663160" y="33.983144"/>
      </g>
     </g>
    </g>
    <g id="ytick_53">
     <g id="line2d_60">
      <g>
       <use style="stroke:#000000;stroke-width:0.6;" x="17.145" xlink:href="#m1ee2663160" y="13.2756"/>
      </g>
     </g>
    </g>
   </g>
   <g id="line2d_61">
    <path clip-path="url(#pd371cf9e2d)" d="M -1 180.781866 
L 0.003375 192.413071 
L 4.574475 192.413071 
L 5.71725 202.927918 
L 6.860025 192.413071 
L 8.0028 174.43782 
L 9.145575 174.43782 
L 10.28835 184.952668 
L 11.431125 202.927918 
L 12.5739 192.413071 
L 13.716675 174.43782 
L 14.85945 170.44026 
L 16.002225 166.977417 
L 17.145 166.977417 
L 18.287775 174.43782 
L 19.43055 163.922972 
L 20.573325 174.43782 
L 21.7161 170.44026 
L 22.858875 192.413071 
L 24.00165 184.952668 
L 25.144425 184.952668 
L 26.2872 192.413071 
L 27.429975 179.165929 
L 28.57275 179.165929 
L 29.715525 166.977417 
L 30.8583 179.165929 
L 32.001075 184.952668 
L 33.14385 202.927918 
L 34.286625 192.413071 
L 35.4294 184.952668 
L 36.572175 184.952668 
L 37.71495 170.44026 
L 38.857725 174.43782 
L 40.0005 174.43782 
L 41.143275 192.413071 
L 42.28605 192.413071 
L 43.428825 184.952668 
L 44.5716 179.165929 
L 45.714375 170.44026 
L 46.85715 174.43782 
L 47.999925 179.165929 
L 49.1427 192.413071 
L 50.285475 202.927918 
L 51.42825 174.43782 
L 52.571025 174.43782 
L 53.7138 161.190679 
L 54.856575 174.43782 
L 55.99935 179.165929 
L 57.142125 202.927918 
L 58.2849 202.927918 
L 59.427675 192.413071 
L 60.57045 179.165929 
L 61.713225 179.165929 
L 62.856 174.43782 
L 63.998775 179.165929 
L 66.284325 179.165929 
L 67.4271 174.43782 
L 68.569875 174.43782 
L 69.71265 184.952668 
L 70.855425 192.413071 
L 71.9982 192.413071 
L 73.140975 179.165929 
L 74.28375 184.952668 
L 76.5693 184.952668 
L 77.712075 179.165929 
L 78.85485 184.952668 
L 79.997625 170.44026 
L 82.283175 170.44026 
L 83.42595 192.413071 
L 84.568725 202.927918 
L 85.7115 174.43782 
L 86.854275 170.44026 
L 87.99705 166.977417 
L 89.139825 174.43782 
L 90.2826 179.165929 
L 91.425375 184.952668 
L 92.56815 184.952668 
L 93.710925 179.165929 
L 94.8537 174.43782 
L 95.996475 179.165929 
L 97.13925 184.952668 
L 98.282025 184.952668 
L 99.4248 179.165929 
L 100.567575 179.165929 
L 101.71035 184.952668 
L 102.853125 184.952668 
L 103.9959 179.165929 
L 105.138675 184.952668 
L 106.28145 184.952668 
L 107.424225 170.44026 
L 108.567 166.977417 
L 109.709775 174.43782 
L 110.85255 192.413071 
L 113.1381 192.413071 
L 114.280875 184.952668 
L 115.42365 179.165929 
L 116.566425 179.165929 
L 117.7092 170.44026 
L 118.851975 174.43782 
L 119.99475 174.43782 
L 121.137525 202.927918 
L 122.2803 202.927918 
L 123.423075 179.165929 
L 124.56585 174.43782 
L 125.708625 170.44026 
L 129.13695 170.44026 
L 130.279725 184.952668 
L 131.4225 184.952668 
L 132.565275 174.43782 
L 133.70805 166.977417 
L 134.850825 170.44026 
L 135.9936 170.44026 
L 137.136375 174.43782 
L 138.27915 179.165929 
L 139.421925 192.413071 
L 140.5647 192.413071 
L 141.707475 184.952668 
L 142.85025 192.413071 
L 143.993025 192.413071 
L 146.278575 166.977417 
L 148.564125 166.977417 
L 149.7069 174.43782 
L 151.99245 174.43782 
L 153.135225 179.165929 
L 154.278 170.44026 
L 155.420775 184.952668 
L 156.56355 184.952668 
L 157.706325 202.927918 
L 158.8491 184.952668 
L 159.991875 174.43782 
L 161.13465 174.43782 
L 162.277425 179.165929 
L 163.4202 184.952668 
L 164.562975 166.977417 
L 166.848525 166.977417 
L 167.9913 179.165929 
L 169.134075 184.952668 
L 170.27685 192.413071 
L 171.419625 192.413071 
L 172.5624 179.165929 
L 173.705175 184.952668 
L 174.84795 179.165929 
L 175.990725 174.43782 
L 177.1335 166.977417 
L 178.276275 170.44026 
L 179.41905 174.43782 
L 180.561825 184.952668 
L 181.7046 202.927918 
L 182.847375 202.927918 
L 183.99015 192.413071 
L 185.132925 184.952668 
L 186.2757 202.927918 
L 187.418475 170.44026 
L 188.56125 170.44026 
L 189.704025 163.922972 
L 190.8468 184.952668 
L 193.13235 184.952668 
L 194.275125 174.43782 
L 195.4179 170.44026 
L 196.560675 166.977417 
L 197.70345 174.43782 
L 198.846225 179.165929 
L 199.989 184.952668 
L 201.131775 170.44026 
L 203.417325 170.44026 
L 204.5601 184.952668 
L 206.84565 184.952668 
L 207.988425 174.43782 
L 209.1312 179.165929 
L 210.273975 184.952668 
L 211.41675 179.165929 
L 212.559525 166.977417 
L 213.7023 161.190679 
L 215.98785 179.165929 
L 217.130625 184.952668 
L 218.2734 174.43782 
L 219.416175 179.165929 
L 220.55895 192.413071 
L 221.701725 184.952668 
L 222.8445 174.43782 
L 223.987275 170.44026 
L 225.13005 174.43782 
L 226.272825 179.165929 
L 227.4156 184.952668 
L 228.558375 192.413071 
L 229.70115 179.165929 
L 230.843925 179.165929 
L 231.9867 163.922972 
L 233.129475 170.44026 
L 234.27225 170.44026 
L 235.415025 179.165929 
L 236.5578 166.977417 
L 237.700575 158.719018 
L 238.84335 166.977417 
L 239.986125 179.165929 
L 241.1289 184.952668 
L 242.271675 174.43782 
L 243.41445 158.719018 
L 244.557225 156.462569 
L 245.7 163.922972 
L 246.842775 184.952668 
L 247.98555 202.927918 
L 249.128325 170.44026 
L 250.2711 170.44026 
L 251.413875 166.977417 
L 252.55665 179.165929 
L 253.699425 179.165929 
L 254.8422 163.922972 
L 255.984975 158.719018 
L 257.12775 158.719018 
L 258.270525 174.43782 
L 259.4133 184.952668 
L 260.556075 179.165929 
L 261.69885 163.922972 
L 262.841625 158.719018 
L 263.9844 152.46501 
L 265.127175 161.190679 
L 266.26995 158.719018 
L 267.412725 163.922972 
L 268.5555 158.719018 
L 269.698275 158.719018 
L 270.84105 154.386837 
L 271.983825 161.190679 
L 273.1266 158.719018 
L 274.269375 163.922972 
L 275.41215 150.675831 
L 276.554925 158.719018 
L 277.6977 154.386837 
L 278.840475 156.462569 
L 279.98325 156.462569 
L 281.126025 161.190679 
L 282.2688 170.44026 
L 283.411575 170.44026 
L 284.55435 174.43782 
L 285.697125 166.977417 
L 286.8399 156.462569 
L 287.982675 152.46501 
L 289.12545 152.46501 
L 290.268225 154.386837 
L 291.411 150.675831 
L 292.553775 156.462569 
L 293.69655 158.719018 
L 294.839325 154.386837 
L 295.9821 149.002166 
L 297.124875 149.002166 
L 298.26765 154.386837 
L 299.410425 163.922972 
L 300.5532 163.922972 
L 301.695975 158.719018 
L 302.83875 158.719018 
L 303.981525 152.46501 
L 305.1243 152.46501 
L 306.267075 147.43 
L 307.40985 156.462569 
L 308.552625 158.719018 
L 309.6954 150.675831 
L 310.838175 145.947722 
L 311.98095 154.386837 
L 313.123725 161.190679 
L 314.2665 156.462569 
L 315.409275 150.675831 
L 316.55205 147.43 
L 317.694825 150.675831 
L 319.980375 150.675831 
L 321.12315 152.46501 
L 322.265925 152.46501 
L 323.4087 156.462569 
L 324.551475 154.386837 
L 326.837025 143.215428 
L 327.9798 141.950162 
L 329.122575 145.947722 
L 330.26535 152.46501 
L 331.408125 147.43 
L 332.5509 140.743768 
L 333.693675 140.743768 
L 334.83645 144.545607 
L 335.979225 143.215428 
L 337.122 137.42869 
L 338.264775 133.579743 
L 339.40755 133.579743 
L 340.550325 138.487319 
L 341.6931 137.42869 
L 342.835875 137.42869 
L 343.97865 132.70058 
L 346.2642 129.454749 
L 347.406975 127.261939 
L 348.54975 125.896739 
L 349.692525 123.3647 
L 350.8353 123.3647 
L 351.978075 120.512068 
L 353.12085 118.939901 
L 354.263625 111.479498 
L 355.4064 111.479498 
L 356.549175 107.921488 
L 357.69195 107.264927 
L 358.834725 103.36015 
L 359.9775 102.268081 
L 361.120275 100.212923 
L 362.26305 101.478188 
L 363.405825 102.268081 
L 365.691375 93.314263 
L 366.83415 81.38734 
L 367.976925 74.963168 
L 369.1197 64.20075 
L 371.40525 52.384485 
L 373.6908 42.105035 
L 374.833575 37.671995 
L 375.97635 34.802759 
L 377.119125 33.375613 
L 378.2619 33.003009 
L 379.404675 33.90642 
L 380.54745 35.48577 
L 382.833 40.673897 
L 385.11855 48.678687 
L 386.261325 56.026485 
L 387.4041 62.415678 
L 388.546875 72.474553 
L 389.68965 79.878519 
L 390.832425 90.449803 
L 391.9752 93.12566 
L 393.117975 99.006528 
L 394.26075 101.478188 
L 395.403525 106.624578 
L 396.5463 106.624578 
L 397.689075 109.639521 
L 398.83185 109.639521 
L 399.974625 113.051665 
L 401.1174 114.296679 
L 402.260175 117.942363 
L 403.40295 122.185733 
L 404.545725 122.185733 
L 406.831275 127.261939 
L 407.97405 136.411587 
L 409.116825 138.487319 
L 410.2596 138.487319 
L 411.402375 137.42869 
L 412.54515 138.487319 
L 413.687925 137.42869 
L 414.8307 137.42869 
L 415.973475 135.432874 
L 417.11625 136.411587 
L 418.259025 139.591009 
L 419.4018 145.947722 
L 420.544575 147.43 
L 421.68735 150.675831 
L 422.830125 147.43 
L 423.9729 158.719018 
L 425.115675 152.46501 
L 426.25845 158.719018 
L 427.401225 147.43 
L 428.544 156.462569 
L 429.686775 156.462569 
L 430.82955 163.922972 
L 431.972325 161.190679 
L 433.1151 166.977417 
L 434.257875 170.44026 
L 435.40065 174.43782 
L 436.543425 184.952668 
L 437.6862 192.413071 
L 438.828975 179.165929 
L 439.97175 170.44026 
L 441.114525 170.44026 
L 442.2573 174.43782 
L 443.400075 170.44026 
L 444.54285 170.44026 
L 445.685625 166.977417 
L 446.8284 174.43782 
L 447.971175 179.165929 
L 449.11395 184.952668 
L 450.256725 184.952668 
L 451.3995 174.43782 
L 452.542275 170.44026 
L 453.68505 161.190679 
L 454.827825 166.977417 
L 455.9706 170.44026 
L 458.25615 170.44026 
L 459.398925 179.165929 
L 460.5417 179.165929 
L 461.684475 166.977417 
L 462.82725 163.922972 
L 463.970025 170.44026 
L 465.1128 179.165929 
L 466.255575 179.165929 
L 467.39835 163.922972 
L 468.541125 156.462569 
L 469.6839 156.462569 
L 470.826675 166.977417 
L 471.96945 192.413071 
L 473.112225 184.952668 
L 474.255 179.165929 
L 475.397775 163.922972 
L 476.54055 170.44026 
L 477.683325 174.43782 
L 478.8261 192.413071 
L 479.968875 179.165929 
L 482.254425 179.165929 
L 483.3972 192.413071 
L 484.539975 202.927918 
L 485.68275 192.413071 
L 487.9683 192.413071 
L 489.111075 184.952668 
L 490.25385 174.43782 
L 491.396625 166.977417 
L 492.5394 170.44026 
L 493.682175 170.44026 
L 494.82495 184.952668 
L 495.967725 184.952668 
L 497.1105 192.413071 
L 498.253275 174.43782 
L 499.39605 170.44026 
L 500.538825 166.977417 
L 501.6816 179.165929 
L 502.824375 184.952668 
L 503.96715 202.927918 
L 505.109925 192.413071 
L 506.2527 202.927918 
L 507.395475 184.952668 
L 510.8238 184.952668 
L 511.966575 174.43782 
L 513.10935 166.977417 
L 514.252125 166.977417 
L 515.3949 174.43782 
L 516.537675 174.43782 
L 517.68045 170.44026 
L 518.823225 161.190679 
L 519.966 163.922972 
L 521.108775 163.922972 
L 522.25155 179.165929 
L 523.394325 184.952668 
L 524.5371 179.165929 
L 525.679875 179.165929 
L 526.82265 174.43782 
L 527.965425 192.413071 
L 529.1082 179.165929 
L 530.250975 184.952668 
L 531.39375 179.165929 
L 532.536525 179.165929 
L 533.6793 174.43782 
L 534.822075 174.43782 
L 535.96485 184.952668 
L 537.107625 179.165929 
L 538.2504 192.413071 
L 539.393175 179.165929 
L 540.53595 184.952668 
L 541.678725 179.165929 
L 542.8215 184.952668 
L 543.964275 184.952668 
L 545.10705 179.165929 
L 546.249825 184.952668 
L 547.3926 192.413071 
L 548.535375 220.903169 
L 549.67815 220.903169 
L 550.820925 192.413071 
L 551.9637 192.413071 
L 553.106475 184.952668 
L 554.24925 202.927918 
L 557.677575 202.927918 
L 558.82035 192.413071 
L 559.963125 202.927918 
L 561.1059 192.413071 
L 562.248675 192.413071 
L 563.39145 179.165929 
L 564.534225 174.43782 
L 565.677 174.43782 
L 566.819775 179.165929 
L 567.96255 192.413071 
L 569.105325 202.927918 
L 570.2481 202.927918 
L 571.390875 192.413071 
L 572.53365 184.952668 
L 574.8192 184.952668 
L 575.961975 192.413071 
L 577.10475 192.413071 
L 578.247525 202.927918 
L 579.3903 202.927918 
L 580.533075 220.903169 
L 581.67585 184.952668 
L 582.818625 174.43782 
L 583.9614 170.44026 
L 585.104175 184.952668 
L 586.24695 202.927918 
L 587.389725 192.413071 
L 588.5325 184.952668 
L 589.675275 174.43782 
L 590.81805 170.44026 
L 591.960825 170.44026 
L 593.1036 179.165929 
L 594.246375 202.927918 
L 595.38915 220.903169 
L 596.531925 220.903169 
L 597.6747 192.413071 
L 598.817475 192.413071 
L 599.96025 174.43782 
L 601.103025 179.165929 
L 602.2458 166.977417 
L 603.388575 179.165929 
L 604.53135 179.165929 
L 605.674125 202.927918 
L 606.8169 192.413071 
L 607.959675 184.952668 
L 609.10245 184.952668 
L 610.245225 179.165929 
L 611.388 184.952668 
L 612.530775 192.413071 
L 613.67355 202.927918 
L 614.816325 184.952668 
L 615.9591 179.165929 
L 617.101875 179.165929 
L 618.24465 174.43782 
L 619.387425 174.43782 
L 620.5302 179.165929 
L 621.672975 202.927918 
L 622.81575 192.413071 
L 623.958525 192.413071 
L 625.1013 179.165929 
L 626.244075 192.413071 
L 627.38685 192.413071 
L 628.529625 220.903169 
L 629.6724 192.413071 
L 630.815175 179.165929 
L 631.95795 179.165929 
L 633.100725 174.43782 
L 634.2435 184.952668 
L 635.386275 174.43782 
L 636.52905 179.165929 
L 637.671825 170.44026 
L 638.8146 179.165929 
L 639.957375 192.413071 
L 641.10015 202.927918 
L 642.242925 202.927918 
L 643.3857 192.413071 
L 644.528475 192.413071 
L 645.67125 202.927918 
L 646.814025 220.903169 
L 647.9568 202.927918 
L 649.099575 202.927918 
L 650.24235 179.165929 
L 651.385125 192.413071 
L 652.5279 192.413071 
M 655.956225 220.903169 
L 658.241775 220.903169 
M 660.527325 220.903169 
L 661.6701 202.927918 
L 662.812875 192.413071 
L 663.95565 179.165929 
L 665.098425 184.952668 
L 669.669525 184.952668 
L 670.8123 202.927918 
L 671.955075 192.413071 
L 673.09785 202.927918 
L 674.240625 192.413071 
L 675.3834 184.952668 
L 676.526175 184.952668 
L 677.66895 202.927918 
M 679.9545 192.413071 
L 681.097275 184.952668 
L 682.24005 174.43782 
L 683.382825 179.165929 
L 684.5256 179.165929 
L 685.668375 192.413071 
L 686.81115 192.413071 
L 687.953925 184.952668 
L 689.0967 184.952668 
L 690.239475 192.413071 
L 691.38225 220.903169 
L 692.525025 192.413071 
L 693.6678 202.927918 
L 694.810575 202.927918 
L 695.95335 220.903169 
L 697.096125 202.927918 
L 698.2389 192.413071 
L 699.381675 192.413071 
L 700.52445 179.165929 
L 701.667225 184.952668 
L 702.81 192.413071 
L 703.952775 220.903169 
L 705.09555 202.927918 
L 706.238325 202.927918 
L 707.3811 192.413071 
L 708.523875 192.413071 
L 709.66665 179.165929 
L 710.809425 184.952668 
L 711.9522 192.413071 
L 713.094975 220.903169 
L 714.23775 202.927918 
L 715.380525 202.927918 
L 716.5233 184.952668 
L 717.666075 192.413071 
L 718.80885 179.165929 
L 719.951625 192.413071 
L 721 192.413071 
L 721 192.413071 
" style="fill:none;stroke:#000000;stroke-linecap:square;stroke-width:1.5;"/>
   </g>
   <g id="line2d_62">
    <path clip-path="url(#pd371cf9e2d)" d="M -1 223.968758 
L 0.003375 226.367756 
L 1.14615 229.422201 
L 2.288925 229.422201 
L 3.4317 226.367756 
L 4.574475 232.885044 
L 5.71725 226.367756 
L 6.860025 226.367756 
L 8.0028 218.907353 
L 9.145575 223.635463 
L 10.28835 214.909794 
L 11.431125 216.831621 
L 12.5739 214.909794 
L 13.716675 223.635463 
L 14.85945 226.367756 
L 16.002225 226.367756 
L 17.145 223.635463 
L 18.287775 223.635463 
L 19.43055 226.367756 
L 21.7161 226.367756 
L 22.858875 229.422201 
L 24.00165 232.885044 
L 25.144425 226.367756 
L 28.57275 226.367756 
L 29.715525 229.422201 
L 30.8583 226.367756 
L 32.001075 226.367756 
L 33.14385 221.163802 
L 34.286625 226.367756 
L 35.4294 226.367756 
L 36.572175 232.885044 
L 37.71495 232.885044 
L 38.857725 229.422201 
L 40.0005 226.367756 
L 41.143275 223.635463 
L 42.28605 226.367756 
L 43.428825 232.885044 
L 44.5716 229.422201 
L 45.714375 226.367756 
L 46.85715 221.163802 
L 47.999925 221.163802 
L 49.1427 223.635463 
L 50.285475 221.163802 
L 51.42825 226.367756 
L 52.571025 226.367756 
L 53.7138 236.882604 
L 54.856575 226.367756 
L 55.99935 232.885044 
L 57.142125 226.367756 
L 58.2849 229.422201 
L 59.427675 226.367756 
L 60.57045 229.422201 
L 63.998775 229.422201 
L 65.14155 226.367756 
L 66.284325 229.422201 
L 67.4271 226.367756 
L 68.569875 229.422201 
L 69.71265 226.367756 
L 70.855425 226.367756 
L 71.9982 223.635463 
L 75.426525 223.635463 
L 76.5693 229.422201 
L 77.712075 229.422201 
L 78.85485 232.885044 
L 81.1404 232.885044 
L 82.283175 226.367756 
L 83.42595 223.635463 
L 84.568725 223.635463 
L 85.7115 226.367756 
L 86.854275 229.422201 
L 87.99705 232.885044 
L 89.139825 232.885044 
L 90.2826 236.882604 
L 91.425375 236.882604 
L 92.56815 232.885044 
L 93.710925 232.885044 
L 94.8537 229.422201 
L 95.996475 232.885044 
L 97.13925 229.422201 
L 98.282025 232.885044 
L 100.567575 232.885044 
L 101.71035 226.367756 
L 102.853125 232.885044 
L 103.9959 232.885044 
L 105.138675 241.610713 
L 106.28145 232.885044 
L 107.424225 229.422201 
L 108.567 226.367756 
L 110.85255 226.367756 
L 111.995325 229.422201 
L 113.1381 232.885044 
L 114.280875 236.882604 
L 115.42365 226.367756 
L 116.566425 229.422201 
L 117.7092 221.163802 
L 118.851975 226.367756 
L 119.99475 226.367756 
L 121.137525 229.422201 
L 124.56585 229.422201 
L 125.708625 226.367756 
L 127.994175 226.367756 
L 129.13695 223.635463 
L 130.279725 226.367756 
L 131.4225 221.163802 
L 132.565275 229.422201 
L 133.70805 221.163802 
L 134.850825 226.367756 
L 135.9936 226.367756 
L 137.136375 232.885044 
L 138.27915 236.882604 
L 139.421925 232.885044 
L 140.5647 232.885044 
L 141.707475 223.635463 
L 142.85025 223.635463 
L 143.993025 226.367756 
L 145.1358 226.367756 
L 146.278575 229.422201 
L 147.42135 226.367756 
L 148.564125 229.422201 
L 150.849675 229.422201 
L 151.99245 232.885044 
L 153.135225 226.367756 
L 154.278 223.635463 
L 155.420775 226.367756 
L 156.56355 229.422201 
L 157.706325 232.885044 
L 159.991875 232.885044 
L 161.13465 236.882604 
L 162.277425 232.885044 
L 164.562975 232.885044 
L 165.70575 236.882604 
L 166.848525 241.610713 
L 167.9913 236.882604 
L 169.134075 236.882604 
L 170.27685 229.422201 
L 171.419625 229.422201 
L 172.5624 226.367756 
L 173.705175 232.885044 
L 174.84795 236.882604 
L 175.990725 229.422201 
L 177.1335 226.367756 
L 178.276275 229.422201 
L 179.41905 232.885044 
L 180.561825 232.885044 
L 181.7046 229.422201 
L 182.847375 229.422201 
L 183.99015 232.885044 
L 185.132925 236.882604 
L 186.2757 232.885044 
L 187.418475 229.422201 
L 188.56125 229.422201 
L 189.704025 226.367756 
L 191.989575 226.367756 
L 193.13235 232.885044 
L 194.275125 229.422201 
L 195.4179 232.885044 
L 196.560675 229.422201 
L 197.70345 232.885044 
L 201.131775 232.885044 
L 202.27455 226.367756 
L 203.417325 223.635463 
L 204.5601 223.635463 
L 205.702875 226.367756 
L 206.84565 232.885044 
L 207.988425 226.367756 
L 209.1312 226.367756 
L 210.273975 229.422201 
L 211.41675 229.422201 
L 212.559525 226.367756 
L 213.7023 226.367756 
L 214.845075 229.422201 
L 215.98785 236.882604 
L 217.130625 229.422201 
L 220.55895 229.422201 
L 221.701725 226.367756 
L 223.987275 221.163802 
L 225.13005 218.907353 
L 227.4156 223.635463 
L 228.558375 226.367756 
L 229.70115 221.163802 
L 230.843925 226.367756 
L 231.9867 236.882604 
L 233.129475 241.610713 
L 234.27225 254.857855 
L 235.415025 232.885044 
L 236.5578 226.367756 
L 237.700575 223.635463 
L 238.84335 223.635463 
L 239.986125 226.367756 
L 241.1289 223.635463 
L 242.271675 229.422201 
L 243.41445 226.367756 
L 244.557225 232.885044 
L 245.7 226.367756 
L 246.842775 223.635463 
L 247.98555 218.907353 
L 249.128325 218.907353 
L 250.2711 221.163802 
L 252.55665 216.831621 
L 253.699425 214.909794 
L 254.8422 221.163802 
L 257.12775 226.367756 
L 258.270525 223.635463 
L 259.4133 218.907353 
L 260.556075 218.907353 
L 261.69885 223.635463 
L 262.841625 229.422201 
L 263.9844 223.635463 
L 265.127175 221.163802 
L 266.26995 221.163802 
L 267.412725 229.422201 
L 268.5555 226.367756 
L 269.698275 226.367756 
L 270.84105 221.163802 
L 271.983825 221.163802 
L 273.1266 218.907353 
L 274.269375 221.163802 
L 275.41215 218.907353 
L 276.554925 226.367756 
L 277.6977 221.163802 
L 278.840475 226.367756 
L 279.98325 223.635463 
L 281.126025 226.367756 
L 282.2688 221.163802 
L 283.411575 218.907353 
L 284.55435 223.635463 
L 285.697125 229.422201 
L 286.8399 229.422201 
L 287.982675 221.163802 
L 289.12545 214.909794 
L 290.268225 218.907353 
L 291.411 218.907353 
L 292.553775 229.422201 
L 293.69655 221.163802 
L 294.839325 216.831621 
L 295.9821 216.831621 
L 297.124875 218.907353 
L 298.26765 223.635463 
L 299.410425 218.907353 
L 300.5532 216.831621 
L 301.695975 213.120615 
L 302.83875 216.831621 
L 303.981525 214.909794 
L 305.1243 218.907353 
L 306.267075 208.392506 
L 307.40985 209.874784 
L 308.552625 213.120615 
L 309.6954 221.163802 
L 310.838175 223.635463 
L 311.98095 223.635463 
L 313.123725 214.909794 
L 314.2665 214.909794 
L 315.409275 213.120615 
L 316.55205 216.831621 
L 317.694825 213.120615 
L 318.8376 213.120615 
L 319.980375 216.831621 
L 321.12315 211.44695 
L 322.265925 206.990391 
L 323.4087 208.392506 
L 324.551475 208.392506 
L 325.69425 211.44695 
L 326.837025 204.394946 
L 327.9798 208.392506 
L 329.122575 205.660212 
L 330.26535 206.990391 
L 332.5509 204.394946 
L 333.693675 202.035793 
L 334.83645 198.856371 
L 335.979225 200.932103 
L 337.122 200.932103 
L 338.264775 202.035793 
L 339.40755 198.856371 
L 340.550325 197.877658 
L 341.6931 195.145364 
L 342.835875 190.417255 
L 345.121425 186.419695 
L 346.2642 189.01514 
L 347.406975 189.706723 
L 348.54975 189.706723 
L 349.692525 189.01514 
L 350.8353 186.419695 
L 351.978075 186.419695 
L 353.12085 181.898223 
L 355.4064 172.084305 
L 356.549175 170.366272 
L 357.69195 170.035914 
L 358.834725 170.035914 
L 359.9775 168.444445 
L 361.120275 165.527575 
L 362.26305 160.074025 
L 363.405825 152.557793 
L 365.691375 133.437058 
L 366.83415 124.404489 
L 367.976925 117.242412 
L 369.1197 112.05405 
L 370.262475 108.762845 
L 371.40525 106.770464 
L 372.548025 105.540661 
L 373.6908 105.925673 
L 374.833575 108.182122 
L 375.97635 111.567361 
L 377.119125 116.274815 
L 378.2619 122.185733 
L 379.404675 129.784814 
L 381.690225 147.969483 
L 382.833 156.527483 
L 383.975775 163.15643 
L 385.11855 168.137544 
L 386.261325 175.496449 
L 387.4041 178.049276 
L 388.546875 179.902407 
L 389.68965 180.88112 
L 390.832425 181.384685 
L 391.9752 186.419695 
L 393.117975 190.417255 
L 394.26075 195.145364 
L 396.5463 198.856371 
L 398.83185 196.934543 
L 399.974625 197.877658 
L 401.1174 200.932103 
L 403.40295 203.188552 
L 404.545725 200.932103 
L 405.6885 203.188552 
L 406.831275 204.394946 
L 407.97405 211.44695 
L 409.116825 209.874784 
L 410.2596 211.44695 
L 411.402375 209.874784 
L 412.54515 213.120615 
L 413.687925 213.120615 
L 414.8307 209.874784 
L 415.973475 209.874784 
L 417.11625 211.44695 
L 418.259025 214.909794 
L 419.4018 213.120615 
L 420.544575 216.831621 
L 422.830125 221.163802 
L 423.9729 216.831621 
L 425.115675 216.831621 
L 426.25845 214.909794 
L 427.401225 214.909794 
L 428.544 211.44695 
L 429.686775 213.120615 
L 430.82955 209.874784 
L 433.1151 223.635463 
L 434.257875 226.367756 
L 435.40065 221.163802 
L 437.6862 216.831621 
L 438.828975 218.907353 
L 439.97175 216.831621 
L 441.114525 226.367756 
L 443.400075 221.163802 
L 444.54285 218.907353 
L 446.8284 223.635463 
L 447.971175 221.163802 
L 449.11395 221.163802 
L 451.3995 226.367756 
L 453.68505 226.367756 
L 454.827825 229.422201 
L 455.9706 232.885044 
L 457.113375 229.422201 
L 458.25615 226.367756 
L 459.398925 232.885044 
L 460.5417 232.885044 
L 461.684475 241.610713 
L 462.82725 232.885044 
L 463.970025 229.422201 
L 465.1128 218.907353 
L 466.255575 218.907353 
L 467.39835 221.163802 
L 468.541125 229.422201 
L 469.6839 229.422201 
L 470.826675 232.885044 
L 471.96945 226.367756 
L 473.112225 229.422201 
L 474.255 226.367756 
L 475.397775 226.367756 
L 476.54055 229.422201 
L 477.683325 229.422201 
L 478.8261 232.885044 
L 481.11165 232.885044 
L 482.254425 241.610713 
L 483.3972 232.885044 
L 484.539975 229.422201 
L 485.68275 226.367756 
L 486.825525 229.422201 
L 487.9683 223.635463 
L 489.111075 221.163802 
L 490.25385 216.831621 
L 491.396625 218.907353 
L 492.5394 223.635463 
L 493.682175 232.885044 
L 494.82495 229.422201 
L 495.967725 223.635463 
L 497.1105 226.367756 
L 498.253275 229.422201 
L 499.39605 236.882604 
L 500.538825 236.882604 
L 501.6816 232.885044 
L 502.824375 236.882604 
L 503.96715 236.882604 
L 505.109925 229.422201 
L 507.395475 229.422201 
L 508.53825 236.882604 
L 509.681025 232.885044 
L 510.8238 226.367756 
L 511.966575 223.635463 
L 513.10935 229.422201 
L 514.252125 232.885044 
L 515.3949 229.422201 
L 516.537675 221.163802 
L 517.68045 218.907353 
L 518.823225 221.163802 
L 519.966 218.907353 
L 521.108775 226.367756 
L 522.25155 221.163802 
L 523.394325 226.367756 
L 524.5371 223.635463 
L 525.679875 236.882604 
L 526.82265 241.610713 
L 529.1082 223.635463 
L 531.39375 218.907353 
L 532.536525 221.163802 
L 533.6793 221.163802 
L 534.822075 232.885044 
L 535.96485 241.610713 
L 537.107625 247.397452 
L 538.2504 241.610713 
L 539.393175 236.882604 
L 540.53595 226.367756 
L 541.678725 226.367756 
L 542.8215 223.635463 
L 543.964275 232.885044 
L 548.535375 232.885044 
L 549.67815 236.882604 
L 550.820925 229.422201 
L 553.106475 229.422201 
L 554.24925 236.882604 
L 555.392025 236.882604 
L 556.5348 226.367756 
L 557.677575 229.422201 
L 558.82035 221.163802 
L 559.963125 232.885044 
L 561.1059 226.367756 
L 562.248675 229.422201 
L 563.39145 223.635463 
L 564.534225 223.635463 
L 565.677 226.367756 
L 566.819775 223.635463 
L 567.96255 229.422201 
L 569.105325 229.422201 
L 570.2481 232.885044 
L 572.53365 232.885044 
L 573.676425 229.422201 
L 574.8192 226.367756 
L 575.961975 226.367756 
L 577.10475 232.885044 
L 578.247525 232.885044 
L 579.3903 236.882604 
L 580.533075 236.882604 
L 581.67585 241.610713 
L 582.818625 236.882604 
L 583.9614 232.885044 
L 585.104175 226.367756 
L 587.389725 226.367756 
L 588.5325 229.422201 
L 589.675275 236.882604 
L 590.81805 232.885044 
L 593.1036 232.885044 
L 594.246375 236.882604 
L 596.531925 236.882604 
L 597.6747 229.422201 
L 598.817475 223.635463 
L 599.96025 223.635463 
L 601.103025 229.422201 
L 603.388575 229.422201 
L 604.53135 223.635463 
L 606.8169 223.635463 
L 607.959675 226.367756 
L 609.10245 226.367756 
L 610.245225 221.163802 
L 611.388 221.163802 
L 612.530775 226.367756 
L 613.67355 232.885044 
L 614.816325 232.885044 
L 615.9591 236.882604 
L 617.101875 232.885044 
L 618.24465 236.882604 
L 619.387425 232.885044 
L 620.5302 232.885044 
L 621.672975 229.422201 
L 622.81575 226.367756 
L 623.958525 232.885044 
L 625.1013 232.885044 
L 626.244075 226.367756 
L 627.38685 221.163802 
L 628.529625 226.367756 
L 629.6724 232.885044 
L 630.815175 236.882604 
L 631.95795 241.610713 
L 633.100725 241.610713 
L 634.2435 229.422201 
L 635.386275 223.635463 
L 636.52905 226.367756 
L 637.671825 236.882604 
L 638.8146 232.885044 
L 639.957375 232.885044 
L 641.10015 226.367756 
L 643.3857 226.367756 
L 644.528475 229.422201 
L 645.67125 226.367756 
L 646.814025 229.422201 
L 647.9568 232.885044 
L 650.24235 232.885044 
L 651.385125 229.422201 
L 652.5279 232.885044 
L 653.670675 236.882604 
L 655.956225 236.882604 
L 657.099 232.885044 
L 658.241775 229.422201 
L 660.527325 229.422201 
L 661.6701 232.885044 
L 662.812875 232.885044 
L 663.95565 229.422201 
L 665.098425 232.885044 
L 666.2412 223.635463 
L 667.383975 223.635463 
L 668.52675 226.367756 
L 669.669525 229.422201 
L 670.8123 223.635463 
L 671.955075 218.907353 
L 673.09785 223.635463 
L 674.240625 232.885044 
L 677.66895 232.885044 
L 678.811725 229.422201 
L 681.097275 229.422201 
L 682.24005 236.882604 
L 683.382825 232.885044 
L 684.5256 226.367756 
L 685.668375 229.422201 
L 686.81115 232.885044 
L 687.953925 232.885044 
L 689.0967 229.422201 
L 690.239475 229.422201 
L 691.38225 226.367756 
L 692.525025 226.367756 
L 693.6678 223.635463 
L 694.810575 229.422201 
L 695.95335 232.885044 
L 697.096125 241.610713 
L 698.2389 232.885044 
L 699.381675 229.422201 
L 700.52445 229.422201 
L 701.667225 232.885044 
L 702.81 236.882604 
L 703.952775 229.422201 
L 705.09555 232.885044 
L 706.238325 229.422201 
L 707.3811 232.885044 
L 708.523875 232.885044 
L 709.66665 229.422201 
L 710.809425 226.367756 
L 711.9522 226.367756 
L 713.094975 232.885044 
L 714.23775 223.635463 
L 715.380525 223.635463 
L 716.5233 218.907353 
L 717.666075 223.635463 
L 718.80885 229.422201 
L 719.951625 226.367756 
L 721 232.346678 
L 721 232.346678 
" style="fill:none;stroke:#8b4513;stroke-linecap:square;stroke-width:1.5;"/>
   </g>
   <g id="line2d_63">
    <path clip-path="url(#pd371cf9e2d)" d="M -1 288.076062 
L 0.003375 288.076062 
L 1.14615 283.347953 
L 2.288925 279.350393 
L 3.4317 272.833105 
L 4.574475 270.100812 
L 5.71725 275.88755 
L 6.860025 272.833105 
L 8.0028 275.88755 
L 9.145575 279.350393 
L 10.28835 272.833105 
L 12.5739 272.833105 
L 13.716675 279.350393 
L 19.43055 279.350393 
L 20.573325 283.347953 
L 21.7161 283.347953 
L 22.858875 288.076062 
L 24.00165 279.350393 
L 25.144425 288.076062 
L 27.429975 288.076062 
L 28.57275 279.350393 
L 29.715525 272.833105 
L 30.8583 272.833105 
L 32.001075 275.88755 
L 33.14385 279.350393 
L 36.572175 279.350393 
L 37.71495 283.347953 
L 41.143275 283.347953 
L 42.28605 288.076062 
L 43.428825 293.8628 
L 44.5716 293.8628 
L 45.714375 288.076062 
L 46.85715 283.347953 
L 47.999925 279.350393 
L 49.1427 275.88755 
L 50.285475 272.833105 
L 51.42825 279.350393 
L 52.571025 283.347953 
L 53.7138 288.076062 
L 57.142125 288.076062 
L 58.2849 283.347953 
L 63.998775 283.347953 
L 65.14155 288.076062 
L 66.284325 283.347953 
L 67.4271 288.076062 
L 68.569875 283.347953 
L 69.71265 288.076062 
L 70.855425 279.350393 
L 71.9982 283.347953 
L 73.140975 283.347953 
L 74.28375 288.076062 
L 75.426525 293.8628 
L 76.5693 288.076062 
L 78.85485 288.076062 
L 79.997625 293.8628 
L 81.1404 293.8628 
L 82.283175 288.076062 
L 83.42595 288.076062 
L 84.568725 293.8628 
L 85.7115 293.8628 
L 86.854275 283.347953 
L 87.99705 275.88755 
L 89.139825 279.350393 
L 90.2826 283.347953 
L 91.425375 288.076062 
L 92.56815 279.350393 
L 98.282025 279.350393 
L 99.4248 283.347953 
L 100.567575 279.350393 
L 101.71035 275.88755 
L 102.853125 275.88755 
L 103.9959 279.350393 
L 105.138675 283.347953 
L 106.28145 288.076062 
L 107.424225 283.347953 
L 108.567 288.076062 
L 110.85255 288.076062 
L 111.995325 283.347953 
L 113.1381 283.347953 
L 114.280875 293.8628 
L 115.42365 288.076062 
L 116.566425 283.347953 
L 117.7092 279.350393 
L 118.851975 279.350393 
L 119.99475 283.347953 
L 124.56585 283.347953 
L 125.708625 288.076062 
L 126.8514 293.8628 
L 127.994175 288.076062 
L 129.13695 279.350393 
L 130.279725 275.88755 
L 131.4225 275.88755 
L 132.565275 288.076062 
L 133.70805 293.8628 
L 134.850825 311.838051 
L 135.9936 293.8628 
L 137.136375 288.076062 
L 138.27915 283.347953 
L 139.421925 283.347953 
L 140.5647 288.076062 
L 141.707475 283.347953 
L 142.85025 279.350393 
L 143.993025 272.833105 
L 146.278575 267.629151 
L 147.42135 272.833105 
L 148.564125 272.833105 
L 149.7069 279.350393 
L 150.849675 283.347953 
L 151.99245 283.347953 
L 153.135225 279.350393 
L 154.278 279.350393 
L 155.420775 283.347953 
L 156.56355 288.076062 
L 157.706325 288.076062 
L 158.8491 279.350393 
L 159.991875 288.076062 
L 161.13465 283.347953 
L 163.4202 283.347953 
L 164.562975 279.350393 
L 165.70575 283.347953 
L 166.848525 275.88755 
L 167.9913 272.833105 
L 169.134075 275.88755 
L 170.27685 283.347953 
L 171.419625 288.076062 
L 172.5624 293.8628 
L 173.705175 283.347953 
L 174.84795 288.076062 
L 175.990725 288.076062 
L 177.1335 293.8628 
L 178.276275 283.347953 
L 179.41905 279.350393 
L 180.561825 283.347953 
L 181.7046 283.347953 
L 182.847375 288.076062 
L 183.99015 283.347953 
L 187.418475 283.347953 
L 188.56125 288.076062 
L 189.704025 301.323204 
L 190.8468 293.8628 
L 191.989575 288.076062 
L 193.13235 279.350393 
L 194.275125 288.076062 
L 195.4179 283.347953 
L 198.846225 283.347953 
L 199.989 288.076062 
L 202.27455 288.076062 
L 203.417325 279.350393 
L 204.5601 283.347953 
L 205.702875 272.833105 
L 206.84565 272.833105 
L 207.988425 270.100812 
L 209.1312 275.88755 
L 210.273975 279.350393 
L 211.41675 283.347953 
L 213.7023 283.347953 
L 214.845075 279.350393 
L 215.98785 275.88755 
L 217.130625 283.347953 
L 218.2734 293.8628 
L 219.416175 288.076062 
L 220.55895 275.88755 
L 221.701725 270.100812 
L 222.8445 270.100812 
L 223.987275 283.347953 
L 225.13005 283.347953 
L 226.272825 288.076062 
L 227.4156 279.350393 
L 228.558375 279.350393 
L 229.70115 272.833105 
L 230.843925 267.629151 
L 231.9867 267.629151 
L 233.129475 275.88755 
L 234.27225 288.076062 
L 235.415025 272.833105 
L 236.5578 267.629151 
L 237.700575 265.372702 
L 238.84335 272.833105 
L 239.986125 275.88755 
L 242.271675 275.88755 
L 243.41445 272.833105 
L 244.557225 275.88755 
L 245.7 275.88755 
L 246.842775 279.350393 
L 247.98555 275.88755 
L 249.128325 272.833105 
L 250.2711 265.372702 
L 251.413875 261.375143 
L 252.55665 265.372702 
L 254.8422 265.372702 
L 255.984975 263.29697 
L 257.12775 265.372702 
L 258.270525 261.375143 
L 259.4133 263.29697 
L 260.556075 267.629151 
L 261.69885 272.833105 
L 262.841625 267.629151 
L 263.9844 270.100812 
L 265.127175 267.629151 
L 268.5555 267.629151 
L 269.698275 270.100812 
L 270.84105 267.629151 
L 271.983825 275.88755 
L 273.1266 270.100812 
L 274.269375 261.375143 
L 275.41215 256.340133 
L 276.554925 256.340133 
L 277.6977 263.29697 
L 279.98325 263.29697 
L 281.126025 257.912299 
L 282.2688 261.375143 
L 283.411575 267.629151 
L 284.55435 261.375143 
L 285.697125 259.585964 
L 286.8399 254.857855 
L 287.982675 263.29697 
L 289.12545 259.585964 
L 290.268225 263.29697 
L 291.411 257.912299 
L 292.553775 261.375143 
L 293.69655 256.340133 
L 294.839325 254.857855 
L 295.9821 248.501142 
L 297.124875 249.653901 
L 298.26765 253.45574 
L 299.410425 256.340133 
L 300.5532 252.125561 
L 301.695975 250.860295 
L 302.83875 252.125561 
L 303.981525 254.857855 
L 305.1243 252.125561 
L 306.267075 254.857855 
L 307.40985 254.857855 
L 308.552625 256.340133 
L 309.6954 252.125561 
L 310.838175 252.125561 
L 311.98095 250.860295 
L 313.123725 253.45574 
L 314.2665 245.32172 
L 315.409275 244.343007 
L 316.55205 241.610713 
L 317.694825 246.338823 
L 318.8376 245.32172 
L 319.980375 243.399892 
L 321.12315 240.760381 
L 322.265925 240.760381 
L 323.4087 243.399892 
L 325.69425 247.397452 
L 326.837025 245.32172 
L 327.9798 244.343007 
L 330.26535 246.338823 
L 331.408125 244.343007 
L 333.693675 239.139053 
L 334.83645 241.610713 
L 335.979225 240.760381 
L 337.122 243.399892 
L 338.264775 242.489876 
L 339.40755 240.760381 
L 340.550325 239.937048 
L 341.6931 238.364882 
L 342.835875 234.806872 
L 343.97865 231.67865 
L 345.121425 229.422201 
L 346.2642 228.887485 
L 348.54975 226.852496 
L 349.692525 227.850034 
L 350.8353 227.346469 
L 351.978075 228.363572 
L 353.12085 224.965642 
L 354.263625 223.206811 
L 355.4064 219.637903 
L 356.549175 216.831621 
L 357.69195 214.602893 
L 358.834725 211.178214 
L 359.9775 206.539374 
L 361.120275 202.605767 
L 362.26305 199.359936 
L 364.5486 196.627642 
L 365.691375 195.145364 
L 366.83415 193.4717 
L 367.976925 194.017673 
L 369.1197 195.58122 
L 370.262475 199.190992 
L 371.40525 199.701162 
L 373.6908 203.986547 
L 375.97635 211.7185 
L 377.119125 214.602893 
L 378.2619 216.831621 
L 379.404675 220.773828 
L 380.54745 224.071318 
L 381.690225 225.891912 
L 382.833 228.363572 
L 383.975775 229.968175 
L 385.11855 239.937048 
L 386.261325 243.399892 
L 387.4041 247.397452 
L 388.546875 246.338823 
L 389.68965 246.338823 
L 390.832425 245.32172 
L 393.117975 249.653901 
L 394.26075 253.45574 
L 395.403525 256.340133 
L 396.5463 254.857855 
L 397.689075 256.340133 
L 398.83185 261.375143 
L 399.974625 263.29697 
L 401.1174 263.29697 
L 402.260175 259.585964 
L 404.545725 259.585964 
L 405.6885 257.912299 
L 406.831275 263.29697 
L 407.97405 267.629151 
L 409.116825 272.833105 
L 410.2596 272.833105 
L 412.54515 267.629151 
L 414.8307 272.833105 
L 415.973475 263.29697 
L 417.11625 265.372702 
L 418.259025 261.375143 
L 419.4018 270.100812 
L 420.544575 267.629151 
L 421.68735 267.629151 
L 422.830125 270.100812 
L 423.9729 267.629151 
L 425.115675 267.629151 
L 426.25845 265.372702 
L 427.401225 267.629151 
L 428.544 275.88755 
L 429.686775 275.88755 
L 430.82955 283.347953 
L 431.972325 275.88755 
L 433.1151 275.88755 
L 434.257875 272.833105 
L 435.40065 270.100812 
L 436.543425 272.833105 
L 437.6862 279.350393 
L 438.828975 283.347953 
L 439.97175 283.347953 
L 441.114525 279.350393 
L 442.2573 279.350393 
L 443.400075 288.076062 
L 444.54285 283.347953 
L 446.8284 283.347953 
L 447.971175 293.8628 
L 449.11395 288.076062 
L 450.256725 288.076062 
L 451.3995 283.347953 
L 452.542275 279.350393 
L 453.68505 272.833105 
L 454.827825 275.88755 
L 455.9706 283.347953 
L 457.113375 288.076062 
L 458.25615 288.076062 
L 459.398925 283.347953 
L 460.5417 283.347953 
L 461.684475 288.076062 
L 462.82725 283.347953 
L 463.970025 283.347953 
L 465.1128 279.350393 
L 466.255575 279.350393 
L 467.39835 283.347953 
L 468.541125 293.8628 
L 469.6839 301.323204 
L 470.826675 301.323204 
L 471.96945 293.8628 
L 473.112225 288.076062 
L 474.255 283.347953 
L 475.397775 283.347953 
L 476.54055 275.88755 
L 477.683325 275.88755 
L 478.8261 279.350393 
L 479.968875 279.350393 
L 481.11165 275.88755 
L 482.254425 279.350393 
L 483.3972 288.076062 
L 484.539975 288.076062 
L 485.68275 279.350393 
L 486.825525 279.350393 
L 487.9683 283.347953 
L 489.111075 275.88755 
L 490.25385 272.833105 
L 491.396625 272.833105 
L 492.5394 279.350393 
L 493.682175 288.076062 
L 494.82495 293.8628 
L 495.967725 288.076062 
L 497.1105 283.347953 
L 498.253275 288.076062 
L 499.39605 279.350393 
L 500.538825 279.350393 
L 501.6816 275.88755 
L 502.824375 283.347953 
L 503.96715 275.88755 
L 505.109925 272.833105 
L 506.2527 270.100812 
L 507.395475 275.88755 
L 508.53825 279.350393 
L 509.681025 283.347953 
L 510.8238 283.347953 
L 511.966575 293.8628 
L 513.10935 301.323204 
L 515.3949 301.323204 
L 516.537675 293.8628 
L 517.68045 288.076062 
L 518.823225 288.076062 
L 519.966 283.347953 
L 521.108775 293.8628 
L 523.394325 293.8628 
L 524.5371 288.076062 
L 525.679875 293.8628 
L 526.82265 301.323204 
L 527.965425 283.347953 
L 529.1082 279.350393 
L 530.250975 279.350393 
L 531.39375 293.8628 
L 532.536525 293.8628 
L 533.6793 283.347953 
L 534.822075 283.347953 
L 535.96485 279.350393 
L 537.107625 288.076062 
L 538.2504 279.350393 
L 540.53595 279.350393 
L 541.678725 283.347953 
L 542.8215 288.076062 
L 543.964275 283.347953 
L 545.10705 288.076062 
L 546.249825 288.076062 
L 547.3926 283.347953 
L 548.535375 283.347953 
L 549.67815 288.076062 
L 550.820925 283.347953 
L 551.9637 283.347953 
L 553.106475 279.350393 
L 554.24925 288.076062 
L 555.392025 288.076062 
L 556.5348 301.323204 
L 557.677575 293.8628 
L 558.82035 293.8628 
L 559.963125 288.076062 
L 563.39145 288.076062 
L 564.534225 283.347953 
L 565.677 279.350393 
L 566.819775 283.347953 
L 567.96255 288.076062 
L 569.105325 288.076062 
L 570.2481 279.350393 
L 571.390875 279.350393 
L 572.53365 283.347953 
L 573.676425 283.347953 
L 574.8192 279.350393 
L 575.961975 270.100812 
L 577.10475 272.833105 
L 578.247525 275.88755 
L 579.3903 283.347953 
L 580.533075 283.347953 
L 581.67585 279.350393 
L 582.818625 279.350393 
L 583.9614 283.347953 
L 585.104175 288.076062 
L 586.24695 283.347953 
L 587.389725 279.350393 
L 588.5325 283.347953 
L 589.675275 283.347953 
L 590.81805 288.076062 
L 591.960825 283.347953 
L 594.246375 283.347953 
L 595.38915 279.350393 
L 596.531925 283.347953 
L 597.6747 279.350393 
L 598.817475 288.076062 
L 599.96025 288.076062 
L 601.103025 293.8628 
L 603.388575 293.8628 
L 604.53135 301.323204 
L 605.674125 283.347953 
L 606.8169 275.88755 
L 607.959675 275.88755 
L 611.388 311.838051 
L 612.530775 293.8628 
L 613.67355 288.076062 
L 614.816325 283.347953 
L 615.9591 288.076062 
L 617.101875 283.347953 
L 618.24465 288.076062 
L 619.387425 283.347953 
L 623.958525 283.347953 
L 625.1013 293.8628 
L 626.244075 301.323204 
L 627.38685 293.8628 
L 628.529625 283.347953 
L 629.6724 283.347953 
L 630.815175 293.8628 
L 631.95795 293.8628 
L 633.100725 288.076062 
L 635.386275 288.076062 
L 636.52905 293.8628 
L 637.671825 288.076062 
L 638.8146 288.076062 
L 639.957375 283.347953 
L 641.10015 279.350393 
L 642.242925 279.350393 
L 643.3857 272.833105 
L 644.528475 283.347953 
L 645.67125 283.347953 
L 646.814025 293.8628 
L 647.9568 283.347953 
L 650.24235 283.347953 
L 651.385125 288.076062 
L 652.5279 301.323204 
L 653.670675 288.076062 
L 654.81345 279.350393 
L 655.956225 275.88755 
L 657.099 283.347953 
L 658.241775 301.323204 
L 660.527325 301.323204 
L 661.6701 293.8628 
L 662.812875 301.323204 
L 663.95565 288.076062 
L 665.098425 293.8628 
L 666.2412 288.076062 
L 667.383975 283.347953 
L 668.52675 279.350393 
L 669.669525 283.347953 
L 670.8123 288.076062 
L 671.955075 293.8628 
L 673.09785 288.076062 
L 674.240625 283.347953 
L 676.526175 283.347953 
L 677.66895 288.076062 
L 678.811725 279.350393 
L 679.9545 275.88755 
L 681.097275 283.347953 
L 682.24005 283.347953 
L 683.382825 293.8628 
L 684.5256 293.8628 
L 685.668375 301.323204 
L 686.81115 293.8628 
L 687.953925 288.076062 
L 690.239475 288.076062 
L 691.38225 293.8628 
L 693.6678 293.8628 
L 694.810575 288.076062 
L 699.381675 288.076062 
L 700.52445 293.8628 
L 701.667225 283.347953 
L 702.81 283.347953 
L 703.952775 288.076062 
L 705.09555 288.076062 
L 706.238325 293.8628 
L 708.523875 293.8628 
L 709.66665 288.076062 
L 710.809425 283.347953 
L 711.9522 279.350393 
L 714.23775 279.350393 
L 715.380525 283.347953 
L 716.5233 288.076062 
L 717.666075 288.076062 
L 718.80885 293.8628 
L 719.951625 311.838051 
L 721 302.191792 
L 721 302.191792 
" style="fill:none;stroke:#b8860b;stroke-linecap:square;stroke-width:1.5;"/>
   </g>
   <g id="line2d_64">
    <path clip-path="url(#pd371cf9e2d)" d="M -1 363.411475 
L -0.568013 363.767987 
L 0.574762 366.287716 
L 1.717537 366.822432 
L 2.860312 364.252727 
L 4.003087 366.287716 
L 5.145862 358.959962 
L 6.288637 361.035694 
L 7.431412 358.174059 
L 8.574187 361.914856 
L 9.716962 357.038134 
L 10.859737 359.770428 
L 12.002512 359.770428 
L 13.145287 366.822432 
L 14.288062 365.763803 
L 15.430837 368.496097 
L 16.573612 364.7467 
L 17.716387 365.763803 
L 18.859162 364.7467 
L 20.001937 367.368406 
L 21.144712 363.767987 
L 22.287487 360.607043 
L 23.430262 360.607043 
L 24.573037 362.824872 
L 26.858587 368.496097 
L 28.001362 366.287716 
L 29.144137 369.675064 
L 30.286912 368.496097 
L 31.429687 370.910193 
L 32.572462 367.368406 
L 33.715237 365.250265 
L 34.858012 362.365873 
L 36.000787 363.767987 
L 37.143562 365.763803 
L 38.286337 369.078881 
L 39.429112 369.078881 
L 40.571887 365.250265 
L 42.857437 364.252727 
L 44.000212 366.822432 
L 45.142987 366.822432 
L 46.285762 365.763803 
L 48.571312 362.824872 
L 49.714087 365.763803 
L 50.856862 363.292143 
L 51.999637 365.250265 
L 53.142412 364.252727 
L 54.285187 369.675064 
L 55.427962 366.287716 
L 56.570737 369.078881 
L 57.713512 367.926122 
L 58.856287 369.675064 
L 59.999062 361.914856 
L 61.141837 361.47155 
L 62.284612 359.362029 
L 63.427387 362.824872 
L 64.570162 361.035694 
L 65.712937 363.292143 
L 66.855712 362.824872 
L 67.998488 366.287716 
L 69.141262 364.252727 
L 70.284037 364.252727 
L 71.426812 364.7467 
L 72.569587 370.910193 
L 73.712362 372.207103 
L 74.855137 369.078881 
L 75.997912 366.287716 
L 77.140688 364.7467 
L 78.283462 364.7467 
L 79.426237 363.292143 
L 80.569012 362.365873 
L 81.711787 360.185362 
L 82.854562 360.185362 
L 83.997337 361.035694 
L 85.140112 363.292143 
L 86.282888 362.824872 
L 87.425662 360.185362 
L 88.568437 361.914856 
L 89.711212 361.035694 
L 90.853987 361.47155 
L 91.996762 361.035694 
L 94.282312 361.035694 
L 95.425088 357.411275 
L 96.567862 360.185362 
L 97.710637 361.914856 
L 98.853412 364.7467 
L 99.996187 359.770428 
L 101.138962 361.035694 
L 102.281737 361.914856 
L 103.424512 364.252727 
L 104.567288 363.292143 
L 105.710062 362.824872 
L 107.995612 362.824872 
L 109.138387 362.365873 
L 110.281162 361.035694 
L 111.423937 361.035694 
L 112.566712 357.411275 
L 113.709488 359.362029 
L 114.852262 360.607043 
L 115.995037 363.292143 
L 117.137812 367.368406 
L 118.280587 366.822432 
L 119.423362 363.292143 
L 120.566137 356.307584 
L 121.708912 354.231852 
L 122.851688 355.949885 
L 123.994462 358.959962 
L 125.137237 362.824872 
L 126.280012 360.607043 
L 127.422787 357.789862 
L 128.565562 355.597052 
L 129.708337 357.038134 
L 130.851112 359.770428 
L 131.993888 356.670287 
L 133.136662 356.670287 
L 134.279437 356.307584 
L 135.422212 361.47155 
L 136.564987 361.47155 
L 137.707762 366.287716 
L 138.850537 367.368406 
L 139.993312 363.767987 
L 141.136088 359.362029 
L 142.278862 354.231852 
L 143.421637 354.566474 
L 144.564412 353.575291 
L 145.707187 353.25314 
L 146.849962 354.566474 
L 147.992737 352.310025 
L 149.135512 353.901494 
L 150.278287 353.901494 
L 151.421063 357.038134 
L 152.563837 357.411275 
L 153.706612 355.248956 
L 155.992162 354.566474 
L 157.134937 360.607043 
L 158.277712 361.914856 
L 159.420487 364.252727 
L 160.563263 356.670287 
L 161.706037 355.597052 
L 162.848812 353.901494 
L 163.991587 354.231852 
L 165.134362 350.520846 
L 166.277137 352.003124 
L 167.419912 354.231852 
L 168.562687 360.607043 
L 169.705463 358.174059 
L 170.848237 356.670287 
L 171.991012 350.810601 
L 173.133787 347.530512 
L 174.276562 346.277476 
L 175.419337 349.118731 
L 176.562112 348.578445 
L 177.704887 350.520846 
L 178.847662 349.118731 
L 179.990437 352.310025 
L 181.133212 351.400009 
L 182.275987 349.670514 
L 183.418762 347.02201 
L 184.561537 343.717005 
L 185.704312 343.939605 
L 186.847087 344.619106 
L 187.989862 347.530512 
L 189.132637 346.771449 
L 190.275412 347.275015 
L 191.418187 345.082205 
L 192.560962 346.523287 
L 193.703737 344.849622 
L 194.846512 344.390622 
L 195.989287 340.785991 
L 197.132062 340.005999 
L 198.274837 341.795177 
L 200.560387 347.02201 
L 201.703162 347.530512 
L 202.845937 349.118731 
L 203.988712 343.939605 
L 205.131487 339.624627 
L 206.274262 338.513051 
L 207.417037 337.621801 
L 208.559812 337.621801 
L 209.702587 335.762629 
L 210.845362 336.591223 
L 211.988137 336.256602 
L 213.130912 336.930219 
L 214.273687 337.101393 
L 215.416462 340.198808 
L 216.559237 340.984711 
L 217.702012 340.198808 
L 221.130337 333.875775 
L 222.273112 331.556213 
L 223.415887 330.469864 
L 224.558662 333.12838 
L 225.701437 334.802045 
L 226.844212 335.438464 
L 227.986987 333.574227 
L 229.129762 329.299764 
L 230.272537 327.817486 
L 231.415312 327.341642 
L 232.558087 328.921176 
L 234.843637 324.550476 
L 235.986412 321.180416 
L 238.271962 319.999384 
L 239.414738 322.030748 
L 240.557512 321.554903 
L 241.700287 320.719786 
L 242.843062 320.267195 
L 243.985837 318.531912 
L 245.128612 317.222722 
L 246.271387 314.426672 
L 249.699712 310.820948 
L 250.842487 310.204938 
L 251.985262 309.190176 
L 253.128037 307.821975 
L 254.270812 306.894731 
L 255.413587 305.588674 
L 256.556362 305.234464 
L 257.699138 303.158732 
L 258.841912 301.979765 
L 259.984687 299.60905 
L 261.127462 299.528263 
L 262.270237 300.057938 
L 263.413012 299.852934 
L 264.555787 298.192035 
L 265.698562 296.201895 
L 266.841338 294.753143 
L 267.984112 294.156198 
L 269.126887 293.159278 
L 270.269662 291.509285 
L 271.412437 290.952829 
L 272.555212 289.515663 
L 273.697987 289.270111 
L 274.840762 287.869425 
L 277.126312 287.818022 
L 278.269087 287.385162 
L 279.411862 287.689959 
L 281.697412 287.058959 
L 282.840187 286.41861 
L 283.982962 286.442949 
L 285.125738 286.78611 
L 286.268512 285.746241 
L 287.411287 285.722547 
L 288.554062 285.183482 
L 289.696837 286.564986 
L 290.839612 286.176472 
L 291.982387 285.323031 
L 293.125162 284.204769 
L 294.267938 283.696049 
L 295.410713 284.587299 
L 297.696262 283.197118 
L 298.839037 282.707604 
L 299.981812 283.261654 
L 301.124587 283.608586 
L 303.410138 283.39121 
L 304.552913 284.115576 
L 306.838462 284.048882 
L 307.981237 284.048882 
L 309.124012 284.837859 
L 310.266787 284.814981 
L 311.409562 285.463335 
L 312.552338 285.463335 
L 313.695113 286.984261 
L 314.837887 286.10427 
L 317.123437 285.698875 
L 319.408987 287.741108 
L 320.551762 288.12798 
L 321.694537 287.818022 
L 322.837313 288.865955 
L 323.980087 289.270111 
L 325.122862 290.636044 
L 326.265637 290.493321 
L 327.408412 289.570547 
L 328.551187 290.013853 
L 329.693962 290.182067 
L 330.836737 292.721319 
L 331.979513 293.064805 
L 333.122287 294.419812 
L 334.265062 295.192979 
L 335.407837 296.379883 
L 336.550612 298.461569 
L 337.693387 298.500303 
L 338.836162 300.057938 
L 339.978937 299.893806 
L 341.121713 300.472871 
L 342.264487 301.280018 
L 344.550037 305.084129 
L 346.835587 309.190176 
L 347.978362 309.842235 
L 349.121137 311.324513 
L 350.263912 312.494613 
L 351.406687 315.824808 
L 352.549462 316.6701 
L 353.692237 317.143052 
L 355.977787 317.143052 
L 357.120562 317.302639 
L 358.263337 318.784917 
L 359.406112 319.646551 
L 360.548887 320.995181 
L 362.834437 322.223558 
L 363.977212 323.513026 
L 365.119987 325.741754 
L 366.262762 326.415371 
L 367.405537 325.741754 
L 368.548312 325.411396 
L 369.691087 327.341642 
L 370.833862 329.813302 
L 371.976637 330.073935 
L 373.119412 329.813302 
L 374.262187 329.046759 
L 375.404962 330.073935 
L 376.547737 330.205241 
L 377.690512 331.556213 
L 378.833287 333.424758 
L 379.976062 337.101393 
L 381.118837 336.930219 
L 382.261612 335.926243 
L 383.404387 335.60004 
L 384.547162 335.438464 
L 385.689937 337.101393 
L 386.832712 335.60004 
L 387.975487 336.591223 
L 389.118262 335.926243 
L 390.261037 338.332334 
L 391.403812 338.878308 
L 392.546587 339.062884 
L 393.689362 338.332334 
L 394.832137 338.332334 
L 395.974912 339.062884 
L 397.117687 340.984711 
L 398.260462 343.717005 
L 399.403237 344.390622 
L 400.546012 342.420094 
L 401.688787 341.386778 
L 402.831562 342.631792 
L 403.974337 344.619106 
L 405.117112 344.390622 
L 406.259887 345.316892 
L 407.402662 345.792737 
L 408.545437 347.275015 
L 410.830987 347.275015 
L 411.973762 348.847181 
L 413.116537 346.771449 
L 414.259312 349.670514 
L 415.402087 346.523287 
L 416.544862 347.788552 
L 417.687637 344.390622 
L 418.830412 342.845232 
L 419.973187 345.316892 
L 421.115962 345.316892 
L 422.258737 348.578445 
L 423.401512 346.523287 
L 424.544287 346.771449 
L 425.687062 348.847181 
L 426.829837 348.312465 
L 427.972612 349.670514 
L 429.115387 348.847181 
L 430.258162 349.950871 
L 431.400937 348.049186 
L 432.543712 346.771449 
L 433.686487 347.02201 
L 435.972037 354.231852 
L 437.114812 352.620601 
L 438.257587 351.400009 
L 439.400362 348.049186 
L 440.543137 349.670514 
L 441.685912 349.670514 
L 442.828687 353.575291 
L 443.971462 350.520846 
L 445.114237 350.810601 
L 446.257012 348.578445 
L 447.399788 352.620601 
L 448.542563 354.90547 
L 449.685337 353.575291 
L 450.828112 349.393155 
L 451.970887 346.277476 
L 453.113662 348.578445 
L 455.399212 351.699813 
L 456.541988 350.520846 
L 457.684763 349.670514 
L 458.827537 350.810601 
L 459.970312 352.620601 
L 461.113087 353.901494 
L 462.255862 354.231852 
L 463.398637 352.934942 
L 464.541412 356.670287 
L 465.684188 355.248956 
L 466.826963 355.248956 
L 467.969737 353.25314 
L 470.255287 352.620601 
L 471.398062 351.400009 
L 472.540837 353.25314 
L 473.683612 351.699813 
L 474.826387 349.670514 
L 475.969163 346.523287 
L 477.111937 347.275015 
L 478.254712 353.25314 
L 479.397488 356.307584 
L 480.540262 360.607043 
L 481.683037 355.949885 
L 482.825812 355.597052 
L 483.968588 353.901494 
L 485.111362 354.566474 
L 486.254137 355.949885 
L 489.682463 355.949885 
L 490.825237 357.038134 
L 491.968012 357.789862 
L 493.110787 360.607043 
L 494.253563 358.959962 
L 495.396337 358.564033 
L 496.539112 353.901494 
L 497.681887 354.231852 
L 498.824662 352.620601 
L 499.967437 354.90547 
L 501.110212 352.934942 
L 502.252988 351.699813 
L 503.395762 354.231852 
L 504.538537 357.789862 
L 505.681312 363.767987 
L 506.824087 359.362029 
L 507.966863 359.362029 
L 509.109637 354.90547 
L 510.252412 353.901494 
L 511.395187 352.620601 
L 512.537963 353.25314 
L 513.680737 354.566474 
L 514.823512 355.597052 
L 515.966287 357.789862 
L 517.109062 356.307584 
L 518.251837 354.566474 
L 519.394612 355.949885 
L 520.537388 355.597052 
L 521.680162 358.174059 
L 522.822937 355.949885 
L 523.965712 356.307584 
L 525.108487 352.620601 
L 526.251262 354.90547 
L 527.394037 355.248956 
L 528.536812 357.038134 
L 529.679587 360.185362 
L 530.822363 363.767987 
L 531.965137 366.822432 
L 533.107912 359.770428 
L 534.250687 358.959962 
L 535.393462 358.959962 
L 536.536237 359.770428 
L 537.679012 357.789862 
L 538.821788 362.365873 
L 539.964562 361.914856 
L 541.107338 365.763803 
L 542.250112 359.362029 
L 543.392887 361.035694 
L 544.535662 359.362029 
L 545.678437 358.564033 
L 546.821213 358.174059 
L 549.106763 358.174059 
L 551.392312 359.770428 
L 552.535087 364.7467 
L 555.963412 358.959962 
L 557.106188 360.185362 
L 558.248962 361.914856 
L 559.391738 357.411275 
L 561.677287 353.901494 
L 562.820062 356.307584 
L 563.962837 354.231852 
L 565.105613 355.597052 
L 566.248387 358.174059 
L 567.391163 363.292143 
L 568.533937 364.7467 
L 569.676712 362.365873 
L 570.819487 361.47155 
L 571.962262 358.564033 
L 573.105037 358.174059 
L 574.247812 362.365873 
L 575.390588 365.250265 
L 576.533362 367.368406 
L 577.676138 366.287716 
L 578.818912 363.767987 
L 579.961687 365.250265 
L 581.104462 360.185362 
L 582.247237 364.7467 
L 583.390012 360.607043 
L 584.532787 365.250265 
L 585.675563 363.292143 
L 586.818337 363.767987 
L 587.961112 361.914856 
L 589.103887 363.292143 
L 591.389437 370.285276 
L 592.532213 370.285276 
L 593.674988 366.822432 
L 594.817762 364.7467 
L 595.960538 364.7467 
L 597.103312 366.287716 
L 598.246087 364.252727 
L 599.388862 362.824872 
L 600.531637 359.362029 
L 601.674412 361.914856 
L 602.817187 367.926122 
L 603.959963 379.010944 
L 605.102737 380.800123 
L 606.245512 375.765113 
L 607.388287 374.282835 
L 609.673837 370.285276 
L 610.816613 368.496097 
L 611.959387 370.285276 
L 613.102162 370.910193 
L 615.387712 368.496097 
L 616.530487 369.078881 
L 617.673262 373.572303 
L 618.816037 369.675064 
L 619.958812 364.252727 
L 621.101587 364.252727 
L 622.244363 366.822432 
L 623.387137 368.496097 
L 624.529913 366.287716 
L 625.672687 365.763803 
L 626.815462 369.675064 
L 627.958237 371.550541 
L 629.101013 377.33728 
L 630.243787 378.160612 
L 631.386562 380.800123 
L 633.672112 370.910193 
L 634.814887 367.926122 
L 635.957662 369.675064 
L 637.100437 375.765113 
L 638.243212 379.890107 
L 639.385987 375.013385 
L 640.528762 378.160612 
L 641.671537 375.013385 
L 642.814313 375.765113 
L 643.957087 370.285276 
L 645.099862 368.496097 
L 646.242637 372.207103 
L 647.385413 371.550541 
L 648.528187 374.282835 
L 649.670962 371.550541 
L 650.813738 371.550541 
L 651.956512 370.285276 
L 653.099287 372.207103 
L 654.242062 373.572303 
L 655.384838 378.160612 
L 657.670387 373.572303 
L 658.813162 372.207103 
L 659.955937 372.207103 
L 661.098713 371.550541 
L 662.241487 372.88072 
L 663.384262 375.013385 
L 664.527037 378.160612 
L 665.669813 375.013385 
L 666.812587 374.282835 
L 667.955362 379.890107 
L 670.240912 383.739054 
L 671.383687 379.010944 
L 672.526462 382.721951 
L 673.669238 388.260526 
L 674.812012 392.258086 
L 675.954788 381.743238 
L 677.097562 377.33728 
L 678.240337 370.910193 
L 679.383113 370.910193 
L 680.525887 370.285276 
L 682.811437 374.282835 
L 683.954213 373.572303 
L 685.096987 377.33728 
L 686.239762 375.765113 
L 687.382537 378.160612 
L 688.525312 375.765113 
L 689.668087 384.797683 
L 690.810862 378.160612 
L 691.953638 379.890107 
L 693.096412 367.926122 
L 694.239188 370.285276 
L 695.381962 365.763803 
L 696.524738 372.207103 
L 697.667512 372.207103 
L 698.810287 374.282835 
L 699.953062 367.368406 
L 701.095837 367.368406 
L 702.238613 371.550541 
L 703.381387 380.800123 
L 704.524163 378.160612 
L 705.666937 373.572303 
L 706.809712 367.926122 
L 707.952487 370.285276 
L 709.095262 372.207103 
L 710.238038 381.743238 
L 711.380812 377.33728 
L 712.523588 380.800123 
L 713.666362 379.010944 
L 714.809138 383.739054 
L 715.951912 375.013385 
L 717.094687 373.572303 
L 718.237462 369.078881 
L 719.380237 370.285276 
L 720.523013 367.368406 
L 721 369.114004 
L 721 369.114004 
" style="fill:none;stroke:#6b8e23;stroke-linecap:square;stroke-width:1.5;"/>
   </g>
   <g id="patch_3">
    <path d="M 17.145 402.772933 
L 17.145 13.2756 
" style="fill:none;stroke:#000000;stroke-linecap:square;stroke-linejoin:miter;stroke-width:0.8;"/>
   </g>
   <g id="patch_4">
    <path d="M 702.81 402.772933 
L 702.81 13.2756 
" style="fill:none;stroke:#000000;stroke-linecap:square;stroke-linejoin:miter;stroke-width:0.8;"/>
   </g>
   <g id="patch_5">
    <path d="M 17.145 402.772933 
L 702.81 402.772933 
" style="fill:none;stroke:#000000;stroke-linecap:square;stroke-linejoin:miter;stroke-width:0.8;"/>
   </g>
   <g id="patch_6">
    <path d="M 17.145 13.2756 
L 702.81 13.2756 
" style="fill:none;stroke:#000000;stroke-linecap:square;stroke-linejoin:miter;stroke-width:0.8;"/>
   </g>
  </g>
 </g>
 <defs>
  <clipPath id="pd371cf9e2d">
   <rect height="389.497333" width="685.665" x="17.145" y="13.2756"/>
  </clipPath>
 </defs>
</svg>
