<?xml version="1.0" encoding="utf-8" standalone="no"?>
<!DOCTYPE svg PUBLIC "-//W3C//DTD SVG 1.1//EN"
  "http://www.w3.org/Graphics/SVG/1.1/DTD/svg11.dtd">
<!-- Created with matplotlib (http://matplotlib.org/) -->
<svg height="853pt" version="1.1" viewBox="0 0 280 853" width="280pt" xmlns="http://www.w3.org/2000/svg" xmlns:xlink="http://www.w3.org/1999/xlink">
 <defs>
  <style type="text/css">
*{stroke-linecap:butt;stroke-linejoin:round;}
  </style>
 </defs>
 <g id="figure_1">
  <g id="patch_1">
   <path d="M 0 853.162375 
L 280.69375 853.162375 
L 280.69375 0 
L 0 0 
z
" style="fill:#ffffff;"/>
  </g>
  <g id="axes_1">
   <g id="patch_2">
    <path d="M 50.14375 815.606125 
L 269.99375 815.606125 
L 269.99375 22.318125 
L 50.14375 22.318125 
z
" style="fill:#ffffff;"/>
   </g>
   <g id="matplotlib.axis_1">
    <g id="xtick_1">
     <g id="line2d_1">
      <defs>
       <path d="M 0 0 
L 0 3.5 
" id="med88810e6b" style="stroke:#000000;stroke-width:0.8;"/>
      </defs>
      <g>
       <use style="stroke:#000000;stroke-width:0.8;" x="60.204365" xlink:href="#med88810e6b" y="815.606125"/>
      </g>
     </g>
     <g id="text_1">
      <!-- $\mathdefault{10^{-4}}$ -->
      <defs>
       <path d="M 12.40625 8.296875 
L 28.515625 8.296875 
L 28.515625 63.921875 
L 10.984375 60.40625 
L 10.984375 69.390625 
L 28.421875 72.90625 
L 38.28125 72.90625 
L 38.28125 8.296875 
L 54.390625 8.296875 
L 54.390625 0 
L 12.40625 0 
z
" id="DejaVuSans-31"/>
       <path d="M 31.78125 66.40625 
Q 24.171875 66.40625 20.328125 58.90625 
Q 16.5 51.421875 16.5 36.375 
Q 16.5 21.390625 20.328125 13.890625 
Q 24.171875 6.390625 31.78125 6.390625 
Q 39.453125 6.390625 43.28125 13.890625 
Q 47.125 21.390625 47.125 36.375 
Q 47.125 51.421875 43.28125 58.90625 
Q 39.453125 66.40625 31.78125 66.40625 
z
M 31.78125 74.21875 
Q 44.046875 74.21875 50.515625 64.515625 
Q 56.984375 54.828125 56.984375 36.375 
Q 56.984375 17.96875 50.515625 8.265625 
Q 44.046875 -1.421875 31.78125 -1.421875 
Q 19.53125 -1.421875 13.0625 8.265625 
Q 6.59375 17.96875 6.59375 36.375 
Q 6.59375 54.828125 13.0625 64.515625 
Q 19.53125 74.21875 31.78125 74.21875 
z
" id="DejaVuSans-30"/>
       <path d="M 10.59375 35.5 
L 73.1875 35.5 
L 73.1875 27.203125 
L 10.59375 27.203125 
z
" id="DejaVuSans-2212"/>
       <path d="M 37.796875 64.3125 
L 12.890625 25.390625 
L 37.796875 25.390625 
z
M 35.203125 72.90625 
L 47.609375 72.90625 
L 47.609375 25.390625 
L 58.015625 25.390625 
L 58.015625 17.1875 
L 47.609375 17.1875 
L 47.609375 0 
L 37.796875 0 
L 37.796875 17.1875 
L 4.890625 17.1875 
L 4.890625 26.703125 
z
" id="DejaVuSans-34"/>
      </defs>
      <g transform="translate(48.454365 830.204562)scale(0.1 -0.1)">
       <use transform="translate(0 0.684375)" xlink:href="#DejaVuSans-31"/>
       <use transform="translate(63.623047 0.684375)" xlink:href="#DejaVuSans-30"/>
       <use transform="translate(128.203125 38.965625)scale(0.7)" xlink:href="#DejaVuSans-2212"/>
       <use transform="translate(186.855469 38.965625)scale(0.7)" xlink:href="#DejaVuSans-34"/>
      </g>
     </g>
    </g>
    <g id="xtick_2">
     <g id="line2d_2">
      <g>
       <use style="stroke:#000000;stroke-width:0.8;" x="100.163606" xlink:href="#med88810e6b" y="815.606125"/>
      </g>
     </g>
     <g id="text_2">
      <!-- $\mathdefault{10^{-3}}$ -->
      <defs>
       <path d="M 40.578125 39.3125 
Q 47.65625 37.796875 51.625 33 
Q 55.609375 28.21875 55.609375 21.1875 
Q 55.609375 10.40625 48.1875 4.484375 
Q 40.765625 -1.421875 27.09375 -1.421875 
Q 22.515625 -1.421875 17.65625 -0.515625 
Q 12.796875 0.390625 7.625 2.203125 
L 7.625 11.71875 
Q 11.71875 9.328125 16.59375 8.109375 
Q 21.484375 6.890625 26.8125 6.890625 
Q 36.078125 6.890625 40.9375 10.546875 
Q 45.796875 14.203125 45.796875 21.1875 
Q 45.796875 27.640625 41.28125 31.265625 
Q 36.765625 34.90625 28.71875 34.90625 
L 20.21875 34.90625 
L 20.21875 43.015625 
L 29.109375 43.015625 
Q 36.375 43.015625 40.234375 45.921875 
Q 44.09375 48.828125 44.09375 54.296875 
Q 44.09375 59.90625 40.109375 62.90625 
Q 36.140625 65.921875 28.71875 65.921875 
Q 24.65625 65.921875 20.015625 65.03125 
Q 15.375 64.15625 9.8125 62.3125 
L 9.8125 71.09375 
Q 15.4375 72.65625 20.34375 73.4375 
Q 25.25 74.21875 29.59375 74.21875 
Q 40.828125 74.21875 47.359375 69.109375 
Q 53.90625 64.015625 53.90625 55.328125 
Q 53.90625 49.265625 50.4375 45.09375 
Q 46.96875 40.921875 40.578125 39.3125 
z
" id="DejaVuSans-33"/>
      </defs>
      <g transform="translate(88.413606 830.204562)scale(0.1 -0.1)">
       <use transform="translate(0 0.765625)" xlink:href="#DejaVuSans-31"/>
       <use transform="translate(63.623047 0.765625)" xlink:href="#DejaVuSans-30"/>
       <use transform="translate(128.203125 39.046875)scale(0.7)" xlink:href="#DejaVuSans-2212"/>
       <use transform="translate(186.855469 39.046875)scale(0.7)" xlink:href="#DejaVuSans-33"/>
      </g>
     </g>
    </g>
    <g id="xtick_3">
     <g id="line2d_3">
      <g>
       <use style="stroke:#000000;stroke-width:0.8;" x="140.122846" xlink:href="#med88810e6b" y="815.606125"/>
      </g>
     </g>
     <g id="text_3">
      <!-- $\mathdefault{10^{-2}}$ -->
      <defs>
       <path d="M 19.1875 8.296875 
L 53.609375 8.296875 
L 53.609375 0 
L 7.328125 0 
L 7.328125 8.296875 
Q 12.9375 14.109375 22.625 23.890625 
Q 32.328125 33.6875 34.8125 36.53125 
Q 39.546875 41.84375 41.421875 45.53125 
Q 43.3125 49.21875 43.3125 52.78125 
Q 43.3125 58.59375 39.234375 62.25 
Q 35.15625 65.921875 28.609375 65.921875 
Q 23.96875 65.921875 18.8125 64.3125 
Q 13.671875 62.703125 7.8125 59.421875 
L 7.8125 69.390625 
Q 13.765625 71.78125 18.9375 73 
Q 24.125 74.21875 28.421875 74.21875 
Q 39.75 74.21875 46.484375 68.546875 
Q 53.21875 62.890625 53.21875 53.421875 
Q 53.21875 48.921875 51.53125 44.890625 
Q 49.859375 40.875 45.40625 35.40625 
Q 44.1875 33.984375 37.640625 27.21875 
Q 31.109375 20.453125 19.1875 8.296875 
z
" id="DejaVuSans-32"/>
      </defs>
      <g transform="translate(128.372846 830.204562)scale(0.1 -0.1)">
       <use transform="translate(0 0.765625)" xlink:href="#DejaVuSans-31"/>
       <use transform="translate(63.623047 0.765625)" xlink:href="#DejaVuSans-30"/>
       <use transform="translate(128.203125 39.046875)scale(0.7)" xlink:href="#DejaVuSans-2212"/>
       <use transform="translate(186.855469 39.046875)scale(0.7)" xlink:href="#DejaVuSans-32"/>
      </g>
     </g>
    </g>
    <g id="xtick_4">
     <g id="line2d_4">
      <g>
       <use style="stroke:#000000;stroke-width:0.8;" x="180.082087" xlink:href="#med88810e6b" y="815.606125"/>
      </g>
     </g>
     <g id="text_4">
      <!-- $\mathdefault{10^{-1}}$ -->
      <g transform="translate(168.332087 830.204562)scale(0.1 -0.1)">
       <use transform="translate(0 0.684375)" xlink:href="#DejaVuSans-31"/>
       <use transform="translate(63.623047 0.684375)" xlink:href="#DejaVuSans-30"/>
       <use transform="translate(128.203125 38.965625)scale(0.7)" xlink:href="#DejaVuSans-2212"/>
       <use transform="translate(186.855469 38.965625)scale(0.7)" xlink:href="#DejaVuSans-31"/>
      </g>
     </g>
    </g>
    <g id="xtick_5">
     <g id="line2d_5">
      <g>
       <use style="stroke:#000000;stroke-width:0.8;" x="220.041328" xlink:href="#med88810e6b" y="815.606125"/>
      </g>
     </g>
     <g id="text_5">
      <!-- $\mathdefault{10^{0}}$ -->
      <g transform="translate(211.241328 830.204562)scale(0.1 -0.1)">
       <use transform="translate(0 0.765625)" xlink:href="#DejaVuSans-31"/>
       <use transform="translate(63.623047 0.765625)" xlink:href="#DejaVuSans-30"/>
       <use transform="translate(128.203125 39.046875)scale(0.7)" xlink:href="#DejaVuSans-30"/>
      </g>
     </g>
    </g>
    <g id="xtick_6">
     <g id="line2d_6">
      <g>
       <use style="stroke:#000000;stroke-width:0.8;" x="260.000568" xlink:href="#med88810e6b" y="815.606125"/>
      </g>
     </g>
     <g id="text_6">
      <!-- $\mathdefault{10^{1}}$ -->
      <g transform="translate(251.200568 830.204562)scale(0.1 -0.1)">
       <use transform="translate(0 0.684375)" xlink:href="#DejaVuSans-31"/>
       <use transform="translate(63.623047 0.684375)" xlink:href="#DejaVuSans-30"/>
       <use transform="translate(128.203125 38.965625)scale(0.7)" xlink:href="#DejaVuSans-31"/>
      </g>
     </g>
    </g>
    <g id="xtick_7">
     <g id="line2d_7">
      <defs>
       <path d="M 0 0 
L 0 2 
" id="mbbdef0b48e" style="stroke:#000000;stroke-width:0.6;"/>
      </defs>
      <g>
       <use style="stroke:#000000;stroke-width:0.6;" x="51.339457" xlink:href="#mbbdef0b48e" y="815.606125"/>
      </g>
     </g>
    </g>
    <g id="xtick_8">
     <g id="line2d_8">
      <g>
       <use style="stroke:#000000;stroke-width:0.6;" x="54.0146" xlink:href="#mbbdef0b48e" y="815.606125"/>
      </g>
     </g>
    </g>
    <g id="xtick_9">
     <g id="line2d_9">
      <g>
       <use style="stroke:#000000;stroke-width:0.6;" x="56.331914" xlink:href="#mbbdef0b48e" y="815.606125"/>
      </g>
     </g>
    </g>
    <g id="xtick_10">
     <g id="line2d_10">
      <g>
       <use style="stroke:#000000;stroke-width:0.6;" x="58.37593" xlink:href="#mbbdef0b48e" y="815.606125"/>
      </g>
     </g>
    </g>
    <g id="xtick_11">
     <g id="line2d_11">
      <g>
       <use style="stroke:#000000;stroke-width:0.6;" x="72.233295" xlink:href="#mbbdef0b48e" y="815.606125"/>
      </g>
     </g>
    </g>
    <g id="xtick_12">
     <g id="line2d_12">
      <g>
       <use style="stroke:#000000;stroke-width:0.6;" x="79.269768" xlink:href="#mbbdef0b48e" y="815.606125"/>
      </g>
     </g>
    </g>
    <g id="xtick_13">
     <g id="line2d_13">
      <g>
       <use style="stroke:#000000;stroke-width:0.6;" x="84.262225" xlink:href="#mbbdef0b48e" y="815.606125"/>
      </g>
     </g>
    </g>
    <g id="xtick_14">
     <g id="line2d_14">
      <g>
       <use style="stroke:#000000;stroke-width:0.6;" x="88.134676" xlink:href="#mbbdef0b48e" y="815.606125"/>
      </g>
     </g>
    </g>
    <g id="xtick_15">
     <g id="line2d_15">
      <g>
       <use style="stroke:#000000;stroke-width:0.6;" x="91.298698" xlink:href="#mbbdef0b48e" y="815.606125"/>
      </g>
     </g>
    </g>
    <g id="xtick_16">
     <g id="line2d_16">
      <g>
       <use style="stroke:#000000;stroke-width:0.6;" x="93.973841" xlink:href="#mbbdef0b48e" y="815.606125"/>
      </g>
     </g>
    </g>
    <g id="xtick_17">
     <g id="line2d_17">
      <g>
       <use style="stroke:#000000;stroke-width:0.6;" x="96.291155" xlink:href="#mbbdef0b48e" y="815.606125"/>
      </g>
     </g>
    </g>
    <g id="xtick_18">
     <g id="line2d_18">
      <g>
       <use style="stroke:#000000;stroke-width:0.6;" x="98.335171" xlink:href="#mbbdef0b48e" y="815.606125"/>
      </g>
     </g>
    </g>
    <g id="xtick_19">
     <g id="line2d_19">
      <g>
       <use style="stroke:#000000;stroke-width:0.6;" x="112.192536" xlink:href="#mbbdef0b48e" y="815.606125"/>
      </g>
     </g>
    </g>
    <g id="xtick_20">
     <g id="line2d_20">
      <g>
       <use style="stroke:#000000;stroke-width:0.6;" x="119.229009" xlink:href="#mbbdef0b48e" y="815.606125"/>
      </g>
     </g>
    </g>
    <g id="xtick_21">
     <g id="line2d_21">
      <g>
       <use style="stroke:#000000;stroke-width:0.6;" x="124.221466" xlink:href="#mbbdef0b48e" y="815.606125"/>
      </g>
     </g>
    </g>
    <g id="xtick_22">
     <g id="line2d_22">
      <g>
       <use style="stroke:#000000;stroke-width:0.6;" x="128.093916" xlink:href="#mbbdef0b48e" y="815.606125"/>
      </g>
     </g>
    </g>
    <g id="xtick_23">
     <g id="line2d_23">
      <g>
       <use style="stroke:#000000;stroke-width:0.6;" x="131.257939" xlink:href="#mbbdef0b48e" y="815.606125"/>
      </g>
     </g>
    </g>
    <g id="xtick_24">
     <g id="line2d_24">
      <g>
       <use style="stroke:#000000;stroke-width:0.6;" x="133.933082" xlink:href="#mbbdef0b48e" y="815.606125"/>
      </g>
     </g>
    </g>
    <g id="xtick_25">
     <g id="line2d_25">
      <g>
       <use style="stroke:#000000;stroke-width:0.6;" x="136.250396" xlink:href="#mbbdef0b48e" y="815.606125"/>
      </g>
     </g>
    </g>
    <g id="xtick_26">
     <g id="line2d_26">
      <g>
       <use style="stroke:#000000;stroke-width:0.6;" x="138.294412" xlink:href="#mbbdef0b48e" y="815.606125"/>
      </g>
     </g>
    </g>
    <g id="xtick_27">
     <g id="line2d_27">
      <g>
       <use style="stroke:#000000;stroke-width:0.6;" x="152.151776" xlink:href="#mbbdef0b48e" y="815.606125"/>
      </g>
     </g>
    </g>
    <g id="xtick_28">
     <g id="line2d_28">
      <g>
       <use style="stroke:#000000;stroke-width:0.6;" x="159.188249" xlink:href="#mbbdef0b48e" y="815.606125"/>
      </g>
     </g>
    </g>
    <g id="xtick_29">
     <g id="line2d_29">
      <g>
       <use style="stroke:#000000;stroke-width:0.6;" x="164.180706" xlink:href="#mbbdef0b48e" y="815.606125"/>
      </g>
     </g>
    </g>
    <g id="xtick_30">
     <g id="line2d_30">
      <g>
       <use style="stroke:#000000;stroke-width:0.6;" x="168.053157" xlink:href="#mbbdef0b48e" y="815.606125"/>
      </g>
     </g>
    </g>
    <g id="xtick_31">
     <g id="line2d_31">
      <g>
       <use style="stroke:#000000;stroke-width:0.6;" x="171.217179" xlink:href="#mbbdef0b48e" y="815.606125"/>
      </g>
     </g>
    </g>
    <g id="xtick_32">
     <g id="line2d_32">
      <g>
       <use style="stroke:#000000;stroke-width:0.6;" x="173.892322" xlink:href="#mbbdef0b48e" y="815.606125"/>
      </g>
     </g>
    </g>
    <g id="xtick_33">
     <g id="line2d_33">
      <g>
       <use style="stroke:#000000;stroke-width:0.6;" x="176.209636" xlink:href="#mbbdef0b48e" y="815.606125"/>
      </g>
     </g>
    </g>
    <g id="xtick_34">
     <g id="line2d_34">
      <g>
       <use style="stroke:#000000;stroke-width:0.6;" x="178.253652" xlink:href="#mbbdef0b48e" y="815.606125"/>
      </g>
     </g>
    </g>
    <g id="xtick_35">
     <g id="line2d_35">
      <g>
       <use style="stroke:#000000;stroke-width:0.6;" x="192.111017" xlink:href="#mbbdef0b48e" y="815.606125"/>
      </g>
     </g>
    </g>
    <g id="xtick_36">
     <g id="line2d_36">
      <g>
       <use style="stroke:#000000;stroke-width:0.6;" x="199.14749" xlink:href="#mbbdef0b48e" y="815.606125"/>
      </g>
     </g>
    </g>
    <g id="xtick_37">
     <g id="line2d_37">
      <g>
       <use style="stroke:#000000;stroke-width:0.6;" x="204.139947" xlink:href="#mbbdef0b48e" y="815.606125"/>
      </g>
     </g>
    </g>
    <g id="xtick_38">
     <g id="line2d_38">
      <g>
       <use style="stroke:#000000;stroke-width:0.6;" x="208.012398" xlink:href="#mbbdef0b48e" y="815.606125"/>
      </g>
     </g>
    </g>
    <g id="xtick_39">
     <g id="line2d_39">
      <g>
       <use style="stroke:#000000;stroke-width:0.6;" x="211.17642" xlink:href="#mbbdef0b48e" y="815.606125"/>
      </g>
     </g>
    </g>
    <g id="xtick_40">
     <g id="line2d_40">
      <g>
       <use style="stroke:#000000;stroke-width:0.6;" x="213.851563" xlink:href="#mbbdef0b48e" y="815.606125"/>
      </g>
     </g>
    </g>
    <g id="xtick_41">
     <g id="line2d_41">
      <g>
       <use style="stroke:#000000;stroke-width:0.6;" x="216.168877" xlink:href="#mbbdef0b48e" y="815.606125"/>
      </g>
     </g>
    </g>
    <g id="xtick_42">
     <g id="line2d_42">
      <g>
       <use style="stroke:#000000;stroke-width:0.6;" x="218.212893" xlink:href="#mbbdef0b48e" y="815.606125"/>
      </g>
     </g>
    </g>
    <g id="xtick_43">
     <g id="line2d_43">
      <g>
       <use style="stroke:#000000;stroke-width:0.6;" x="232.070258" xlink:href="#mbbdef0b48e" y="815.606125"/>
      </g>
     </g>
    </g>
    <g id="xtick_44">
     <g id="line2d_44">
      <g>
       <use style="stroke:#000000;stroke-width:0.6;" x="239.106731" xlink:href="#mbbdef0b48e" y="815.606125"/>
      </g>
     </g>
    </g>
    <g id="xtick_45">
     <g id="line2d_45">
      <g>
       <use style="stroke:#000000;stroke-width:0.6;" x="244.099188" xlink:href="#mbbdef0b48e" y="815.606125"/>
      </g>
     </g>
    </g>
    <g id="xtick_46">
     <g id="line2d_46">
      <g>
       <use style="stroke:#000000;stroke-width:0.6;" x="247.971638" xlink:href="#mbbdef0b48e" y="815.606125"/>
      </g>
     </g>
    </g>
    <g id="xtick_47">
     <g id="line2d_47">
      <g>
       <use style="stroke:#000000;stroke-width:0.6;" x="251.135661" xlink:href="#mbbdef0b48e" y="815.606125"/>
      </g>
     </g>
    </g>
    <g id="xtick_48">
     <g id="line2d_48">
      <g>
       <use style="stroke:#000000;stroke-width:0.6;" x="253.810803" xlink:href="#mbbdef0b48e" y="815.606125"/>
      </g>
     </g>
    </g>
    <g id="xtick_49">
     <g id="line2d_49">
      <g>
       <use style="stroke:#000000;stroke-width:0.6;" x="256.128118" xlink:href="#mbbdef0b48e" y="815.606125"/>
      </g>
     </g>
    </g>
    <g id="xtick_50">
     <g id="line2d_50">
      <g>
       <use style="stroke:#000000;stroke-width:0.6;" x="258.172134" xlink:href="#mbbdef0b48e" y="815.606125"/>
      </g>
     </g>
    </g>
    <g id="text_7">
     <!-- Intensity -->
     <defs>
      <path d="M 9.8125 72.90625 
L 19.671875 72.90625 
L 19.671875 0 
L 9.8125 0 
z
" id="DejaVuSans-49"/>
      <path d="M 54.890625 33.015625 
L 54.890625 0 
L 45.90625 0 
L 45.90625 32.71875 
Q 45.90625 40.484375 42.875 44.328125 
Q 39.84375 48.1875 33.796875 48.1875 
Q 26.515625 48.1875 22.3125 43.546875 
Q 18.109375 38.921875 18.109375 30.90625 
L 18.109375 0 
L 9.078125 0 
L 9.078125 54.6875 
L 18.109375 54.6875 
L 18.109375 46.1875 
Q 21.34375 51.125 25.703125 53.5625 
Q 30.078125 56 35.796875 56 
Q 45.21875 56 50.046875 50.171875 
Q 54.890625 44.34375 54.890625 33.015625 
z
" id="DejaVuSans-6e"/>
      <path d="M 18.3125 70.21875 
L 18.3125 54.6875 
L 36.8125 54.6875 
L 36.8125 47.703125 
L 18.3125 47.703125 
L 18.3125 18.015625 
Q 18.3125 11.328125 20.140625 9.421875 
Q 21.96875 7.515625 27.59375 7.515625 
L 36.8125 7.515625 
L 36.8125 0 
L 27.59375 0 
Q 17.1875 0 13.234375 3.875 
Q 9.28125 7.765625 9.28125 18.015625 
L 9.28125 47.703125 
L 2.6875 47.703125 
L 2.6875 54.6875 
L 9.28125 54.6875 
L 9.28125 70.21875 
z
" id="DejaVuSans-74"/>
      <path d="M 56.203125 29.59375 
L 56.203125 25.203125 
L 14.890625 25.203125 
Q 15.484375 15.921875 20.484375 11.0625 
Q 25.484375 6.203125 34.421875 6.203125 
Q 39.59375 6.203125 44.453125 7.46875 
Q 49.3125 8.734375 54.109375 11.28125 
L 54.109375 2.78125 
Q 49.265625 0.734375 44.1875 -0.34375 
Q 39.109375 -1.421875 33.890625 -1.421875 
Q 20.796875 -1.421875 13.15625 6.1875 
Q 5.515625 13.8125 5.515625 26.8125 
Q 5.515625 40.234375 12.765625 48.109375 
Q 20.015625 56 32.328125 56 
Q 43.359375 56 49.78125 48.890625 
Q 56.203125 41.796875 56.203125 29.59375 
z
M 47.21875 32.234375 
Q 47.125 39.59375 43.09375 43.984375 
Q 39.0625 48.390625 32.421875 48.390625 
Q 24.90625 48.390625 20.390625 44.140625 
Q 15.875 39.890625 15.1875 32.171875 
z
" id="DejaVuSans-65"/>
      <path d="M 44.28125 53.078125 
L 44.28125 44.578125 
Q 40.484375 46.53125 36.375 47.5 
Q 32.28125 48.484375 27.875 48.484375 
Q 21.1875 48.484375 17.84375 46.4375 
Q 14.5 44.390625 14.5 40.28125 
Q 14.5 37.15625 16.890625 35.375 
Q 19.28125 33.59375 26.515625 31.984375 
L 29.59375 31.296875 
Q 39.15625 29.25 43.1875 25.515625 
Q 47.21875 21.78125 47.21875 15.09375 
Q 47.21875 7.46875 41.1875 3.015625 
Q 35.15625 -1.421875 24.609375 -1.421875 
Q 20.21875 -1.421875 15.453125 -0.5625 
Q 10.6875 0.296875 5.421875 2 
L 5.421875 11.28125 
Q 10.40625 8.6875 15.234375 7.390625 
Q 20.0625 6.109375 24.8125 6.109375 
Q 31.15625 6.109375 34.5625 8.28125 
Q 37.984375 10.453125 37.984375 14.40625 
Q 37.984375 18.0625 35.515625 20.015625 
Q 33.0625 21.96875 24.703125 23.78125 
L 21.578125 24.515625 
Q 13.234375 26.265625 9.515625 29.90625 
Q 5.8125 33.546875 5.8125 39.890625 
Q 5.8125 47.609375 11.28125 51.796875 
Q 16.75 56 26.8125 56 
Q 31.78125 56 36.171875 55.265625 
Q 40.578125 54.546875 44.28125 53.078125 
z
" id="DejaVuSans-73"/>
      <path d="M 9.421875 54.6875 
L 18.40625 54.6875 
L 18.40625 0 
L 9.421875 0 
z
M 9.421875 75.984375 
L 18.40625 75.984375 
L 18.40625 64.59375 
L 9.421875 64.59375 
z
" id="DejaVuSans-69"/>
      <path d="M 32.171875 -5.078125 
Q 28.375 -14.84375 24.75 -17.8125 
Q 21.140625 -20.796875 15.09375 -20.796875 
L 7.90625 -20.796875 
L 7.90625 -13.28125 
L 13.1875 -13.28125 
Q 16.890625 -13.28125 18.9375 -11.515625 
Q 21 -9.765625 23.484375 -3.21875 
L 25.09375 0.875 
L 2.984375 54.6875 
L 12.5 54.6875 
L 29.59375 11.921875 
L 46.6875 54.6875 
L 56.203125 54.6875 
z
" id="DejaVuSans-79"/>
     </defs>
     <g transform="translate(138.30625 843.882687)scale(0.1 -0.1)">
      <use xlink:href="#DejaVuSans-49"/>
      <use x="29.492188" xlink:href="#DejaVuSans-6e"/>
      <use x="92.871094" xlink:href="#DejaVuSans-74"/>
      <use x="132.080078" xlink:href="#DejaVuSans-65"/>
      <use x="193.603516" xlink:href="#DejaVuSans-6e"/>
      <use x="256.982422" xlink:href="#DejaVuSans-73"/>
      <use x="309.082031" xlink:href="#DejaVuSans-69"/>
      <use x="336.865234" xlink:href="#DejaVuSans-74"/>
      <use x="376.074219" xlink:href="#DejaVuSans-79"/>
     </g>
    </g>
   </g>
   <g id="matplotlib.axis_2">
    <g id="ytick_1">
     <g id="line2d_51">
      <defs>
       <path d="M 0 0 
L -3.5 0 
" id="me61e095c6d" style="stroke:#000000;stroke-width:0.8;"/>
      </defs>
      <g>
       <use style="stroke:#000000;stroke-width:0.8;" x="50.14375" xlink:href="#me61e095c6d" y="815.606125"/>
      </g>
     </g>
     <g id="text_8">
      <!-- 2.60 -->
      <defs>
       <path d="M 10.6875 12.40625 
L 21 12.40625 
L 21 0 
L 10.6875 0 
z
" id="DejaVuSans-2e"/>
       <path d="M 33.015625 40.375 
Q 26.375 40.375 22.484375 35.828125 
Q 18.609375 31.296875 18.609375 23.390625 
Q 18.609375 15.53125 22.484375 10.953125 
Q 26.375 6.390625 33.015625 6.390625 
Q 39.65625 6.390625 43.53125 10.953125 
Q 47.40625 15.53125 47.40625 23.390625 
Q 47.40625 31.296875 43.53125 35.828125 
Q 39.65625 40.375 33.015625 40.375 
z
M 52.59375 71.296875 
L 52.59375 62.3125 
Q 48.875 64.0625 45.09375 64.984375 
Q 41.3125 65.921875 37.59375 65.921875 
Q 27.828125 65.921875 22.671875 59.328125 
Q 17.53125 52.734375 16.796875 39.40625 
Q 19.671875 43.65625 24.015625 45.921875 
Q 28.375 48.1875 33.59375 48.1875 
Q 44.578125 48.1875 50.953125 41.515625 
Q 57.328125 34.859375 57.328125 23.390625 
Q 57.328125 12.15625 50.6875 5.359375 
Q 44.046875 -1.421875 33.015625 -1.421875 
Q 20.359375 -1.421875 13.671875 8.265625 
Q 6.984375 17.96875 6.984375 36.375 
Q 6.984375 53.65625 15.1875 63.9375 
Q 23.390625 74.21875 37.203125 74.21875 
Q 40.921875 74.21875 44.703125 73.484375 
Q 48.484375 72.75 52.59375 71.296875 
z
" id="DejaVuSans-36"/>
      </defs>
      <g transform="translate(20.878125 819.405344)scale(0.1 -0.1)">
       <use xlink:href="#DejaVuSans-32"/>
       <use x="63.623047" xlink:href="#DejaVuSans-2e"/>
       <use x="95.410156" xlink:href="#DejaVuSans-36"/>
       <use x="159.033203" xlink:href="#DejaVuSans-30"/>
      </g>
     </g>
    </g>
    <g id="ytick_2">
     <g id="line2d_52">
      <g>
       <use style="stroke:#000000;stroke-width:0.8;" x="50.14375" xlink:href="#me61e095c6d" y="727.463014"/>
      </g>
     </g>
     <g id="text_9">
      <!-- 2.65 -->
      <defs>
       <path d="M 10.796875 72.90625 
L 49.515625 72.90625 
L 49.515625 64.59375 
L 19.828125 64.59375 
L 19.828125 46.734375 
Q 21.96875 47.46875 24.109375 47.828125 
Q 26.265625 48.1875 28.421875 48.1875 
Q 40.625 48.1875 47.75 41.5 
Q 54.890625 34.8125 54.890625 23.390625 
Q 54.890625 11.625 47.5625 5.09375 
Q 40.234375 -1.421875 26.90625 -1.421875 
Q 22.3125 -1.421875 17.546875 -0.640625 
Q 12.796875 0.140625 7.71875 1.703125 
L 7.71875 11.625 
Q 12.109375 9.234375 16.796875 8.0625 
Q 21.484375 6.890625 26.703125 6.890625 
Q 35.15625 6.890625 40.078125 11.328125 
Q 45.015625 15.765625 45.015625 23.390625 
Q 45.015625 31 40.078125 35.4375 
Q 35.15625 39.890625 26.703125 39.890625 
Q 22.75 39.890625 18.8125 39.015625 
Q 14.890625 38.140625 10.796875 36.28125 
z
" id="DejaVuSans-35"/>
      </defs>
      <g transform="translate(20.878125 731.262233)scale(0.1 -0.1)">
       <use xlink:href="#DejaVuSans-32"/>
       <use x="63.623047" xlink:href="#DejaVuSans-2e"/>
       <use x="95.410156" xlink:href="#DejaVuSans-36"/>
       <use x="159.033203" xlink:href="#DejaVuSans-35"/>
      </g>
     </g>
    </g>
    <g id="ytick_3">
     <g id="line2d_53">
      <g>
       <use style="stroke:#000000;stroke-width:0.8;" x="50.14375" xlink:href="#me61e095c6d" y="639.319903"/>
      </g>
     </g>
     <g id="text_10">
      <!-- 2.70 -->
      <defs>
       <path d="M 8.203125 72.90625 
L 55.078125 72.90625 
L 55.078125 68.703125 
L 28.609375 0 
L 18.3125 0 
L 43.21875 64.59375 
L 8.203125 64.59375 
z
" id="DejaVuSans-37"/>
      </defs>
      <g transform="translate(20.878125 643.119122)scale(0.1 -0.1)">
       <use xlink:href="#DejaVuSans-32"/>
       <use x="63.623047" xlink:href="#DejaVuSans-2e"/>
       <use x="95.410156" xlink:href="#DejaVuSans-37"/>
       <use x="159.033203" xlink:href="#DejaVuSans-30"/>
      </g>
     </g>
    </g>
    <g id="ytick_4">
     <g id="line2d_54">
      <g>
       <use style="stroke:#000000;stroke-width:0.8;" x="50.14375" xlink:href="#me61e095c6d" y="551.176792"/>
      </g>
     </g>
     <g id="text_11">
      <!-- 2.75 -->
      <g transform="translate(20.878125 554.97601)scale(0.1 -0.1)">
       <use xlink:href="#DejaVuSans-32"/>
       <use x="63.623047" xlink:href="#DejaVuSans-2e"/>
       <use x="95.410156" xlink:href="#DejaVuSans-37"/>
       <use x="159.033203" xlink:href="#DejaVuSans-35"/>
      </g>
     </g>
    </g>
    <g id="ytick_5">
     <g id="line2d_55">
      <g>
       <use style="stroke:#000000;stroke-width:0.8;" x="50.14375" xlink:href="#me61e095c6d" y="463.033681"/>
      </g>
     </g>
     <g id="text_12">
      <!-- 2.80 -->
      <defs>
       <path d="M 31.78125 34.625 
Q 24.75 34.625 20.71875 30.859375 
Q 16.703125 27.09375 16.703125 20.515625 
Q 16.703125 13.921875 20.71875 10.15625 
Q 24.75 6.390625 31.78125 6.390625 
Q 38.8125 6.390625 42.859375 10.171875 
Q 46.921875 13.96875 46.921875 20.515625 
Q 46.921875 27.09375 42.890625 30.859375 
Q 38.875 34.625 31.78125 34.625 
z
M 21.921875 38.8125 
Q 15.578125 40.375 12.03125 44.71875 
Q 8.5 49.078125 8.5 55.328125 
Q 8.5 64.0625 14.71875 69.140625 
Q 20.953125 74.21875 31.78125 74.21875 
Q 42.671875 74.21875 48.875 69.140625 
Q 55.078125 64.0625 55.078125 55.328125 
Q 55.078125 49.078125 51.53125 44.71875 
Q 48 40.375 41.703125 38.8125 
Q 48.828125 37.15625 52.796875 32.3125 
Q 56.78125 27.484375 56.78125 20.515625 
Q 56.78125 9.90625 50.3125 4.234375 
Q 43.84375 -1.421875 31.78125 -1.421875 
Q 19.734375 -1.421875 13.25 4.234375 
Q 6.78125 9.90625 6.78125 20.515625 
Q 6.78125 27.484375 10.78125 32.3125 
Q 14.796875 37.15625 21.921875 38.8125 
z
M 18.3125 54.390625 
Q 18.3125 48.734375 21.84375 45.5625 
Q 25.390625 42.390625 31.78125 42.390625 
Q 38.140625 42.390625 41.71875 45.5625 
Q 45.3125 48.734375 45.3125 54.390625 
Q 45.3125 60.0625 41.71875 63.234375 
Q 38.140625 66.40625 31.78125 66.40625 
Q 25.390625 66.40625 21.84375 63.234375 
Q 18.3125 60.0625 18.3125 54.390625 
z
" id="DejaVuSans-38"/>
      </defs>
      <g transform="translate(20.878125 466.832899)scale(0.1 -0.1)">
       <use xlink:href="#DejaVuSans-32"/>
       <use x="63.623047" xlink:href="#DejaVuSans-2e"/>
       <use x="95.410156" xlink:href="#DejaVuSans-38"/>
       <use x="159.033203" xlink:href="#DejaVuSans-30"/>
      </g>
     </g>
    </g>
    <g id="ytick_6">
     <g id="line2d_56">
      <g>
       <use style="stroke:#000000;stroke-width:0.8;" x="50.14375" xlink:href="#me61e095c6d" y="374.890569"/>
      </g>
     </g>
     <g id="text_13">
      <!-- 2.85 -->
      <g transform="translate(20.878125 378.689788)scale(0.1 -0.1)">
       <use xlink:href="#DejaVuSans-32"/>
       <use x="63.623047" xlink:href="#DejaVuSans-2e"/>
       <use x="95.410156" xlink:href="#DejaVuSans-38"/>
       <use x="159.033203" xlink:href="#DejaVuSans-35"/>
      </g>
     </g>
    </g>
    <g id="ytick_7">
     <g id="line2d_57">
      <g>
       <use style="stroke:#000000;stroke-width:0.8;" x="50.14375" xlink:href="#me61e095c6d" y="286.747458"/>
      </g>
     </g>
     <g id="text_14">
      <!-- 2.90 -->
      <defs>
       <path d="M 10.984375 1.515625 
L 10.984375 10.5 
Q 14.703125 8.734375 18.5 7.8125 
Q 22.3125 6.890625 25.984375 6.890625 
Q 35.75 6.890625 40.890625 13.453125 
Q 46.046875 20.015625 46.78125 33.40625 
Q 43.953125 29.203125 39.59375 26.953125 
Q 35.25 24.703125 29.984375 24.703125 
Q 19.046875 24.703125 12.671875 31.3125 
Q 6.296875 37.9375 6.296875 49.421875 
Q 6.296875 60.640625 12.9375 67.421875 
Q 19.578125 74.21875 30.609375 74.21875 
Q 43.265625 74.21875 49.921875 64.515625 
Q 56.59375 54.828125 56.59375 36.375 
Q 56.59375 19.140625 48.40625 8.859375 
Q 40.234375 -1.421875 26.421875 -1.421875 
Q 22.703125 -1.421875 18.890625 -0.6875 
Q 15.09375 0.046875 10.984375 1.515625 
z
M 30.609375 32.421875 
Q 37.25 32.421875 41.125 36.953125 
Q 45.015625 41.5 45.015625 49.421875 
Q 45.015625 57.28125 41.125 61.84375 
Q 37.25 66.40625 30.609375 66.40625 
Q 23.96875 66.40625 20.09375 61.84375 
Q 16.21875 57.28125 16.21875 49.421875 
Q 16.21875 41.5 20.09375 36.953125 
Q 23.96875 32.421875 30.609375 32.421875 
z
" id="DejaVuSans-39"/>
      </defs>
      <g transform="translate(20.878125 290.546677)scale(0.1 -0.1)">
       <use xlink:href="#DejaVuSans-32"/>
       <use x="63.623047" xlink:href="#DejaVuSans-2e"/>
       <use x="95.410156" xlink:href="#DejaVuSans-39"/>
       <use x="159.033203" xlink:href="#DejaVuSans-30"/>
      </g>
     </g>
    </g>
    <g id="ytick_8">
     <g id="line2d_58">
      <g>
       <use style="stroke:#000000;stroke-width:0.8;" x="50.14375" xlink:href="#me61e095c6d" y="198.604347"/>
      </g>
     </g>
     <g id="text_15">
      <!-- 2.95 -->
      <g transform="translate(20.878125 202.403566)scale(0.1 -0.1)">
       <use xlink:href="#DejaVuSans-32"/>
       <use x="63.623047" xlink:href="#DejaVuSans-2e"/>
       <use x="95.410156" xlink:href="#DejaVuSans-39"/>
       <use x="159.033203" xlink:href="#DejaVuSans-35"/>
      </g>
     </g>
    </g>
    <g id="ytick_9">
     <g id="line2d_59">
      <g>
       <use style="stroke:#000000;stroke-width:0.8;" x="50.14375" xlink:href="#me61e095c6d" y="110.461236"/>
      </g>
     </g>
     <g id="text_16">
      <!-- 3.00 -->
      <g transform="translate(20.878125 114.260455)scale(0.1 -0.1)">
       <use xlink:href="#DejaVuSans-33"/>
       <use x="63.623047" xlink:href="#DejaVuSans-2e"/>
       <use x="95.410156" xlink:href="#DejaVuSans-30"/>
       <use x="159.033203" xlink:href="#DejaVuSans-30"/>
      </g>
     </g>
    </g>
    <g id="ytick_10">
     <g id="line2d_60">
      <g>
       <use style="stroke:#000000;stroke-width:0.8;" x="50.14375" xlink:href="#me61e095c6d" y="22.318125"/>
      </g>
     </g>
     <g id="text_17">
      <!-- 3.05 -->
      <g transform="translate(20.878125 26.117344)scale(0.1 -0.1)">
       <use xlink:href="#DejaVuSans-33"/>
       <use x="63.623047" xlink:href="#DejaVuSans-2e"/>
       <use x="95.410156" xlink:href="#DejaVuSans-30"/>
       <use x="159.033203" xlink:href="#DejaVuSans-35"/>
      </g>
     </g>
    </g>
    <g id="text_18">
     <!-- $l$ -->
     <defs>
      <path d="M 18.3125 75.984375 
L 27.296875 75.984375 
L 12.5 0 
L 3.515625 0 
z
" id="DejaVuSans-Oblique-6c"/>
     </defs>
     <g transform="translate(14.798438 420.362125)rotate(-90)scale(0.1 -0.1)">
      <use transform="translate(0 0.015625)" xlink:href="#DejaVuSans-Oblique-6c"/>
     </g>
    </g>
   </g>
   <g id="line2d_61">
    <path clip-path="url(#pb9fc0df33e)" d="M 125.799877 815.958697 
L 126.51932 814.019549 
L 124.856488 812.080401 
L 124.856488 810.141252 
L 126.342236 808.202104 
L 127.462243 806.262955 
L 127.955757 804.323807 
L 126.781603 802.384658 
L 126.073175 800.44551 
L 126.51932 798.506361 
L 128.117191 796.567213 
L 126.51932 794.628065 
L 126.431004 792.688916 
L 127.12526 790.749768 
L 125.240019 788.810619 
L 127.378608 786.871471 
L 124.563173 784.932322 
L 128.670671 782.993174 
L 125.144928 781.054025 
L 125.615257 779.114877 
L 126.868157 777.175729 
L 124.264815 775.23658 
L 127.294569 773.297432 
L 128.592675 771.358283 
L 128.592675 769.419135 
L 127.294569 765.540838 
L 124.759266 763.601689 
L 125.891455 761.662541 
L 128.748318 759.723393 
L 128.197349 757.784244 
L 124.364839 755.845096 
L 127.545476 753.905947 
L 127.874473 751.966799 
L 128.592675 750.02765 
L 126.868157 748.088502 
L 129.131426 746.149353 
L 127.545476 744.210205 
L 128.825619 742.271057 
L 129.207043 740.331908 
L 128.036662 738.39276 
L 130.444545 736.453611 
L 129.873166 734.514463 
L 132.117717 732.575314 
L 130.584498 730.636166 
L 131.599646 728.697017 
L 131.860614 726.757869 
L 131.989642 724.818721 
L 134.274789 722.879572 
L 134.047935 720.940424 
L 134.161733 719.001275 
L 137.457583 717.062127 
L 138.636119 715.122978 
L 138.147239 713.18383 
L 140.893071 711.244681 
L 143.396964 709.305533 
L 146.247283 707.366385 
L 148.596365 705.427236 
L 152.630981 703.488088 
L 155.475786 701.548939 
L 158.034291 699.609791 
L 160.288796 697.670642 
L 163.889826 695.731494 
L 164.922048 693.792345 
L 165.056427 691.853197 
L 163.663376 689.914049 
L 162.792303 687.9749 
L 162.792303 686.035752 
L 160.52627 684.096603 
L 159.344915 682.157455 
L 154.432003 678.279158 
L 151.436468 676.340009 
L 151.1192 674.400861 
L 147.02116 672.461713 
L 144.926386 670.522564 
L 143.824669 668.583416 
L 143.759551 666.644267 
L 141.938364 664.705119 
L 139.026115 660.826822 
L 137.221469 658.887673 
L 138.011483 656.948525 
L 136.243516 653.070228 
L 134.047935 651.13108 
L 135.207144 649.191931 
L 133.585132 647.252783 
L 133.875827 645.313634 
L 131.730621 643.374486 
L 132.117717 641.435337 
L 133.408349 639.496189 
L 131.334693 637.557041 
L 129.506258 633.678744 
L 131.334693 631.739595 
L 129.055478 629.800447 
L 128.592675 627.861298 
L 128.748318 625.92215 
L 127.462243 623.983001 
L 128.825619 622.043853 
L 128.197349 620.104705 
L 129.727333 618.165556 
L 127.792806 616.226408 
L 127.545476 614.287259 
L 129.800402 612.348111 
L 126.607189 610.408962 
L 129.653954 608.469814 
L 127.294569 606.530665 
L 128.825619 604.591517 
L 128.825619 602.652369 
L 129.653954 600.71322 
L 127.294569 598.774072 
L 128.435624 596.834923 
L 126.342236 594.895775 
L 128.036662 592.956626 
L 128.356562 591.017478 
L 126.607189 589.078329 
L 125.799877 587.139181 
L 127.710754 585.200033 
L 125.049313 583.260884 
L 127.955757 581.321736 
L 128.036662 579.382587 
L 124.563173 577.443439 
L 124.563173 575.50429 
L 124.164211 573.565142 
L 125.144928 571.625993 
L 127.628312 569.686845 
L 124.953169 567.747697 
L 126.342236 565.808548 
L 126.51932 561.930251 
L 126.163326 559.991103 
L 129.131426 558.051954 
L 127.294569 556.112806 
L 125.891455 554.173657 
L 125.049313 552.234509 
L 126.868157 550.295361 
L 126.868157 548.356212 
L 125.891455 546.417064 
L 126.954282 544.477915 
L 125.707813 542.538767 
L 125.240019 540.599618 
L 126.431004 538.66047 
L 127.378608 536.721321 
L 125.522206 534.782173 
L 126.342236 532.843025 
L 125.428653 530.903876 
L 126.163326 528.964728 
L 125.891455 527.025579 
L 126.781603 525.086431 
L 125.334592 523.147282 
L 128.277138 521.208134 
L 128.277138 519.268985 
L 126.431004 517.329837 
L 126.51932 515.390689 
L 124.759266 513.45154 
L 128.036662 511.512392 
L 126.781603 509.573243 
L 127.874473 507.634095 
L 124.759266 505.694946 
L 127.545476 503.755798 
L 126.868157 501.816649 
L 127.792806 499.877501 
L 124.063021 497.938353 
L 126.431004 495.999204 
L 125.049313 494.060056 
L 125.144928 492.120907 
L 127.955757 490.181759 
L 125.522206 488.24261 
L 126.342236 486.303462 
L 126.607189 484.364313 
L 125.707813 482.425165 
L 124.164211 480.486017 
L 127.210121 478.546868 
L 125.799877 476.60772 
L 125.707813 474.668571 
L 124.759266 472.729423 
L 127.039981 470.790274 
L 126.607189 468.851126 
L 123.652254 466.911977 
L 128.670671 464.972829 
L 126.954282 463.033681 
L 124.759266 461.094532 
L 126.607189 459.155384 
L 125.891455 457.216235 
L 126.163326 455.277087 
L 127.039981 453.337938 
L 127.039981 451.39879 
L 125.707813 449.459641 
L 127.710754 447.520493 
L 124.464289 445.581345 
L 124.364839 443.642196 
L 125.334592 441.703048 
L 125.144928 439.763899 
L 125.240019 435.885602 
L 126.954282 433.946454 
L 123.961237 432.007305 
L 123.443166 430.068157 
L 127.294569 428.129009 
L 125.615257 426.18986 
L 123.33767 424.250712 
L 124.953169 422.311563 
L 127.378608 420.372415 
L 125.707813 418.433266 
L 126.954282 416.494118 
L 127.955757 414.554969 
L 126.073175 412.615821 
L 126.253012 410.676673 
L 125.522206 408.737524 
L 127.210121 406.798376 
L 122.909153 404.859227 
L 125.428653 402.920079 
L 124.759266 400.98093 
L 127.12526 399.041782 
L 123.652254 397.102633 
L 127.12526 395.163485 
L 123.858853 393.224337 
L 125.522206 389.34604 
L 124.364839 387.406891 
L 127.628312 385.467743 
L 126.253012 383.528594 
L 127.378608 381.589446 
L 126.253012 379.650297 
L 126.073175 377.711149 
L 124.364839 375.772001 
L 122.358183 373.832852 
L 124.264815 371.893704 
L 128.514327 369.954555 
L 127.12526 368.015407 
L 125.334592 366.076258 
L 124.063021 364.13711 
L 124.164211 362.197961 
L 126.073175 360.258813 
L 126.51932 354.441368 
L 126.51932 352.502219 
L 126.954282 350.563071 
L 126.253012 348.623922 
L 125.334592 346.684774 
L 125.428653 344.745625 
L 124.264815 342.806477 
L 125.522206 340.867329 
L 126.431004 338.92818 
L 124.953169 336.989032 
L 126.342236 335.049883 
L 126.781603 333.110735 
L 124.661497 331.171586 
L 123.858853 329.232438 
L 126.431004 327.293289 
L 125.334592 325.354141 
L 127.792806 323.414993 
L 126.51932 321.475844 
L 126.163326 319.536696 
L 126.607189 317.597547 
L 125.982553 315.658399 
L 126.253012 313.71925 
L 125.891455 311.780102 
L 124.364839 309.840953 
L 124.953169 307.901805 
L 124.464289 305.962657 
L 128.197349 304.023508 
L 127.378608 302.08436 
L 126.163326 300.145211 
L 126.342236 298.206063 
L 126.868157 296.266914 
L 125.144928 294.327766 
L 127.628312 292.388617 
L 125.144928 290.449469 
L 127.12526 288.510321 
L 123.858853 286.571172 
L 127.545476 284.632024 
L 129.055478 282.692875 
L 127.210121 280.753727 
L 126.781603 278.814578 
L 123.755861 276.87543 
L 124.856488 274.936281 
L 124.063021 272.997133 
L 123.755861 271.057985 
L 123.755861 269.118836 
L 127.545476 267.179688 
L 126.954282 265.240539 
L 126.781603 263.301391 
L 125.144928 261.362242 
L 128.117191 259.423094 
L 126.868157 257.483945 
L 125.144928 255.544797 
L 123.755861 253.605649 
L 125.615257 251.6665 
L 127.955757 249.727352 
L 126.868157 247.788203 
L 127.545476 245.849055 
L 126.51932 243.909906 
L 126.431004 241.970758 
L 125.891455 240.031609 
L 124.856488 238.092461 
L 125.428653 236.153313 
L 125.240019 234.214164 
L 127.545476 232.275016 
L 127.294569 230.335867 
L 125.799877 228.396719 
L 126.954282 226.45757 
L 125.334592 224.518422 
L 127.378608 222.579273 
L 125.615257 220.640125 
L 126.163326 218.700977 
L 126.163326 216.761828 
L 126.954282 214.82268 
L 127.545476 212.883531 
L 125.707813 210.944383 
L 125.982553 209.005234 
L 124.856488 207.066086 
L 126.163326 205.126937 
L 126.342236 203.187789 
L 125.428653 201.248641 
L 126.868157 199.309492 
L 129.873166 197.370344 
L 127.12526 195.431195 
L 128.514327 193.492047 
L 127.378608 191.552898 
L 127.710754 189.61375 
L 126.954282 187.674601 
L 126.954282 185.735453 
L 125.522206 183.796305 
L 128.902578 181.857156 
L 129.207043 179.918008 
L 129.055478 177.978859 
L 131.599646 176.039711 
L 129.653954 174.100562 
L 131.795739 172.161414 
L 130.444545 168.283117 
L 129.282332 166.343969 
L 131.860614 164.40482 
L 132.053797 162.465672 
L 130.303454 160.526523 
L 131.200684 158.587375 
L 132.308074 156.648226 
L 133.049286 152.769929 
L 134.664785 150.830781 
L 133.229746 148.891633 
L 133.526404 146.952484 
L 136.193141 145.013336 
L 137.828807 143.074187 
L 136.885418 141.135039 
L 139.657242 139.19589 
L 140.306068 137.256742 
L 142.924256 135.317593 
L 144.305422 133.378445 
L 147.916713 131.439297 
L 151.097841 129.500148 
L 154.039602 127.561 
L 162.126037 125.621851 
L 169.249083 123.682703 
L 181.561048 121.743554 
L 186.583953 119.804406 
L 205.168929 117.865257 
L 234.063475 115.926109 
L 251.712156 113.986961 
L 260.000568 112.047812 
L 245.800934 110.108664 
L 218.182971 108.169515 
L 186.467408 106.230367 
L 176.328057 104.291218 
L 176.328057 102.35207 
L 170.156119 100.412921 
L 166.247997 98.473773 
L 163.704769 96.534625 
L 160.276207 94.595476 
L 157.919267 92.656328 
L 155.999229 90.717179 
L 151.74804 88.778031 
L 150.990651 86.838882 
L 148.095491 84.899734 
L 147.501027 82.960585 
L 143.824669 81.021437 
L 142.508569 79.082289 
L 142.924256 77.14314 
L 140.464554 75.203992 
L 139.281326 73.264843 
L 139.780759 71.325695 
L 138.237157 69.386546 
L 138.415607 67.447398 
L 135.419429 65.508249 
L 133.990755 63.569101 
L 134.498716 61.629953 
L 134.498716 59.690804 
L 130.654054 57.751656 
L 132.805716 55.812507 
L 132.927928 53.873359 
L 131.065632 51.93421 
L 130.303454 49.995062 
L 132.181401 48.055913 
L 130.017784 46.116765 
L 127.12526 44.177617 
L 129.727333 42.238468 
L 129.653954 40.29932 
L 129.727333 38.360171 
L 128.825619 36.421023 
L 128.277138 34.481874 
L 130.089644 32.542726 
L 129.131426 30.603577 
L 129.580263 28.664429 
L 127.792806 26.725281 
L 127.039981 24.786132 
L 131.200684 22.846984 
L 131.200684 22.846984 
" style="fill:none;stroke:#000004;stroke-linecap:square;stroke-width:1.5;"/>
   </g>
   <g id="line2d_62">
    <path clip-path="url(#pb9fc0df33e)" d="M 100.992529 816.31127 
L 101.600085 813.138118 
L 100.90989 809.964966 
L 99.709624 806.791814 
L 97.587762 803.618662 
L 100.617516 800.44551 
L 100.061111 797.272358 
L 101.440138 794.099206 
L 101.319204 790.926054 
L 100.23422 787.752902 
L 101.19742 784.57975 
L 101.797967 781.406598 
L 102.071265 778.233446 
L 103.013629 775.060294 
L 102.225525 771.887142 
L 103.340731 768.71399 
L 103.484154 765.540838 
L 103.942258 762.367686 
L 103.942258 759.194534 
L 105.756776 756.021382 
L 105.408734 752.84823 
L 106.341973 749.675078 
L 107.710061 746.501926 
L 108.847552 743.328774 
L 111.151754 740.155622 
L 111.694113 736.98247 
L 113.748015 733.809318 
L 115.441521 730.636166 
L 118.065366 727.463014 
L 120.91576 724.289862 
L 122.273614 721.11671 
L 125.816431 717.943558 
L 127.675405 714.770406 
L 130.422533 711.597254 
L 131.039071 708.424102 
L 132.694418 705.25095 
L 131.299822 702.077798 
L 130.973266 698.904646 
L 129.830292 695.731494 
L 129.200903 692.558342 
L 127.299296 689.38519 
L 125.757168 686.212038 
L 123.70078 683.038886 
L 121.820287 679.865734 
L 121.136668 676.692582 
L 119.499426 673.51943 
L 118.218807 670.346278 
L 116.161419 667.173126 
L 115.15228 663.999974 
L 114.292806 660.826822 
L 112.540822 657.65367 
L 111.151754 654.480518 
L 109.91505 651.307366 
L 110.568173 644.961062 
L 108.396082 641.78791 
L 107.932552 638.614758 
L 107.849452 635.441606 
L 106.522747 632.268454 
L 106.9958 629.095302 
L 105.183562 625.92215 
L 105.151155 622.748998 
L 104.557231 619.575846 
L 104.354652 616.402694 
L 103.196113 613.229542 
L 104.354652 610.05639 
L 102.187088 606.883238 
L 102.187088 603.710086 
L 103.05028 600.536934 
L 103.12335 597.363782 
L 104.14968 594.19063 
L 102.642801 591.017478 
L 102.90321 587.844326 
L 101.679509 584.671174 
L 102.940095 581.498022 
L 103.555424 578.32487 
L 100.617516 575.151718 
L 100.104551 571.978566 
L 101.876493 568.805414 
L 100.951259 565.632262 
L 101.560236 562.45911 
L 101.993618 559.285958 
L 102.187088 556.112806 
L 100.277229 552.939654 
L 101.837274 549.766502 
L 101.758571 546.59335 
L 100.191105 543.420198 
L 101.560236 540.247046 
L 100.617516 537.073894 
L 99.214403 533.900742 
L 101.719085 530.72759 
L 99.441257 527.554438 
L 101.115754 524.381286 
L 101.115754 521.208134 
L 101.23811 518.034982 
L 99.798165 514.86183 
L 99.531174 511.688678 
L 99.886257 508.515526 
L 100.78519 505.342374 
L 100.743423 502.169222 
L 99.973904 498.99607 
L 100.448207 495.822918 
L 99.886257 492.649766 
L 101.278704 489.476614 
L 98.65754 486.303462 
L 100.90989 483.13031 
L 99.575959 479.957158 
L 99.665183 476.784006 
L 100.277229 473.610854 
L 100.277229 470.437702 
L 100.90989 467.26455 
L 100.147882 460.918246 
L 100.951259 457.745094 
L 98.845153 454.571942 
L 99.930136 451.39879 
L 97.935352 448.225638 
L 100.320132 445.052486 
L 99.214403 441.879334 
L 101.359609 438.706182 
L 99.168674 435.53303 
L 99.930136 432.359878 
L 100.017562 429.186726 
L 101.115754 426.013574 
L 100.362929 422.840422 
L 99.842267 419.66727 
L 99.709624 416.494118 
L 102.071265 413.320966 
L 98.65754 410.147814 
L 100.277229 406.974662 
L 100.362929 400.628358 
L 101.359609 397.455206 
L 101.278704 394.282054 
L 100.575344 391.108902 
L 100.320132 384.762598 
L 100.992529 378.416294 
L 100.191105 375.243142 
L 98.610318 372.06999 
L 100.147882 368.896838 
L 100.617516 365.723686 
L 100.90989 362.550534 
L 100.868423 359.377382 
L 101.719085 356.20423 
L 98.79844 353.031078 
L 100.90989 349.857926 
L 98.515486 346.684774 
L 101.033701 343.511622 
L 99.260011 340.33847 
L 97.787236 337.165318 
L 99.168674 333.992166 
L 99.930136 330.819014 
L 97.935352 327.645862 
L 99.709624 324.47271 
L 100.78519 321.299558 
L 100.743423 318.126406 
L 99.620629 314.953254 
L 99.842267 308.60695 
L 101.319204 305.433798 
L 99.122824 302.260646 
L 99.168674 299.087494 
L 99.930136 295.914342 
L 100.061111 292.74119 
L 100.533068 289.568038 
L 100.617516 286.394886 
L 99.620629 283.221734 
L 101.39992 280.048582 
L 100.147882 276.87543 
L 99.260011 273.702278 
L 100.490689 270.529126 
L 101.319204 267.355974 
L 98.891741 264.182822 
L 99.620629 261.00967 
L 101.033701 257.836518 
L 101.600085 254.663366 
L 102.492223 251.490214 
L 100.448207 248.317062 
L 101.440138 245.14391 
L 100.78519 241.970758 
L 101.440138 238.797606 
L 100.617516 235.624454 
L 100.826856 232.451302 
L 101.480263 229.27815 
L 99.842267 226.104998 
L 100.191105 222.931846 
L 101.278704 219.758694 
L 102.492223 216.585542 
L 100.78519 213.41239 
L 102.225525 210.239238 
L 101.278704 207.066086 
L 102.642801 203.892934 
L 101.033701 200.719782 
L 103.44841 197.54663 
L 104.757472 194.373478 
L 102.90321 191.200326 
L 103.697091 188.027174 
L 104.65764 184.854022 
L 102.416441 181.68087 
L 103.376698 178.507718 
L 105.472535 175.334566 
L 105.344696 172.161414 
L 106.701656 168.988262 
L 107.4563 165.81511 
L 108.233893 159.468806 
L 108.715982 156.295654 
L 110.232586 153.122502 
L 112.133481 149.94935 
L 111.827095 146.776198 
L 115.261311 143.603046 
L 117.06618 140.429894 
L 120.928833 137.256742 
L 123.203624 134.08359 
L 126.388648 130.910438 
L 130.125093 127.737286 
L 137.355354 124.564134 
L 160.343847 121.390982 
L 169.862924 118.21783 
L 198.949919 115.044678 
L 232.070258 111.871526 
L 213.58463 108.698374 
L 189.218575 105.525222 
L 143.10081 102.35207 
L 132.996922 99.178918 
L 129.257603 96.005766 
L 126.158154 92.832614 
L 123.93313 89.659462 
L 120.518927 86.48631 
L 116.786402 80.140006 
L 115.953791 76.966854 
L 114.235247 73.793702 
L 112.772353 70.62055 
L 111.760732 67.447398 
L 111.311701 64.274246 
L 109.741632 61.101094 
L 109.21073 57.927942 
L 107.569541 54.75479 
L 107.513013 51.581638 
L 106.552693 48.408486 
L 106.492748 42.062182 
L 104.690982 38.88903 
L 104.252468 35.715878 
L 101.837274 32.542726 
L 102.792085 29.369574 
L 104.080814 26.196422 
L 103.05028 23.02327 
L 103.05028 23.02327 
" style="fill:none;stroke:#6a176e;stroke-linecap:square;stroke-width:1.5;"/>
   </g>
   <g id="line2d_63">
    <path clip-path="url(#pb9fc0df33e)" d="M 81.017485 816.31127 
L 81.017485 813.138118 
L 82.659757 806.791814 
L 82.776883 803.618662 
L 82.462773 797.272358 
L 82.581232 794.099206 
L 84.409666 790.926054 
L 82.423107 787.752902 
L 84.30309 781.406598 
L 82.81575 778.233446 
L 84.231674 775.060294 
L 85.340495 771.887142 
L 84.620875 768.71399 
L 85.440905 765.540838 
L 85.171844 762.367686 
L 86.850497 759.194534 
L 86.88124 756.021382 
L 88.096967 752.84823 
L 87.8373 749.675078 
L 87.691344 746.501926 
L 88.324565 743.328774 
L 89.125452 740.155622 
L 89.233074 736.98247 
L 88.68816 733.809318 
L 90.45004 730.636166 
L 92.499612 727.463014 
L 89.865159 724.289862 
L 91.657348 721.11671 
L 91.563794 717.943558 
L 93.067933 714.770406 
L 92.786099 711.597254 
L 91.563794 708.424102 
L 92.916745 705.25095 
L 93.046415 702.077798 
L 92.566146 698.904646 
L 92.916745 695.731494 
L 91.422512 692.558342 
L 91.493297 689.38519 
L 92.185706 686.212038 
L 91.750399 683.038886 
L 90.019647 679.865734 
L 90.045262 676.692582 
L 91.136449 673.51943 
L 89.916808 670.346278 
L 90.722948 667.173126 
L 89.206231 663.999974 
L 89.499246 660.826822 
L 88.798521 657.65367 
L 88.989978 654.480518 
L 87.125238 651.307366 
L 88.437254 648.134214 
L 86.942562 641.78791 
L 86.414286 638.614758 
L 85.540737 635.441606 
L 85.137916 632.268454 
L 86.191998 629.095302 
L 85.901951 625.92215 
L 84.195856 622.748998 
L 85.239501 619.575846 
L 86.127961 616.402694 
L 86.191998 613.229542 
L 85.205706 610.05639 
L 83.426066 606.883238 
L 85.37403 603.710086 
L 85.407499 600.536934 
L 83.943034 597.363782 
L 82.620539 594.19063 
L 83.61247 591.017478 
L 84.409666 587.844326 
L 83.870118 584.671174 
L 83.723359 581.498022 
L 82.541835 578.32487 
L 84.015645 575.151718 
L 81.651687 571.978566 
L 83.538149 568.805414 
L 81.316332 565.632262 
L 81.85804 562.45911 
L 81.231471 559.285958 
L 83.388544 556.112806 
L 83.047141 552.939654 
L 81.899018 549.766502 
L 83.16169 546.59335 
L 82.383349 543.420198 
L 84.159963 540.247046 
L 82.541835 537.073894 
L 82.776883 533.900742 
L 81.816966 530.72759 
L 82.659757 527.554438 
L 81.103396 524.381286 
L 81.188885 521.208134 
L 81.651687 518.034982 
L 82.81575 514.86183 
L 81.358608 511.688678 
L 82.183185 508.515526 
L 83.723359 505.342374 
L 80.58143 502.169222 
L 82.343501 498.99607 
L 81.816966 495.822918 
L 79.906089 492.649766 
L 81.980685 486.303462 
L 80.625532 483.13031 
L 80.537216 479.957158 
L 81.442851 476.784006 
L 81.526688 473.610854 
L 79.997667 470.437702 
L 82.893223 467.26455 
L 82.462773 464.091398 
L 81.273954 460.918246 
L 79.767808 457.745094 
L 81.146193 454.571942 
L 80.757169 451.39879 
L 81.060494 448.225638 
L 81.060494 445.052486 
L 80.713401 441.879334 
L 81.273954 438.706182 
L 82.30356 435.53303 
L 78.9627 432.359878 
L 80.669522 429.186726 
L 79.906089 426.013574 
L 82.021374 422.840422 
L 81.400781 419.66727 
L 81.358608 416.494118 
L 80.757169 413.320966 
L 80.359224 410.147814 
L 80.625532 406.974662 
L 81.060494 403.80151 
L 79.675006 400.628358 
L 80.974369 397.455206 
L 79.581704 394.282054 
L 81.316332 391.108902 
L 82.102468 387.93575 
L 78.914157 384.762598 
L 79.05938 381.589446 
L 80.669522 378.416294 
L 80.669522 375.243142 
L 80.314439 372.06999 
L 80.359224 368.896838 
L 80.269538 365.723686 
L 80.492888 362.550534 
L 79.675006 359.377382 
L 80.403893 356.20423 
L 80.088765 353.031078 
L 79.338325 349.857926 
L 82.021374 346.684774 
L 80.190681 343.511622 
L 80.470682 340.33847 
L 80.168085 337.165318 
L 80.145459 333.992166 
L 81.734523 330.819014 
L 81.734523 327.645862 
L 80.58143 324.47271 
L 81.295156 321.299558 
L 81.210191 318.126406 
L 82.659757 314.953254 
L 80.647541 311.780102 
L 79.802482 308.60695 
L 80.403893 305.433798 
L 80.336846 302.260646 
L 81.060494 299.087494 
L 79.616751 295.914342 
L 81.263343 292.74119 
L 81.316332 289.568038 
L 80.647541 286.394886 
L 82.323542 283.221734 
L 80.724353 280.048582 
L 81.909247 276.87543 
L 80.789923 273.702278 
L 80.855246 270.529126 
L 79.381756 267.355974 
L 81.537139 264.182822 
L 81.188885 261.00967 
L 80.020486 257.836518 
L 81.57888 254.663366 
L 81.006716 251.490214 
L 81.630917 248.317062 
L 81.960304 245.14391 
L 80.224521 241.970758 
L 81.662064 238.797606 
L 81.765485 232.451302 
L 81.495296 229.27815 
L 81.970497 226.104998 
L 81.295156 222.931846 
L 80.985158 216.585542 
L 82.011211 213.41239 
L 83.547456 210.239238 
L 80.392736 207.066086 
L 82.122682 203.892934 
L 83.094961 200.719782 
L 82.193248 197.54663 
L 82.522103 194.373478 
L 82.97997 191.200326 
L 83.256573 188.027174 
L 82.85453 184.854022 
L 82.031532 181.68087 
L 83.444797 178.507718 
L 84.213774 175.334566 
L 84.594614 172.161414 
L 84.087954 168.988262 
L 85.052805 165.81511 
L 85.323704 162.641958 
L 86.54787 159.468806 
L 87.117665 156.295654 
L 88.010842 153.122502 
L 88.542239 149.94935 
L 88.584056 146.776198 
L 89.159155 143.603046 
L 90.587031 140.429894 
L 93.912593 137.256742 
L 95.990145 134.08359 
L 100.950773 130.910438 
L 105.278694 127.737286 
L 115.008541 124.564134 
L 135.145578 121.390982 
L 173.147911 118.21783 
L 195.986076 115.044678 
L 201.822633 111.871526 
L 191.367788 108.698374 
L 176.83894 105.525222 
L 174.926275 102.35207 
L 140.77259 99.178918 
L 108.489647 96.005766 
L 100.342892 92.832614 
L 96.48281 89.659462 
L 94.511503 86.48631 
L 91.226352 83.313158 
L 91.457941 80.140006 
L 91.058156 76.966854 
L 89.79389 73.793702 
L 88.832865 70.62055 
L 89.45958 67.447398 
L 87.358384 64.274246 
L 87.178158 61.101094 
L 87.581065 57.927942 
L 86.842803 54.75479 
L 85.861281 51.581638 
L 86.382704 48.408486 
L 84.760266 45.235334 
L 85.738694 42.062182 
L 86.03146 38.88903 
L 85.656486 35.715878 
L 84.585851 32.542726 
L 83.760165 26.196422 
L 84.468605 23.02327 
L 84.468605 23.02327 
" style="fill:none;stroke:#bc3754;stroke-linecap:square;stroke-width:1.5;"/>
   </g>
   <g id="line2d_64">
    <path clip-path="url(#pb9fc0df33e)" d="M 65.832822 816.31127 
L 65.23829 813.138118 
L 64.909515 809.964966 
L 65.652049 806.791814 
L 64.814424 803.618662 
L 65.331093 800.44551 
L 65.144988 797.272358 
L 65.652049 794.099206 
L 66.364111 790.926054 
L 66.837238 784.57975 
L 66.188816 781.406598 
L 65.098148 778.233446 
L 65.652049 775.060294 
L 63.732517 771.887142 
L 63.732517 768.71399 
L 66.011732 765.540838 
L 67.866844 762.367686 
L 65.652049 759.194534 
L 65.331093 752.84823 
L 64.232669 749.675078 
L 65.051182 746.501926 
L 64.956866 743.328774 
L 66.580769 740.155622 
L 66.188816 736.98247 
L 65.60656 733.809318 
L 65.515222 730.636166 
L 64.379946 727.463014 
L 65.742671 724.289862 
L 65.877723 721.11671 
L 65.787805 717.943558 
L 66.320453 714.770406 
L 66.49443 711.597254 
L 67.131738 708.424102 
L 65.098148 705.25095 
L 65.560951 702.077798 
L 66.188816 698.904646 
L 67.048104 695.731494 
L 64.909515 692.558342 
L 66.056173 689.38519 
L 65.742671 686.212038 
L 66.794755 679.865734 
L 64.525984 673.51943 
L 66.320453 670.346278 
L 65.423402 667.173126 
L 67.048104 663.999974 
L 67.006135 660.826822 
L 67.906785 657.65367 
L 65.284753 654.480518 
L 65.60656 651.307366 
L 65.423402 648.134214 
L 66.364111 644.961062 
L 65.60656 641.78791 
L 66.623778 638.614758 
L 64.814424 635.441606 
L 64.956866 632.268454 
L 66.056173 629.095302 
L 66.056173 625.92215 
L 67.543969 622.748998 
L 65.967177 619.575846 
L 66.921892 616.402694 
L 65.877723 613.229542 
L 65.922508 610.05639 
L 65.23829 606.883238 
L 66.40766 603.710086 
L 65.23829 600.536934 
L 65.469373 597.363782 
L 67.625252 594.19063 
L 63.373631 591.017478 
L 66.623778 587.844326 
L 65.560951 584.671174 
L 66.837238 581.498022 
L 64.766683 578.32487 
L 66.276685 575.151718 
L 62.847709 571.978566 
L 63.681699 568.805414 
L 63.425357 565.632262 
L 65.652049 562.45911 
L 64.133785 559.285958 
L 64.330992 556.112806 
L 65.051182 552.939654 
L 65.098148 549.766502 
L 64.2819 546.59335 
L 65.787805 543.420198 
L 61.858919 540.247046 
L 63.528349 537.073894 
L 62.08357 530.72759 
L 63.884082 527.554438 
L 63.984394 524.381286 
L 63.528349 521.208134 
L 62.847709 518.034982 
L 63.425357 514.86183 
L 63.681699 511.688678 
L 63.579616 508.515526 
L 63.007166 505.342374 
L 63.630733 502.169222 
L 64.034334 498.99607 
L 62.847709 495.822918 
L 62.632795 489.476614 
L 62.740585 486.303462 
L 62.524332 483.13031 
L 62.632795 479.957158 
L 63.476929 476.784006 
L 63.884082 473.610854 
L 62.360355 470.437702 
L 62.139281 467.26455 
L 62.469845 464.091398 
L 61.458642 460.918246 
L 61.858919 457.745094 
L 63.165171 451.39879 
L 62.578649 448.225638 
L 62.632795 441.879334 
L 61.573952 438.706182 
L 63.059994 435.53303 
L 63.528349 432.359878 
L 62.578649 429.186726 
L 61.342561 426.013574 
L 62.954176 422.840422 
L 61.108043 419.66727 
L 60.989584 416.494118 
L 62.08357 413.320966 
L 61.458642 410.147814 
L 63.217521 406.974662 
L 62.524332 403.80151 
L 63.269714 400.628358 
L 62.632795 397.455206 
L 60.136932 394.282054 
L 64.379946 391.108902 
L 62.632795 387.93575 
L 62.79423 381.589446 
L 61.400698 378.416294 
L 61.573952 375.243142 
L 61.971608 372.06999 
L 62.632795 368.896838 
L 62.08357 365.723686 
L 63.783186 362.550534 
L 60.629279 359.377382 
L 62.08357 356.20423 
L 61.631321 353.031078 
L 60.930051 349.857926 
L 62.79423 340.33847 
L 63.269714 337.165318 
L 63.579616 333.992166 
L 62.469845 330.819014 
L 62.686774 327.645862 
L 63.528349 324.47271 
L 61.400698 321.299558 
L 60.629279 318.126406 
L 64.2819 314.953254 
L 63.112662 311.780102 
L 62.578649 308.60695 
L 63.681699 305.433798 
L 61.048915 302.260646 
L 63.32175 299.087494 
L 63.425357 295.914342 
L 63.165171 292.74119 
L 62.632795 289.568038 
L 63.630733 286.394886 
L 62.139281 283.221734 
L 63.884082 276.87543 
L 64.525984 273.702278 
L 63.269714 270.529126 
L 63.059994 267.355974 
L 61.802298 264.182822 
L 61.858919 261.00967 
L 62.139281 257.836518 
L 63.059994 254.663366 
L 64.477441 251.490214 
L 63.732517 248.317062 
L 63.579616 245.14391 
L 62.360355 241.970758 
L 64.622664 238.797606 
L 62.954176 235.624454 
L 62.740585 232.451302 
L 64.814424 229.27815 
L 63.579616 226.104998 
L 62.954176 222.931846 
L 63.476929 219.758694 
L 64.766683 216.585542 
L 63.884082 210.239238 
L 64.133785 207.066086 
L 64.574392 203.892934 
L 63.217521 200.719782 
L 66.011732 197.54663 
L 63.269714 194.373478 
L 64.862035 191.200326 
L 64.814424 188.027174 
L 65.051182 184.854022 
L 65.004088 181.68087 
L 65.469373 178.507718 
L 65.23829 175.334566 
L 65.284753 172.161414 
L 67.584658 168.988262 
L 66.188816 165.81511 
L 67.543969 162.641958 
L 68.340167 159.468806 
L 69.433402 156.295654 
L 69.286643 153.122502 
L 70.46183 149.94935 
L 71.882652 146.776198 
L 75.088924 140.429894 
L 79.139798 137.256742 
L 82.35248 134.08359 
L 86.568586 130.910438 
L 89.038353 127.737286 
L 93.63679 124.564134 
L 100.108653 121.390982 
L 111.576549 118.21783 
L 148.096414 115.044678 
L 199.14749 111.871526 
L 183.023641 108.698374 
L 115.042889 105.525222 
L 99.251961 102.35207 
L 91.396938 99.178918 
L 86.376978 96.005766 
L 82.456293 92.832614 
L 79.056062 89.659462 
L 76.795613 86.48631 
L 72.748989 83.313158 
L 73.1959 80.140006 
L 70.599017 76.966854 
L 70.802785 73.793702 
L 70.530559 70.62055 
L 70.667206 67.447398 
L 68.724974 64.274246 
L 68.417814 61.101094 
L 68.98935 57.927942 
L 68.800922 54.75479 
L 67.665752 51.581638 
L 67.256439 48.408486 
L 66.1005 45.235334 
L 67.503183 42.062182 
L 66.49443 38.88903 
L 67.006135 35.715878 
L 65.787805 32.542726 
L 66.837238 29.369574 
L 66.709477 26.196422 
L 64.574392 23.02327 
L 64.574392 23.02327 
" style="fill:none;stroke:#dd513a;stroke-linecap:square;stroke-width:1.5;"/>
   </g>
   <g id="patch_3">
    <path d="M 50.14375 815.606125 
L 50.14375 22.318125 
" style="fill:none;stroke:#000000;stroke-linecap:square;stroke-linejoin:miter;stroke-width:0.8;"/>
   </g>
   <g id="patch_4">
    <path d="M 269.99375 815.606125 
L 269.99375 22.318125 
" style="fill:none;stroke:#000000;stroke-linecap:square;stroke-linejoin:miter;stroke-width:0.8;"/>
   </g>
   <g id="patch_5">
    <path d="M 50.14375 815.606125 
L 269.99375 815.606125 
" style="fill:none;stroke:#000000;stroke-linecap:square;stroke-linejoin:miter;stroke-width:0.8;"/>
   </g>
   <g id="patch_6">
    <path d="M 50.14375 22.318125 
L 269.99375 22.318125 
" style="fill:none;stroke:#000000;stroke-linecap:square;stroke-linejoin:miter;stroke-width:0.8;"/>
   </g>
   <g id="text_19">
    <!-- Integrated+Normalized Intensity -->
    <defs>
     <path d="M 45.40625 27.984375 
Q 45.40625 37.75 41.375 43.109375 
Q 37.359375 48.484375 30.078125 48.484375 
Q 22.859375 48.484375 18.828125 43.109375 
Q 14.796875 37.75 14.796875 27.984375 
Q 14.796875 18.265625 18.828125 12.890625 
Q 22.859375 7.515625 30.078125 7.515625 
Q 37.359375 7.515625 41.375 12.890625 
Q 45.40625 18.265625 45.40625 27.984375 
z
M 54.390625 6.78125 
Q 54.390625 -7.171875 48.1875 -13.984375 
Q 42 -20.796875 29.203125 -20.796875 
Q 24.46875 -20.796875 20.265625 -20.09375 
Q 16.0625 -19.390625 12.109375 -17.921875 
L 12.109375 -9.1875 
Q 16.0625 -11.328125 19.921875 -12.34375 
Q 23.78125 -13.375 27.78125 -13.375 
Q 36.625 -13.375 41.015625 -8.765625 
Q 45.40625 -4.15625 45.40625 5.171875 
L 45.40625 9.625 
Q 42.625 4.78125 38.28125 2.390625 
Q 33.9375 0 27.875 0 
Q 17.828125 0 11.671875 7.65625 
Q 5.515625 15.328125 5.515625 27.984375 
Q 5.515625 40.671875 11.671875 48.328125 
Q 17.828125 56 27.875 56 
Q 33.9375 56 38.28125 53.609375 
Q 42.625 51.21875 45.40625 46.390625 
L 45.40625 54.6875 
L 54.390625 54.6875 
z
" id="DejaVuSans-67"/>
     <path d="M 41.109375 46.296875 
Q 39.59375 47.171875 37.8125 47.578125 
Q 36.03125 48 33.890625 48 
Q 26.265625 48 22.1875 43.046875 
Q 18.109375 38.09375 18.109375 28.8125 
L 18.109375 0 
L 9.078125 0 
L 9.078125 54.6875 
L 18.109375 54.6875 
L 18.109375 46.1875 
Q 20.953125 51.171875 25.484375 53.578125 
Q 30.03125 56 36.53125 56 
Q 37.453125 56 38.578125 55.875 
Q 39.703125 55.765625 41.0625 55.515625 
z
" id="DejaVuSans-72"/>
     <path d="M 34.28125 27.484375 
Q 23.390625 27.484375 19.1875 25 
Q 14.984375 22.515625 14.984375 16.5 
Q 14.984375 11.71875 18.140625 8.90625 
Q 21.296875 6.109375 26.703125 6.109375 
Q 34.1875 6.109375 38.703125 11.40625 
Q 43.21875 16.703125 43.21875 25.484375 
L 43.21875 27.484375 
z
M 52.203125 31.203125 
L 52.203125 0 
L 43.21875 0 
L 43.21875 8.296875 
Q 40.140625 3.328125 35.546875 0.953125 
Q 30.953125 -1.421875 24.3125 -1.421875 
Q 15.921875 -1.421875 10.953125 3.296875 
Q 6 8.015625 6 15.921875 
Q 6 25.140625 12.171875 29.828125 
Q 18.359375 34.515625 30.609375 34.515625 
L 43.21875 34.515625 
L 43.21875 35.40625 
Q 43.21875 41.609375 39.140625 45 
Q 35.0625 48.390625 27.6875 48.390625 
Q 23 48.390625 18.546875 47.265625 
Q 14.109375 46.140625 10.015625 43.890625 
L 10.015625 52.203125 
Q 14.9375 54.109375 19.578125 55.046875 
Q 24.21875 56 28.609375 56 
Q 40.484375 56 46.34375 49.84375 
Q 52.203125 43.703125 52.203125 31.203125 
z
" id="DejaVuSans-61"/>
     <path d="M 45.40625 46.390625 
L 45.40625 75.984375 
L 54.390625 75.984375 
L 54.390625 0 
L 45.40625 0 
L 45.40625 8.203125 
Q 42.578125 3.328125 38.25 0.953125 
Q 33.9375 -1.421875 27.875 -1.421875 
Q 17.96875 -1.421875 11.734375 6.484375 
Q 5.515625 14.40625 5.515625 27.296875 
Q 5.515625 40.1875 11.734375 48.09375 
Q 17.96875 56 27.875 56 
Q 33.9375 56 38.25 53.625 
Q 42.578125 51.265625 45.40625 46.390625 
z
M 14.796875 27.296875 
Q 14.796875 17.390625 18.875 11.75 
Q 22.953125 6.109375 30.078125 6.109375 
Q 37.203125 6.109375 41.296875 11.75 
Q 45.40625 17.390625 45.40625 27.296875 
Q 45.40625 37.203125 41.296875 42.84375 
Q 37.203125 48.484375 30.078125 48.484375 
Q 22.953125 48.484375 18.875 42.84375 
Q 14.796875 37.203125 14.796875 27.296875 
z
" id="DejaVuSans-64"/>
     <path d="M 46 62.703125 
L 46 35.5 
L 73.1875 35.5 
L 73.1875 27.203125 
L 46 27.203125 
L 46 0 
L 37.796875 0 
L 37.796875 27.203125 
L 10.59375 27.203125 
L 10.59375 35.5 
L 37.796875 35.5 
L 37.796875 62.703125 
z
" id="DejaVuSans-2b"/>
     <path d="M 9.8125 72.90625 
L 23.09375 72.90625 
L 55.421875 11.921875 
L 55.421875 72.90625 
L 64.984375 72.90625 
L 64.984375 0 
L 51.703125 0 
L 19.390625 60.984375 
L 19.390625 0 
L 9.8125 0 
z
" id="DejaVuSans-4e"/>
     <path d="M 30.609375 48.390625 
Q 23.390625 48.390625 19.1875 42.75 
Q 14.984375 37.109375 14.984375 27.296875 
Q 14.984375 17.484375 19.15625 11.84375 
Q 23.34375 6.203125 30.609375 6.203125 
Q 37.796875 6.203125 41.984375 11.859375 
Q 46.1875 17.53125 46.1875 27.296875 
Q 46.1875 37.015625 41.984375 42.703125 
Q 37.796875 48.390625 30.609375 48.390625 
z
M 30.609375 56 
Q 42.328125 56 49.015625 48.375 
Q 55.71875 40.765625 55.71875 27.296875 
Q 55.71875 13.875 49.015625 6.21875 
Q 42.328125 -1.421875 30.609375 -1.421875 
Q 18.84375 -1.421875 12.171875 6.21875 
Q 5.515625 13.875 5.515625 27.296875 
Q 5.515625 40.765625 12.171875 48.375 
Q 18.84375 56 30.609375 56 
z
" id="DejaVuSans-6f"/>
     <path d="M 52 44.1875 
Q 55.375 50.25 60.0625 53.125 
Q 64.75 56 71.09375 56 
Q 79.640625 56 84.28125 50.015625 
Q 88.921875 44.046875 88.921875 33.015625 
L 88.921875 0 
L 79.890625 0 
L 79.890625 32.71875 
Q 79.890625 40.578125 77.09375 44.375 
Q 74.3125 48.1875 68.609375 48.1875 
Q 61.625 48.1875 57.5625 43.546875 
Q 53.515625 38.921875 53.515625 30.90625 
L 53.515625 0 
L 44.484375 0 
L 44.484375 32.71875 
Q 44.484375 40.625 41.703125 44.40625 
Q 38.921875 48.1875 33.109375 48.1875 
Q 26.21875 48.1875 22.15625 43.53125 
Q 18.109375 38.875 18.109375 30.90625 
L 18.109375 0 
L 9.078125 0 
L 9.078125 54.6875 
L 18.109375 54.6875 
L 18.109375 46.1875 
Q 21.1875 51.21875 25.484375 53.609375 
Q 29.78125 56 35.6875 56 
Q 41.65625 56 45.828125 52.96875 
Q 50 49.953125 52 44.1875 
z
" id="DejaVuSans-6d"/>
     <path d="M 9.421875 75.984375 
L 18.40625 75.984375 
L 18.40625 0 
L 9.421875 0 
z
" id="DejaVuSans-6c"/>
     <path d="M 5.515625 54.6875 
L 48.1875 54.6875 
L 48.1875 46.484375 
L 14.40625 7.171875 
L 48.1875 7.171875 
L 48.1875 0 
L 4.296875 0 
L 4.296875 8.203125 
L 38.09375 47.515625 
L 5.515625 47.515625 
z
" id="DejaVuSans-7a"/>
     <path id="DejaVuSans-20"/>
    </defs>
    <g transform="translate(61.46625 16.318125)scale(0.12 -0.12)">
     <use xlink:href="#DejaVuSans-49"/>
     <use x="29.492188" xlink:href="#DejaVuSans-6e"/>
     <use x="92.871094" xlink:href="#DejaVuSans-74"/>
     <use x="132.080078" xlink:href="#DejaVuSans-65"/>
     <use x="193.603516" xlink:href="#DejaVuSans-67"/>
     <use x="257.080078" xlink:href="#DejaVuSans-72"/>
     <use x="298.193359" xlink:href="#DejaVuSans-61"/>
     <use x="359.472656" xlink:href="#DejaVuSans-74"/>
     <use x="398.681641" xlink:href="#DejaVuSans-65"/>
     <use x="460.205078" xlink:href="#DejaVuSans-64"/>
     <use x="523.681641" xlink:href="#DejaVuSans-2b"/>
     <use x="607.470703" xlink:href="#DejaVuSans-4e"/>
     <use x="682.275391" xlink:href="#DejaVuSans-6f"/>
     <use x="743.457031" xlink:href="#DejaVuSans-72"/>
     <use x="784.554688" xlink:href="#DejaVuSans-6d"/>
     <use x="881.966797" xlink:href="#DejaVuSans-61"/>
     <use x="943.246094" xlink:href="#DejaVuSans-6c"/>
     <use x="971.029297" xlink:href="#DejaVuSans-69"/>
     <use x="998.8125" xlink:href="#DejaVuSans-7a"/>
     <use x="1051.302734" xlink:href="#DejaVuSans-65"/>
     <use x="1112.826172" xlink:href="#DejaVuSans-64"/>
     <use x="1176.302734" xlink:href="#DejaVuSans-20"/>
     <use x="1208.089844" xlink:href="#DejaVuSans-49"/>
     <use x="1237.582031" xlink:href="#DejaVuSans-6e"/>
     <use x="1300.960938" xlink:href="#DejaVuSans-74"/>
     <use x="1340.169922" xlink:href="#DejaVuSans-65"/>
     <use x="1401.693359" xlink:href="#DejaVuSans-6e"/>
     <use x="1465.072266" xlink:href="#DejaVuSans-73"/>
     <use x="1517.171875" xlink:href="#DejaVuSans-69"/>
     <use x="1544.955078" xlink:href="#DejaVuSans-74"/>
     <use x="1584.164062" xlink:href="#DejaVuSans-79"/>
    </g>
   </g>
  </g>
 </g>
 <defs>
  <clipPath id="pb9fc0df33e">
   <rect height="793.288" width="219.85" x="50.14375" y="22.318125"/>
  </clipPath>
 </defs>
</svg>
