<?xml version="1.0" encoding="UTF-8" standalone="no"?>
<!-- Created with matplotlib (https://matplotlib.org/) -->

<svg
   xmlns:dc="http://purl.org/dc/elements/1.1/"
   xmlns:cc="http://creativecommons.org/ns#"
   xmlns:rdf="http://www.w3.org/1999/02/22-rdf-syntax-ns#"
   xmlns:svg="http://www.w3.org/2000/svg"
   xmlns="http://www.w3.org/2000/svg"
   xmlns:xlink="http://www.w3.org/1999/xlink"
   xmlns:sodipodi="http://sodipodi.sourceforge.net/DTD/sodipodi-0.dtd"
   xmlns:inkscape="http://www.inkscape.org/namespaces/inkscape"
   height="319.83984pt"
   version="1.1"
   viewBox="0 0 404.21171 319.83984"
   width="404.2117pt"
   id="svg411"
   sodipodi:docname="YBCO_Gd_Y-integrated.svg"
   inkscape:version="0.92.3 (2405546, 2018-03-11)">
  <metadata
     id="metadata415">
    <rdf:RDF>
      <cc:Work
         rdf:about="">
        <dc:format>image/svg+xml</dc:format>
        <dc:type
           rdf:resource="http://purl.org/dc/dcmitype/StillImage" />
      </cc:Work>
    </rdf:RDF>
  </metadata>
  <sodipodi:namedview
     pagecolor="#ffffff"
     bordercolor="#666666"
     borderopacity="1"
     objecttolerance="10"
     gridtolerance="10"
     guidetolerance="10"
     inkscape:pageopacity="0"
     inkscape:pageshadow="2"
     inkscape:window-width="2560"
     inkscape:window-height="1377"
     id="namedview413"
     showgrid="false"
     inkscape:zoom="1.8489584"
     inkscape:cx="141.36964"
     inkscape:cy="192.24027"
     inkscape:window-x="-8"
     inkscape:window-y="-8"
     inkscape:window-maximized="1"
     inkscape:current-layer="figure_1" />
  <defs
     id="defs4"
     style="stroke-linecap:butt;stroke-linejoin:round">
    <style
       type="text/css"
       id="style2">
*{stroke-linecap:butt;stroke-linejoin:round;}
  </style>
    <defs
       id="defs364">
      <path
         style="stroke-linecap:butt;stroke-linejoin:round"
         inkscape:connector-curvature="0"
         id="DejaVuSans-110"
         d="M 54.890625,33.015625 V 0 H 45.90625 v 32.71875 q 0,7.765625 -3.03125,11.609375 -3.03125,3.859375 -9.078125,3.859375 -7.28125,0 -11.484375,-4.640625 -4.203125,-4.625 -4.203125,-12.640625 V 0 h -9.03125 v 54.6875 h 9.03125 v -8.5 q 3.234375,4.9375 7.59375,7.375 4.375,2.4375 10.09375,2.4375 9.421875,0 14.25,-5.828125 4.84375,-5.828125 4.84375,-17.15625 z" />
      <path
         style="stroke-linecap:butt;stroke-linejoin:round"
         inkscape:connector-curvature="0"
         id="DejaVuSans-109"
         d="M 52,44.1875 Q 55.375,50.25 60.0625,53.125 64.75,56 71.09375,56 q 8.546875,0 13.1875,-5.984375 4.640625,-5.96875 4.640625,-17 V 0 h -9.03125 v 32.71875 q 0,7.859375 -2.796875,11.65625 -2.78125,3.8125 -8.484375,3.8125 -6.984375,0 -11.046875,-4.640625 -4.046875,-4.625 -4.046875,-12.640625 V 0 h -9.03125 v 32.71875 q 0,7.90625 -2.78125,11.6875 -2.78125,3.78125 -8.59375,3.78125 -6.890625,0 -10.953125,-4.65625 -4.046875,-4.65625 -4.046875,-12.625 V 0 h -9.03125 v 54.6875 h 9.03125 v -8.5 q 3.078125,5.03125 7.375,7.421875 Q 29.78125,56 35.6875,56 41.65625,56 45.828125,52.96875 50,49.953125 52,44.1875 Z" />
    </defs>
    <defs
       id="defs349">
      <path
         style="stroke-linecap:butt;stroke-linejoin:round"
         inkscape:connector-curvature="0"
         id="DejaVuSans-65"
         d="M 34.1875,63.1875 20.796875,26.90625 h 26.8125 z m -5.578125,9.71875 h 11.1875 L 67.578125,0 h -10.25 L 50.6875,18.703125 H 17.828125 L 11.1875,0 H 0.78125 Z" />
      <path
         style="stroke-linecap:butt;stroke-linejoin:round"
         inkscape:connector-curvature="0"
         id="DejaVuSans-71"
         d="M 59.515625,10.40625 V 29.984375 H 43.40625 v 8.109375 h 25.875 V 6.78125 Q 63.578125,2.734375 56.6875,0.65625 49.8125,-1.421875 42,-1.421875 q -17.09375,0 -26.75,9.984375 -9.640625,10 -9.640625,27.8125 0,17.875 9.640625,27.859375 9.65625,9.984375 26.75,9.984375 7.125,0 13.546875,-1.765625 6.421875,-1.75 11.84375,-5.171875 v -10.5 q -5.46875,4.640625 -11.625,6.984375 -6.15625,2.34375 -12.9375,2.34375 -13.390625,0 -20.109375,-7.46875 -6.703125,-7.46875 -6.703125,-22.265625 0,-14.75 6.703125,-22.21875 6.71875,-7.46875 20.109375,-7.46875 5.21875,0 9.3125,0.90625 4.109375,0.90625 7.375,2.8125 z" />
    </defs>
    <defs
       id="defs191">
      <path
         d="M 0,0 H -3.5"
         id="m7110879dad"
         style="stroke:#000000;stroke-width:0.80000001;stroke-linecap:butt;stroke-linejoin:round"
         inkscape:connector-curvature="0" />
    </defs>
    <defs
       id="defs216">
      <path
         d="m 10.796875,72.90625 h 38.71875 v -8.3125 h -29.6875 V 46.734375 q 2.140625,0.734375 4.28125,1.09375 2.15625,0.359375 4.3125,0.359375 Q 40.625,48.1875 47.75,41.5 54.890625,34.8125 54.890625,23.390625 54.890625,11.625 47.5625,5.09375 40.234375,-1.421875 26.90625,-1.421875 q -4.59375,0 -9.359375,0.78125 -4.75,0.78125 -9.828125,2.34375 V 11.625 q 4.390625,-2.390625 9.078125,-3.5625 4.6875,-1.171875 9.90625,-1.171875 8.453125,0 13.375,4.4375 4.9375,4.4375 4.9375,12.0625 0,7.609375 -4.9375,12.046875 -4.921875,4.453125 -13.375,4.453125 -3.953125,0 -7.890625,-0.875 -3.921875,-0.875 -8.015625,-2.734375 z"
         id="DejaVuSans-53"
         inkscape:connector-curvature="0"
         style="stroke-linecap:butt;stroke-linejoin:round" />
    </defs>
    <defs
       id="defs25">
      <path
         d="M 10.59375,35.5 H 73.1875 V 27.203125 H 10.59375 Z"
         id="DejaVuSans-8722"
         inkscape:connector-curvature="0"
         style="stroke-linecap:butt;stroke-linejoin:round" />
      <path
         d="m 12.40625,8.296875 h 16.109375 v 55.625 L 10.984375,60.40625 v 8.984375 l 17.4375,3.515625 H 38.28125 V 8.296875 H 54.390625 V 0 H 12.40625 Z"
         id="DejaVuSans-49"
         inkscape:connector-curvature="0"
         style="stroke-linecap:butt;stroke-linejoin:round" />
      <path
         d="M 10.6875,12.40625 H 21 V 0 H 10.6875 Z"
         id="DejaVuSans-46"
         inkscape:connector-curvature="0"
         style="stroke-linecap:butt;stroke-linejoin:round" />
      <path
         d="m 31.78125,66.40625 q -7.609375,0 -11.453125,-7.5 Q 16.5,51.421875 16.5,36.375 q 0,-14.984375 3.828125,-22.484375 3.84375,-7.5 11.453125,-7.5 7.671875,0 11.5,7.5 3.84375,7.5 3.84375,22.484375 0,15.046875 -3.84375,22.53125 -3.828125,7.5 -11.5,7.5 z m 0,7.8125 q 12.265625,0 18.734375,-9.703125 6.46875,-9.6875 6.46875,-28.140625 0,-18.40625 -6.46875,-28.109375 -6.46875,-9.6875 -18.734375,-9.6875 -12.25,0 -18.71875,9.6875 Q 6.59375,17.96875 6.59375,36.375 q 0,18.453125 6.46875,28.140625 6.46875,9.703125 18.71875,9.703125 z"
         id="DejaVuSans-48"
         inkscape:connector-curvature="0"
         style="stroke-linecap:butt;stroke-linejoin:round" />
      <path
         d="M 37.796875,64.3125 12.890625,25.390625 h 24.90625 z m -2.59375,8.59375 h 12.40625 V 25.390625 h 10.40625 V 17.1875 H 47.609375 V 0 h -9.8125 V 17.1875 H 4.890625 v 9.515625 z"
         id="DejaVuSans-52"
         inkscape:connector-curvature="0"
         style="stroke-linecap:butt;stroke-linejoin:round" />
    </defs>
    <defs
       id="defs13">
      <path
         d="M 0,0 V 3.5"
         id="m51cd4c041e"
         style="stroke:#000000;stroke-width:0.80000001;stroke-linecap:butt;stroke-linejoin:round"
         inkscape:connector-curvature="0" />
    </defs>
    <defs
       id="defs47">
      <path
         d="M 40.578125,39.3125 Q 47.65625,37.796875 51.625,33 q 3.984375,-4.78125 3.984375,-11.8125 0,-10.78125 -7.421875,-16.703125 -7.421875,-5.90625 -21.09375,-5.90625 -4.578125,0 -9.4375,0.90625 -4.859375,0.90625 -10.03125,2.71875 v 9.515625 q 4.09375,-2.390625 8.96875,-3.609375 4.890625,-1.21875 10.21875,-1.21875 9.265625,0 14.125,3.65625 4.859375,3.65625 4.859375,10.640625 0,6.453125 -4.515625,10.078125 -4.515625,3.640625 -12.5625,3.640625 h -8.5 v 8.109375 h 8.890625 q 7.265625,0 11.125,2.90625 3.859375,2.90625 3.859375,8.375 0,5.609375 -3.984375,8.609375 -3.96875,3.015625 -11.390625,3.015625 -4.0625,0 -8.703125,-0.890625 Q 15.375,64.15625 9.8125,62.3125 v 8.78125 q 5.625,1.5625 10.53125,2.34375 4.90625,0.78125 9.25,0.78125 11.234375,0 17.765625,-5.109375 6.546875,-5.09375 6.546875,-13.78125 0,-6.0625 -3.46875,-10.234375 -3.46875,-4.171875 -9.859375,-5.78125 z"
         id="DejaVuSans-51"
         inkscape:connector-curvature="0"
         style="stroke-linecap:butt;stroke-linejoin:round" />
    </defs>
    <defs
       id="defs69">
      <path
         d="M 19.1875,8.296875 H 53.609375 V 0 H 7.328125 v 8.296875 q 5.609375,5.8125 15.296875,15.59375 9.703125,9.796875 12.1875,12.640625 4.734375,5.3125 6.609375,9 1.890625,3.6875 1.890625,7.25 0,5.8125 -4.078125,9.46875 -4.078125,3.671875 -10.625,3.671875 -4.640625,0 -9.796875,-1.609375 -5.140625,-1.609375 -11,-4.890625 v 9.96875 Q 13.765625,71.78125 18.9375,73 q 5.1875,1.21875 9.484375,1.21875 11.328125,0 18.0625,-5.671875 6.734375,-5.65625 6.734375,-15.125 0,-4.5 -1.6875,-8.53125 Q 49.859375,40.875 45.40625,35.40625 44.1875,33.984375 37.640625,27.21875 31.109375,20.453125 19.1875,8.296875 Z"
         id="DejaVuSans-50"
         inkscape:connector-curvature="0"
         style="stroke-linecap:butt;stroke-linejoin:round" />
    </defs>
    <defs
       id="defs129">
      <path
         d="M 10.984375,1.515625 V 10.5 Q 14.703125,8.734375 18.5,7.8125 q 3.8125,-0.921875 7.484375,-0.921875 9.765625,0 14.90625,6.5625 5.15625,6.5625 5.890625,19.953125 -2.828125,-4.203125 -7.1875,-6.453125 -4.34375,-2.25 -9.609375,-2.25 -10.9375,0 -17.3125,6.609375 -6.375,6.625 -6.375,18.109375 0,11.21875 6.640625,18 6.640625,6.796875 17.671875,6.796875 12.65625,0 19.3125,-9.703125 6.671875,-9.6875 6.671875,-28.140625 0,-17.234375 -8.1875,-27.515625 -8.171875,-10.28125 -21.984375,-10.28125 -3.71875,0 -7.53125,0.734375 -3.796875,0.734375 -7.90625,2.203125 z m 19.625,30.90625 q 6.640625,0 10.515625,4.53125 3.890625,4.546875 3.890625,12.46875 0,7.859375 -3.890625,12.421875 -3.875,4.5625 -10.515625,4.5625 -6.640625,0 -10.515625,-4.5625 -3.875,-4.5625 -3.875,-12.421875 0,-7.921875 3.875,-12.46875 3.875,-4.53125 10.515625,-4.53125 z"
         id="DejaVuSans-57"
         inkscape:connector-curvature="0"
         style="stroke-linecap:butt;stroke-linejoin:round" />
    </defs>
    <defs
       id="defs151">
      <path
         d="m 31.78125,34.625 q -7.03125,0 -11.0625,-3.765625 -4.015625,-3.765625 -4.015625,-10.34375 0,-6.59375 4.015625,-10.359375 4.03125,-3.765625 11.0625,-3.765625 7.03125,0 11.078125,3.78125 4.0625,3.796875 4.0625,10.34375 0,6.578125 -4.03125,10.34375 Q 38.875,34.625 31.78125,34.625 Z m -9.859375,4.1875 Q 15.578125,40.375 12.03125,44.71875 8.5,49.078125 8.5,55.328125 q 0,8.734375 6.21875,13.8125 6.234375,5.078125 17.0625,5.078125 10.890625,0 17.09375,-5.078125 6.203125,-5.078125 6.203125,-13.8125 0,-6.25 -3.546875,-10.609375 Q 48,40.375 41.703125,38.8125 q 7.125,-1.65625 11.09375,-6.5 3.984375,-4.828125 3.984375,-11.796875 0,-10.609375 -6.46875,-16.28125 -6.46875,-5.65625 -18.53125,-5.65625 -12.046875,0 -18.53125,5.65625 -6.46875,5.671875 -6.46875,16.28125 0,6.96875 4,11.796875 4.015625,4.84375 11.140625,6.5 z M 18.3125,54.390625 q 0,-5.65625 3.53125,-8.828125 3.546875,-3.171875 9.9375,-3.171875 6.359375,0 9.9375,3.171875 3.59375,3.171875 3.59375,8.828125 0,5.671875 -3.59375,8.84375 -3.578125,3.171875 -9.9375,3.171875 -6.390625,0 -9.9375,-3.171875 Q 18.3125,60.0625 18.3125,54.390625 Z"
         id="DejaVuSans-56"
         inkscape:connector-curvature="0"
         style="stroke-linecap:butt;stroke-linejoin:round" />
    </defs>
    <defs
       id="defs173">
      <path
         d="m 8.203125,72.90625 h 46.875 V 68.703125 L 28.609375,0 H 18.3125 L 43.21875,64.59375 H 8.203125 Z"
         id="DejaVuSans-55"
         inkscape:connector-curvature="0"
         style="stroke-linecap:butt;stroke-linejoin:round" />
    </defs>
  </defs>
  <g
     id="figure_1"
     style="stroke-linecap:butt;stroke-linejoin:round"
     transform="translate(-17.406401,-37.274478)">
    <g
       id="patch_1"
       style="stroke-linecap:butt;stroke-linejoin:round" />
    <g
       id="g2261"
       style="stroke-linecap:butt;stroke-linejoin:round"
       inkscape:export-xdpi="200.03"
       inkscape:export-ydpi="200.03">
      <rect
         y="37.983139"
         x="18.115063"
         height="318.42252"
         width="402.79437"
         id="rect2149"
         style="fill:#ffffff;fill-opacity:1;stroke:#ffffff;stroke-width:1.41732287;stroke-linecap:square;stroke-linejoin:miter;stroke-miterlimit:4;stroke-dasharray:none;stroke-dashoffset:0;stroke-opacity:1" />
      <g
         id="g2147"
         style="stroke-linecap:butt;stroke-linejoin:round">
        <path
           d="M 57.6,306.3024 H 414.72 V 41.2992 H 57.6 Z"
           style="fill:#ffffff;stroke-linecap:butt;stroke-linejoin:round"
           id="path9"
           inkscape:connector-curvature="0" />
        <g
           id="g17"
           style="stroke-linecap:butt;stroke-linejoin:round">
          <use
             style="stroke:#000000;stroke-width:0.80000001;stroke-linecap:butt;stroke-linejoin:round"
             x="84.654549"
             xlink:href="#m51cd4c041e"
             y="306.3024"
             id="use15"
             width="100%"
             height="100%" />
        </g>
        <g
           transform="matrix(0.1,0,0,-0.1,69.331889,320.90084)"
           id="g37"
           style="stroke-linecap:butt;stroke-linejoin:round">
          <use
             xlink:href="#DejaVuSans-8722"
             id="use27"
             style="stroke-linecap:butt;stroke-linejoin:round"
             x="0"
             y="0"
             width="100%"
             height="100%" />
          <use
             x="83.789062"
             xlink:href="#DejaVuSans-49"
             id="use29"
             style="stroke-linecap:butt;stroke-linejoin:round"
             y="0"
             width="100%"
             height="100%" />
          <use
             x="147.41211"
             xlink:href="#DejaVuSans-46"
             id="use31"
             style="stroke-linecap:butt;stroke-linejoin:round"
             y="0"
             width="100%"
             height="100%" />
          <use
             x="179.19922"
             xlink:href="#DejaVuSans-48"
             id="use33"
             style="stroke-linecap:butt;stroke-linejoin:round"
             y="0"
             width="100%"
             height="100%" />
          <use
             x="242.82227"
             xlink:href="#DejaVuSans-52"
             id="use35"
             style="stroke-linecap:butt;stroke-linejoin:round"
             y="0"
             width="100%"
             height="100%" />
        </g>
        <g
           id="g43"
           style="stroke-linecap:butt;stroke-linejoin:round">
          <use
             style="stroke:#000000;stroke-width:0.80000001;stroke-linecap:butt;stroke-linejoin:round"
             x="129.74545"
             xlink:href="#m51cd4c041e"
             y="306.3024"
             id="use41"
             width="100%"
             height="100%" />
        </g>
        <g
           transform="matrix(0.1,0,0,-0.1,114.4228,320.90084)"
           id="g59"
           style="stroke-linecap:butt;stroke-linejoin:round">
          <use
             xlink:href="#DejaVuSans-8722"
             id="use49"
             style="stroke-linecap:butt;stroke-linejoin:round"
             x="0"
             y="0"
             width="100%"
             height="100%" />
          <use
             x="83.789062"
             xlink:href="#DejaVuSans-49"
             id="use51"
             style="stroke-linecap:butt;stroke-linejoin:round"
             y="0"
             width="100%"
             height="100%" />
          <use
             x="147.41211"
             xlink:href="#DejaVuSans-46"
             id="use53"
             style="stroke-linecap:butt;stroke-linejoin:round"
             y="0"
             width="100%"
             height="100%" />
          <use
             x="179.19922"
             xlink:href="#DejaVuSans-48"
             id="use55"
             style="stroke-linecap:butt;stroke-linejoin:round"
             y="0"
             width="100%"
             height="100%" />
          <use
             x="242.82227"
             xlink:href="#DejaVuSans-51"
             id="use57"
             style="stroke-linecap:butt;stroke-linejoin:round"
             y="0"
             width="100%"
             height="100%" />
        </g>
        <g
           id="g65"
           style="stroke-linecap:butt;stroke-linejoin:round">
          <use
             style="stroke:#000000;stroke-width:0.80000001;stroke-linecap:butt;stroke-linejoin:round"
             x="174.83636"
             xlink:href="#m51cd4c041e"
             y="306.3024"
             id="use63"
             width="100%"
             height="100%" />
        </g>
        <g
           transform="matrix(0.1,0,0,-0.1,159.51371,320.90084)"
           id="g81"
           style="stroke-linecap:butt;stroke-linejoin:round">
          <use
             xlink:href="#DejaVuSans-8722"
             id="use71"
             style="stroke-linecap:butt;stroke-linejoin:round"
             x="0"
             y="0"
             width="100%"
             height="100%" />
          <use
             x="83.789062"
             xlink:href="#DejaVuSans-49"
             id="use73"
             style="stroke-linecap:butt;stroke-linejoin:round"
             y="0"
             width="100%"
             height="100%" />
          <use
             x="147.41211"
             xlink:href="#DejaVuSans-46"
             id="use75"
             style="stroke-linecap:butt;stroke-linejoin:round"
             y="0"
             width="100%"
             height="100%" />
          <use
             x="179.19922"
             xlink:href="#DejaVuSans-48"
             id="use77"
             style="stroke-linecap:butt;stroke-linejoin:round"
             y="0"
             width="100%"
             height="100%" />
          <use
             x="242.82227"
             xlink:href="#DejaVuSans-50"
             id="use79"
             style="stroke-linecap:butt;stroke-linejoin:round"
             y="0"
             width="100%"
             height="100%" />
        </g>
        <g
           id="g87"
           style="stroke-linecap:butt;stroke-linejoin:round">
          <use
             style="stroke:#000000;stroke-width:0.80000001;stroke-linecap:butt;stroke-linejoin:round"
             x="219.92728"
             xlink:href="#m51cd4c041e"
             y="306.3024"
             id="use85"
             width="100%"
             height="100%" />
        </g>
        <g
           transform="matrix(0.1,0,0,-0.1,204.60462,320.90084)"
           id="g100"
           style="stroke-linecap:butt;stroke-linejoin:round">
          <use
             xlink:href="#DejaVuSans-8722"
             id="use90"
             style="stroke-linecap:butt;stroke-linejoin:round"
             x="0"
             y="0"
             width="100%"
             height="100%" />
          <use
             x="83.789062"
             xlink:href="#DejaVuSans-49"
             id="use92"
             style="stroke-linecap:butt;stroke-linejoin:round"
             y="0"
             width="100%"
             height="100%" />
          <use
             x="147.41211"
             xlink:href="#DejaVuSans-46"
             id="use94"
             style="stroke-linecap:butt;stroke-linejoin:round"
             y="0"
             width="100%"
             height="100%" />
          <use
             x="179.19922"
             xlink:href="#DejaVuSans-48"
             id="use96"
             style="stroke-linecap:butt;stroke-linejoin:round"
             y="0"
             width="100%"
             height="100%" />
          <use
             x="242.82227"
             xlink:href="#DejaVuSans-49"
             id="use98"
             style="stroke-linecap:butt;stroke-linejoin:round"
             y="0"
             width="100%"
             height="100%" />
        </g>
        <g
           id="g106"
           style="stroke-linecap:butt;stroke-linejoin:round">
          <use
             style="stroke:#000000;stroke-width:0.80000001;stroke-linecap:butt;stroke-linejoin:round"
             x="265.01819"
             xlink:href="#m51cd4c041e"
             y="306.3024"
             id="use104"
             width="100%"
             height="100%" />
        </g>
        <g
           transform="matrix(0.1,0,0,-0.1,249.69553,320.90084)"
           id="g119"
           style="stroke-linecap:butt;stroke-linejoin:round">
          <use
             xlink:href="#DejaVuSans-8722"
             id="use109"
             style="stroke-linecap:butt;stroke-linejoin:round"
             x="0"
             y="0"
             width="100%"
             height="100%" />
          <use
             x="83.789062"
             xlink:href="#DejaVuSans-49"
             id="use111"
             style="stroke-linecap:butt;stroke-linejoin:round"
             y="0"
             width="100%"
             height="100%" />
          <use
             x="147.41211"
             xlink:href="#DejaVuSans-46"
             id="use113"
             style="stroke-linecap:butt;stroke-linejoin:round"
             y="0"
             width="100%"
             height="100%" />
          <use
             x="179.19922"
             xlink:href="#DejaVuSans-48"
             id="use115"
             style="stroke-linecap:butt;stroke-linejoin:round"
             y="0"
             width="100%"
             height="100%" />
          <use
             x="242.82227"
             xlink:href="#DejaVuSans-48"
             id="use117"
             style="stroke-linecap:butt;stroke-linejoin:round"
             y="0"
             width="100%"
             height="100%" />
        </g>
        <g
           id="g125"
           style="stroke-linecap:butt;stroke-linejoin:round">
          <use
             style="stroke:#000000;stroke-width:0.80000001;stroke-linecap:butt;stroke-linejoin:round"
             x="310.1091"
             xlink:href="#m51cd4c041e"
             y="306.3024"
             id="use123"
             width="100%"
             height="100%" />
        </g>
        <g
           transform="matrix(0.1,0,0,-0.1,294.78643,320.90084)"
           id="g141"
           style="stroke-linecap:butt;stroke-linejoin:round">
          <use
             xlink:href="#DejaVuSans-8722"
             id="use131"
             style="stroke-linecap:butt;stroke-linejoin:round"
             x="0"
             y="0"
             width="100%"
             height="100%" />
          <use
             x="83.789062"
             xlink:href="#DejaVuSans-48"
             id="use133"
             style="stroke-linecap:butt;stroke-linejoin:round"
             y="0"
             width="100%"
             height="100%" />
          <use
             x="147.41211"
             xlink:href="#DejaVuSans-46"
             id="use135"
             style="stroke-linecap:butt;stroke-linejoin:round"
             y="0"
             width="100%"
             height="100%" />
          <use
             x="179.19922"
             xlink:href="#DejaVuSans-57"
             id="use137"
             style="stroke-linecap:butt;stroke-linejoin:round"
             y="0"
             width="100%"
             height="100%" />
          <use
             x="242.82227"
             xlink:href="#DejaVuSans-57"
             id="use139"
             style="stroke-linecap:butt;stroke-linejoin:round"
             y="0"
             width="100%"
             height="100%" />
        </g>
        <g
           id="g147"
           style="stroke-linecap:butt;stroke-linejoin:round">
          <use
             style="stroke:#000000;stroke-width:0.80000001;stroke-linecap:butt;stroke-linejoin:round"
             x="355.20001"
             xlink:href="#m51cd4c041e"
             y="306.3024"
             id="use145"
             width="100%"
             height="100%" />
        </g>
        <g
           transform="matrix(0.1,0,0,-0.1,339.87734,320.90084)"
           id="g163"
           style="stroke-linecap:butt;stroke-linejoin:round">
          <use
             xlink:href="#DejaVuSans-8722"
             id="use153"
             style="stroke-linecap:butt;stroke-linejoin:round"
             x="0"
             y="0"
             width="100%"
             height="100%" />
          <use
             x="83.789062"
             xlink:href="#DejaVuSans-48"
             id="use155"
             style="stroke-linecap:butt;stroke-linejoin:round"
             y="0"
             width="100%"
             height="100%" />
          <use
             x="147.41211"
             xlink:href="#DejaVuSans-46"
             id="use157"
             style="stroke-linecap:butt;stroke-linejoin:round"
             y="0"
             width="100%"
             height="100%" />
          <use
             x="179.19922"
             xlink:href="#DejaVuSans-57"
             id="use159"
             style="stroke-linecap:butt;stroke-linejoin:round"
             y="0"
             width="100%"
             height="100%" />
          <use
             x="242.82227"
             xlink:href="#DejaVuSans-56"
             id="use161"
             style="stroke-linecap:butt;stroke-linejoin:round"
             y="0"
             width="100%"
             height="100%" />
        </g>
        <g
           id="g169"
           style="stroke-linecap:butt;stroke-linejoin:round">
          <use
             style="stroke:#000000;stroke-width:0.80000001;stroke-linecap:butt;stroke-linejoin:round"
             x="400.29092"
             xlink:href="#m51cd4c041e"
             y="306.3024"
             id="use167"
             width="100%"
             height="100%" />
        </g>
        <g
           transform="matrix(0.1,0,0,-0.1,384.96825,320.90084)"
           id="g185"
           style="stroke-linecap:butt;stroke-linejoin:round">
          <use
             xlink:href="#DejaVuSans-8722"
             id="use175"
             style="stroke-linecap:butt;stroke-linejoin:round"
             x="0"
             y="0"
             width="100%"
             height="100%" />
          <use
             x="83.789062"
             xlink:href="#DejaVuSans-48"
             id="use177"
             style="stroke-linecap:butt;stroke-linejoin:round"
             y="0"
             width="100%"
             height="100%" />
          <use
             x="147.41211"
             xlink:href="#DejaVuSans-46"
             id="use179"
             style="stroke-linecap:butt;stroke-linejoin:round"
             y="0"
             width="100%"
             height="100%" />
          <use
             x="179.19922"
             xlink:href="#DejaVuSans-57"
             id="use181"
             style="stroke-linecap:butt;stroke-linejoin:round"
             y="0"
             width="100%"
             height="100%" />
          <use
             x="242.82227"
             xlink:href="#DejaVuSans-55"
             id="use183"
             style="stroke-linecap:butt;stroke-linejoin:round"
             y="0"
             width="100%"
             height="100%" />
        </g>
        <g
           id="g195"
           style="stroke-linecap:butt;stroke-linejoin:round">
          <use
             style="stroke:#000000;stroke-width:0.80000001;stroke-linecap:butt;stroke-linejoin:round"
             x="57.599998"
             xlink:href="#m7110879dad"
             y="303.17953"
             id="use193"
             width="100%"
             height="100%" />
        </g>
        <g
           id="g212"
           style="stroke-linecap:butt;stroke-linejoin:round">
          <use
             style="stroke:#000000;stroke-width:0.80000001;stroke-linecap:butt;stroke-linejoin:round"
             x="57.599998"
             xlink:href="#m7110879dad"
             y="261.54041"
             id="use210"
             width="100%"
             height="100%" />
        </g>
        <g
           id="g232"
           style="stroke-linecap:butt;stroke-linejoin:round">
          <use
             style="stroke:#000000;stroke-width:0.80000001;stroke-linecap:butt;stroke-linejoin:round"
             x="57.599998"
             xlink:href="#m7110879dad"
             y="219.90129"
             id="use230"
             width="100%"
             height="100%" />
        </g>
        <g
           id="g249"
           style="stroke-linecap:butt;stroke-linejoin:round">
          <use
             style="stroke:#000000;stroke-width:0.80000001;stroke-linecap:butt;stroke-linejoin:round"
             x="57.599998"
             xlink:href="#m7110879dad"
             y="178.26216"
             id="use247"
             width="100%"
             height="100%" />
        </g>
        <g
           id="g266"
           style="stroke-linecap:butt;stroke-linejoin:round">
          <use
             style="stroke:#000000;stroke-width:0.80000001;stroke-linecap:butt;stroke-linejoin:round"
             x="57.599998"
             xlink:href="#m7110879dad"
             y="136.62305"
             id="use264"
             width="100%"
             height="100%" />
        </g>
        <g
           id="g283"
           style="stroke-linecap:butt;stroke-linejoin:round">
          <use
             style="stroke:#000000;stroke-width:0.80000001;stroke-linecap:butt;stroke-linejoin:round"
             x="57.599998"
             xlink:href="#m7110879dad"
             y="94.983917"
             id="use281"
             width="100%"
             height="100%" />
        </g>
        <g
           id="g300"
           style="stroke-linecap:butt;stroke-linejoin:round">
          <use
             style="stroke:#000000;stroke-width:0.80000001;stroke-linecap:butt;stroke-linejoin:round"
             x="57.599998"
             xlink:href="#m7110879dad"
             y="53.344799"
             id="use298"
             width="100%"
             height="100%" />
        </g>
        <path
           clip-path="url(#p0a85e2c92f)"
           d="m 73.832727,245.6572 9.018182,-41.69387 9.018182,-15.61936 9.018179,-3.16244 9.01819,-1.20374 9.01818,-19.84605 9.01818,-20.19453 9.01818,-16.45189 9.01818,-4.71574 9.01818,-18.88625 9.01818,-32.759477 9.01819,3.064096 9.01818,-6.93933 9.01818,-5.755112 9.01818,-7.934196 9.01818,17.771148 9.01819,2.619625 9.01818,-4.77515 9.01818,-15.830134 9.01818,37.780018 9.01818,14.204942 9.01818,-27.786039 9.01819,55.513019 9.01818,18.87209 9.01818,35.48356 9.01818,-48.9409 9.01818,47.39014 9.01819,32.28118 9.01818,-18.68008 9.01818,14.37111 9.01818,40.02653 9.01818,-32.04039 9.01818,35.75072 9.01819,18.85993 9.01818,17.82617 9.01818,-43.87155 9.01818,30.84977"
           style="fill:none;stroke:#000000;stroke-width:1.5;stroke-linecap:square;stroke-linejoin:round"
           id="path316"
           inkscape:connector-curvature="0" />
        <path
           clip-path="url(#p0a85e2c92f)"
           d="m 82.4,192.95493 11.272727,-14.08421 11.272723,-14.62766 11.27273,-3.64115 11.27273,-24.34974 11.27273,-8.82824 11.27272,-17.33042 11.27273,-16.186817 11.27273,-14.336586 11.27272,-5.933196 11.27273,-4.493226 L 206.4,53.3448 l 11.27273,10.512689 11.27272,-2.778029 11.27273,-0.776437 11.27273,12.897169 11.27273,13.197337 11.27272,15.122191 11.27273,12.85519 11.27273,18.48285 11.27272,15.20838 11.27273,23.15759 11.27273,-4.0441 11.27273,21.01485 11.27272,20.13804 11.27273,1.36151 11.27273,10.6641 11.27273,1.07909 11.27272,18.66726"
           style="fill:none;stroke:#8b4513;stroke-width:1.5;stroke-linecap:square;stroke-linejoin:round"
           id="path319"
           inkscape:connector-curvature="0" />
        <path
           clip-path="url(#p0a85e2c92f)"
           d="m 82.4,161.08691 11.272727,8.6188 11.272723,-17.19181 11.27273,-4.46076 11.27273,3.23792 11.27273,-17.13975 11.27272,3.47854 11.27273,-25.46805 11.27273,-9.23138 L 183.85454,88.688361 195.12727,77.167025 206.4,71.823791 217.67273,53.3448 l 11.27272,9.972757 11.27273,-6.58987 11.27273,5.472094 11.27273,-3.630646 11.27272,9.335329 11.27273,-1.758815 11.27273,20.603651 11.27272,14.50896 11.27273,15.04164 11.27273,0.59009 11.27273,21.02764 11.27272,2.66429 11.27273,5.29327 11.27273,13.30857 11.27273,7.66966 11.27272,4.21168"
           style="fill:none;stroke:#b8860b;stroke-width:1.5;stroke-linecap:square;stroke-linejoin:round"
           id="path322"
           inkscape:connector-curvature="0" />
        <path
           clip-path="url(#p0a85e2c92f)"
           d="m 82.4,115.86145 11.272727,-8.26435 11.272723,19.71384 11.27273,-12.20207 11.27273,-10.22293 11.27273,-16.570556 11.27272,3.309805 11.27273,-16.002335 11.27273,13.86424 11.27272,5.407871 11.27273,-7.955502 L 206.4,74.905152 217.67273,67.439559 228.94545,53.3448 l 11.27273,30.55135 11.27273,-15.72199 11.27273,-0.488063 11.27272,10.202877 11.27273,8.445429 11.27273,2.856713 11.27272,-9.273012 11.27273,25.530446 11.27273,1.51276 11.27273,9.75588 11.27272,-24.395828 11.27273,24.201968 11.27273,-14.84673 11.27273,7.73109 11.27272,9.21027"
           style="fill:none;stroke:#6b8e23;stroke-width:1.5;stroke-linecap:square;stroke-linejoin:round"
           id="path325"
           inkscape:connector-curvature="0" />
        <path
           d="M 57.6,306.3024 V 41.2992"
           style="fill:none;stroke:#000000;stroke-width:0.80000001;stroke-linecap:square;stroke-linejoin:miter"
           id="path328"
           inkscape:connector-curvature="0" />
        <path
           d="M 414.72,306.3024 V 41.2992"
           style="fill:none;stroke:#000000;stroke-width:0.80000001;stroke-linecap:square;stroke-linejoin:miter"
           id="path331"
           inkscape:connector-curvature="0" />
        <path
           d="M 57.6,306.3024 H 414.72"
           style="fill:none;stroke:#000000;stroke-width:0.80000001;stroke-linecap:square;stroke-linejoin:miter"
           id="path334"
           inkscape:connector-curvature="0" />
        <path
           d="M 57.6,41.2992 H 414.72"
           style="fill:none;stroke:#000000;stroke-width:0.80000001;stroke-linecap:square;stroke-linejoin:miter"
           id="path337"
           inkscape:connector-curvature="0" />
        <path
           inkscape:connector-curvature="0"
           id="path340"
           style="opacity:0.8;fill:#ffffff;stroke:#cccccc;stroke-linecap:butt;stroke-linejoin:miter"
           d="m 205.75844,301.3024 h 60.80312 q 2,0 2,-2 v -57.7125 q 0,-2 -2,-2 h -60.80312 q -2,0 -2,2 v 57.7125 q 0,2 2,2 z" />
        <path
           inkscape:connector-curvature="0"
           id="path343"
           style="fill:none;stroke:#000000;stroke-width:1.5;stroke-linecap:square;stroke-linejoin:round"
           d="m 207.75844,247.68834 h 20" />
        <use
           xlink:href="#DejaVuSans-65"
           id="use351"
           style="stroke-linecap:butt;stroke-linejoin:round"
           x="0"
           y="0"
           width="100%"
           height="100%"
           transform="matrix(0.1,0,0,-0.1,235.75844,251.18834)" />
        <use
           x="68.392578"
           xlink:href="#DejaVuSans-71"
           id="use353"
           style="stroke-linecap:butt;stroke-linejoin:round"
           y="0"
           width="100%"
           height="100%"
           transform="matrix(0.1,0,0,-0.1,235.75844,251.18834)" />
        <path
           inkscape:connector-curvature="0"
           id="path358"
           style="fill:none;stroke:#8b4513;stroke-width:1.5;stroke-linecap:square;stroke-linejoin:round"
           d="m 207.75844,262.36646 h 20" />
        <use
           xlink:href="#DejaVuSans-51"
           id="use366"
           style="stroke-linecap:butt;stroke-linejoin:round"
           x="0"
           y="0"
           width="100%"
           height="100%"
           transform="matrix(0.1,0,0,-0.1,235.75844,265.86646)" />
        <use
           x="63.623047"
           xlink:href="#DejaVuSans-110"
           id="use368"
           style="stroke-linecap:butt;stroke-linejoin:round"
           y="0"
           width="100%"
           height="100%"
           transform="matrix(0.1,0,0,-0.1,235.75844,265.86646)" />
        <use
           x="127.00195"
           xlink:href="#DejaVuSans-109"
           id="use370"
           style="stroke-linecap:butt;stroke-linejoin:round"
           y="0"
           width="100%"
           height="100%"
           transform="matrix(0.1,0,0,-0.1,235.75844,265.86646)" />
        <path
           inkscape:connector-curvature="0"
           id="path375"
           style="fill:none;stroke:#b8860b;stroke-width:1.5;stroke-linecap:square;stroke-linejoin:round"
           d="m 207.75844,277.04459 h 20" />
        <use
           xlink:href="#DejaVuSans-55"
           id="use379"
           style="stroke-linecap:butt;stroke-linejoin:round"
           x="0"
           y="0"
           width="100%"
           height="100%"
           transform="matrix(0.1,0,0,-0.1,235.75844,280.54459)" />
        <use
           x="63.623047"
           xlink:href="#DejaVuSans-110"
           id="use381"
           style="stroke-linecap:butt;stroke-linejoin:round"
           y="0"
           width="100%"
           height="100%"
           transform="matrix(0.1,0,0,-0.1,235.75844,280.54459)" />
        <use
           x="127.00195"
           xlink:href="#DejaVuSans-109"
           id="use383"
           style="stroke-linecap:butt;stroke-linejoin:round"
           y="0"
           width="100%"
           height="100%"
           transform="matrix(0.1,0,0,-0.1,235.75844,280.54459)" />
        <path
           inkscape:connector-curvature="0"
           id="path388"
           style="fill:none;stroke:#6b8e23;stroke-width:1.5;stroke-linecap:square;stroke-linejoin:round"
           d="m 207.75844,291.72271 h 20" />
        <use
           xlink:href="#DejaVuSans-50"
           id="use392"
           style="stroke-linecap:butt;stroke-linejoin:round"
           x="0"
           y="0"
           width="100%"
           height="100%"
           transform="matrix(0.1,0,0,-0.1,235.75844,295.22271)" />
        <use
           x="63.623047"
           xlink:href="#DejaVuSans-48"
           id="use394"
           style="stroke-linecap:butt;stroke-linejoin:round"
           y="0"
           width="100%"
           height="100%"
           transform="matrix(0.1,0,0,-0.1,235.75844,295.22271)" />
        <use
           x="127.24609"
           xlink:href="#DejaVuSans-110"
           id="use396"
           style="stroke-linecap:butt;stroke-linejoin:round"
           y="0"
           width="100%"
           height="100%"
           transform="matrix(0.1,0,0,-0.1,235.75844,295.22271)" />
        <use
           x="190.625"
           xlink:href="#DejaVuSans-109"
           id="use398"
           style="stroke-linecap:butt;stroke-linejoin:round"
           y="0"
           width="100%"
           height="100%"
           transform="matrix(0.1,0,0,-0.1,235.75844,295.22271)" />
        <text
           xml:space="preserve"
           style="font-style:normal;font-variant:normal;font-weight:normal;font-stretch:normal;font-size:20px;line-height:1.25;font-family:sans-serif;-inkscape-font-specification:'sans-serif, Normal';font-variant-ligatures:normal;font-variant-caps:normal;font-variant-numeric:normal;font-feature-settings:normal;text-align:start;letter-spacing:0px;word-spacing:0px;writing-mode:lr-tb;text-anchor:start;fill:#000000;fill-opacity:1;stroke:none;stroke-width:0.75;stroke-linecap:butt;stroke-linejoin:round"
           x="-240.43654"
           y="38.543171"
           id="text2033"
           transform="rotate(-90)"><tspan
             sodipodi:role="line"
             id="tspan2031"
             style="stroke-width:0.75;stroke-linecap:butt;stroke-linejoin:round"
             x="-240.43654"
             y="38.543171">Log Intensity</tspan></text>
        <text
           xml:space="preserve"
           style="font-style:normal;font-variant:normal;font-weight:normal;font-stretch:normal;font-size:20px;line-height:1.25;font-family:sans-serif;-inkscape-font-specification:'sans-serif, Normal';font-variant-ligatures:normal;font-variant-caps:normal;font-variant-numeric:normal;font-feature-settings:normal;text-align:start;letter-spacing:0px;word-spacing:0px;writing-mode:lr-tb;text-anchor:start;fill:#000000;fill-opacity:1;stroke:none;stroke-width:0.75;stroke-linecap:butt;stroke-linejoin:round"
           x="232.02254"
           y="353.48959"
           id="text2037"><tspan
             sodipodi:role="line"
             id="tspan2035"
             style="font-style:italic;font-variant:normal;font-weight:normal;font-stretch:normal;font-family:sans-serif;-inkscape-font-specification:'sans-serif Italic';stroke-width:0.75;stroke-linecap:butt;stroke-linejoin:round"
             x="232.02254"
             y="353.48959">H</tspan></text>
      </g>
    </g>
  </g>
  <defs
     id="defs409">
    <clipPath
       id="p0a85e2c92f"
       style="stroke-linecap:butt;stroke-linejoin:round">
      <rect
         height="265.0032"
         width="357.12"
         x="57.599998"
         y="41.299198"
         id="rect406"
         style="stroke-linecap:butt;stroke-linejoin:round" />
    </clipPath>
  </defs>
</svg>
